<?xml version="1.0" encoding="utf-8" standalone="no"?>
<!DOCTYPE svg PUBLIC "-//W3C//DTD SVG 1.1//EN"
  "http://www.w3.org/Graphics/SVG/1.1/DTD/svg11.dtd">
<svg xmlns:xlink="http://www.w3.org/1999/xlink" width="425.45423pt" height="279.648516pt" viewBox="0 0 425.45423 279.648516" xmlns="http://www.w3.org/2000/svg" version="1.1">
 <metadata>
  <rdf:RDF xmlns:dc="http://purl.org/dc/elements/1.1/" xmlns:cc="http://creativecommons.org/ns#" xmlns:rdf="http://www.w3.org/1999/02/22-rdf-syntax-ns#">
   <cc:Work>
    <dc:type rdf:resource="http://purl.org/dc/dcmitype/StillImage"/>
    <dc:date>2026-08-01T14:02:29.999281</dc:date>
    <dc:format>image/svg+xml</dc:format>
    <dc:creator>
     <cc:Agent>
      <dc:title>Matplotlib v3.11.0, https://matplotlib.org/</dc:title>
     </cc:Agent>
    </dc:creator>
   </cc:Work>
  </rdf:RDF>
 </metadata>
 <defs>
  <style type="text/css">*{stroke-linejoin: round; stroke-linecap: butt}</style>
 </defs>
 <g id="figure_1">
  <g id="patch_1">
   <path d="M 0 279.648516 
L 425.45423 279.648516 
L 425.45423 0 
L 0 0 
z
" style="fill: #ffffff"/>
  </g>
  <g id="axes_1">
   <g id="patch_2">
    <path d="M 46.694297 239.445938 
L 414.974297 239.445938 
L 414.974297 23.229938 
L 46.694297 23.229938 
z
" style="fill: #ffffff"/>
   </g>
   <g id="matplotlib.axis_1">
    <g id="xtick_1">
     <g id="line2d_1">
      <defs>
       <path id="mddc740899e" d="M 0 0 
L 0 3.5 
" style="stroke: #000000; stroke-width: 0.8"/>
      </defs>
      <g>
       <use xlink:href="#mddc740899e" x="46.694297" y="239.445938" style="stroke: #000000; stroke-width: 0.8"/>
      </g>
     </g>
     <g id="text_1">
      <!-- 0 -->
      <g transform="translate(43.194922 254.803359) scale(0.11 -0.11)">
       <defs>
        <path id="DejaVuSans-13" d="M 2034 4250 
Q 1547 4250 1301 3770 
Q 1056 3291 1056 2328 
Q 1056 1369 1301 889 
Q 1547 409 2034 409 
Q 2525 409 2770 889 
Q 3016 1369 3016 2328 
Q 3016 3291 2770 3770 
Q 2525 4250 2034 4250 
z
M 2034 4750 
Q 2819 4750 3233 4129 
Q 3647 3509 3647 2328 
Q 3647 1150 3233 529 
Q 2819 -91 2034 -91 
Q 1250 -91 836 529 
Q 422 1150 422 2328 
Q 422 3509 836 4129 
Q 1250 4750 2034 4750 
z
" transform="scale(0.015625)"/>
       </defs>
       <use xlink:href="#DejaVuSans-13"/>
      </g>
     </g>
    </g>
    <g id="xtick_2">
     <g id="line2d_2">
      <g>
       <use xlink:href="#mddc740899e" x="107.454494" y="239.445938" style="stroke: #000000; stroke-width: 0.8"/>
      </g>
     </g>
     <g id="text_2">
      <!-- 10 -->
      <g transform="translate(100.455744 254.803359) scale(0.11 -0.11)">
       <defs>
        <path id="DejaVuSans-14" d="M 794 531 
L 1825 531 
L 1825 4091 
L 703 3866 
L 703 4441 
L 1819 4666 
L 2450 4666 
L 2450 531 
L 3481 531 
L 3481 0 
L 794 0 
L 794 531 
z
" transform="scale(0.015625)"/>
       </defs>
       <use xlink:href="#DejaVuSans-14"/>
       <use xlink:href="#DejaVuSans-13" transform="translate(63.625 0)"/>
      </g>
     </g>
    </g>
    <g id="xtick_3">
     <g id="line2d_3">
      <g>
       <use xlink:href="#mddc740899e" x="168.214691" y="239.445938" style="stroke: #000000; stroke-width: 0.8"/>
      </g>
     </g>
     <g id="text_3">
      <!-- 20 -->
      <g transform="translate(161.215941 254.803359) scale(0.11 -0.11)">
       <defs>
        <path id="DejaVuSans-15" d="M 1228 531 
L 3431 531 
L 3431 0 
L 469 0 
L 469 531 
Q 828 903 1448 1529 
Q 2069 2156 2228 2338 
Q 2531 2678 2651 2914 
Q 2772 3150 2772 3378 
Q 2772 3750 2511 3984 
Q 2250 4219 1831 4219 
Q 1534 4219 1204 4116 
Q 875 4013 500 3803 
L 500 4441 
Q 881 4594 1212 4672 
Q 1544 4750 1819 4750 
Q 2544 4750 2975 4387 
Q 3406 4025 3406 3419 
Q 3406 3131 3298 2873 
Q 3191 2616 2906 2266 
Q 2828 2175 2409 1742 
Q 1991 1309 1228 531 
z
" transform="scale(0.015625)"/>
       </defs>
       <use xlink:href="#DejaVuSans-15"/>
       <use xlink:href="#DejaVuSans-13" transform="translate(63.625 0)"/>
      </g>
     </g>
    </g>
    <g id="xtick_4">
     <g id="line2d_4">
      <g>
       <use xlink:href="#mddc740899e" x="228.974889" y="239.445938" style="stroke: #000000; stroke-width: 0.8"/>
      </g>
     </g>
     <g id="text_4">
      <!-- 30 -->
      <g transform="translate(221.976139 254.803359) scale(0.11 -0.11)">
       <defs>
        <path id="DejaVuSans-16" d="M 2597 2516 
Q 3050 2419 3304 2112 
Q 3559 1806 3559 1356 
Q 3559 666 3084 287 
Q 2609 -91 1734 -91 
Q 1441 -91 1130 -33 
Q 819 25 488 141 
L 488 750 
Q 750 597 1062 519 
Q 1375 441 1716 441 
Q 2309 441 2620 675 
Q 2931 909 2931 1356 
Q 2931 1769 2642 2001 
Q 2353 2234 1838 2234 
L 1294 2234 
L 1294 2753 
L 1863 2753 
Q 2328 2753 2575 2939 
Q 2822 3125 2822 3475 
Q 2822 3834 2567 4026 
Q 2313 4219 1838 4219 
Q 1578 4219 1281 4162 
Q 984 4106 628 3988 
L 628 4550 
Q 988 4650 1302 4700 
Q 1616 4750 1894 4750 
Q 2613 4750 3031 4423 
Q 3450 4097 3450 3541 
Q 3450 3153 3228 2886 
Q 3006 2619 2597 2516 
z
" transform="scale(0.015625)"/>
       </defs>
       <use xlink:href="#DejaVuSans-16"/>
       <use xlink:href="#DejaVuSans-13" transform="translate(63.625 0)"/>
      </g>
     </g>
    </g>
    <g id="xtick_5">
     <g id="line2d_5">
      <g>
       <use xlink:href="#mddc740899e" x="289.735086" y="239.445938" style="stroke: #000000; stroke-width: 0.8"/>
      </g>
     </g>
     <g id="text_5">
      <!-- 40 -->
      <g transform="translate(282.736336 254.803359) scale(0.11 -0.11)">
       <defs>
        <path id="DejaVuSans-17" d="M 2419 4116 
L 825 1625 
L 2419 1625 
L 2419 4116 
z
M 2253 4666 
L 3047 4666 
L 3047 1625 
L 3713 1625 
L 3713 1100 
L 3047 1100 
L 3047 0 
L 2419 0 
L 2419 1100 
L 313 1100 
L 313 1709 
L 2253 4666 
z
" transform="scale(0.015625)"/>
       </defs>
       <use xlink:href="#DejaVuSans-17"/>
       <use xlink:href="#DejaVuSans-13" transform="translate(63.625 0)"/>
      </g>
     </g>
    </g>
    <g id="xtick_6">
     <g id="line2d_6">
      <g>
       <use xlink:href="#mddc740899e" x="350.495283" y="239.445938" style="stroke: #000000; stroke-width: 0.8"/>
      </g>
     </g>
     <g id="text_6">
      <!-- 50 -->
      <g transform="translate(343.496533 254.803359) scale(0.11 -0.11)">
       <defs>
        <path id="DejaVuSans-18" d="M 691 4666 
L 3169 4666 
L 3169 4134 
L 1269 4134 
L 1269 2991 
Q 1406 3038 1543 3061 
Q 1681 3084 1819 3084 
Q 2600 3084 3056 2656 
Q 3513 2228 3513 1497 
Q 3513 744 3044 326 
Q 2575 -91 1722 -91 
Q 1428 -91 1123 -41 
Q 819 9 494 109 
L 494 744 
Q 775 591 1075 516 
Q 1375 441 1709 441 
Q 2250 441 2565 725 
Q 2881 1009 2881 1497 
Q 2881 1984 2565 2268 
Q 2250 2553 1709 2553 
Q 1456 2553 1204 2497 
Q 953 2441 691 2322 
L 691 4666 
z
" transform="scale(0.015625)"/>
       </defs>
       <use xlink:href="#DejaVuSans-18"/>
       <use xlink:href="#DejaVuSans-13" transform="translate(63.625 0)"/>
      </g>
     </g>
    </g>
    <g id="xtick_7">
     <g id="line2d_7">
      <g>
       <use xlink:href="#mddc740899e" x="411.25548" y="239.445938" style="stroke: #000000; stroke-width: 0.8"/>
      </g>
     </g>
     <g id="text_7">
      <!-- 60 -->
      <g transform="translate(404.25673 254.803359) scale(0.11 -0.11)">
       <defs>
        <path id="DejaVuSans-19" d="M 2113 2584 
Q 1688 2584 1439 2293 
Q 1191 2003 1191 1497 
Q 1191 994 1439 701 
Q 1688 409 2113 409 
Q 2538 409 2786 701 
Q 3034 994 3034 1497 
Q 3034 2003 2786 2293 
Q 2538 2584 2113 2584 
z
M 3366 4563 
L 3366 3988 
Q 3128 4100 2886 4159 
Q 2644 4219 2406 4219 
Q 1781 4219 1451 3797 
Q 1122 3375 1075 2522 
Q 1259 2794 1537 2939 
Q 1816 3084 2150 3084 
Q 2853 3084 3261 2657 
Q 3669 2231 3669 1497 
Q 3669 778 3244 343 
Q 2819 -91 2113 -91 
Q 1303 -91 875 529 
Q 447 1150 447 2328 
Q 447 3434 972 4092 
Q 1497 4750 2381 4750 
Q 2619 4750 2861 4703 
Q 3103 4656 3366 4563 
z
" transform="scale(0.015625)"/>
       </defs>
       <use xlink:href="#DejaVuSans-19"/>
       <use xlink:href="#DejaVuSans-13" transform="translate(63.625 0)"/>
      </g>
     </g>
    </g>
    <g id="text_8">
     <!-- depth into water ($\mu$m) -->
     <g transform="translate(170.224297 269.805938) scale(0.11 -0.11)">
      <defs>
       <path id="DejaVuSans-47" d="M 2906 2969 
L 2906 4863 
L 3481 4863 
L 3481 0 
L 2906 0 
L 2906 525 
Q 2725 213 2448 61 
Q 2172 -91 1784 -91 
Q 1150 -91 751 415 
Q 353 922 353 1747 
Q 353 2572 751 3078 
Q 1150 3584 1784 3584 
Q 2172 3584 2448 3432 
Q 2725 3281 2906 2969 
z
M 947 1747 
Q 947 1113 1208 752 
Q 1469 391 1925 391 
Q 2381 391 2643 752 
Q 2906 1113 2906 1747 
Q 2906 2381 2643 2742 
Q 2381 3103 1925 3103 
Q 1469 3103 1208 2742 
Q 947 2381 947 1747 
z
" transform="scale(0.015625)"/>
       <path id="DejaVuSans-48" d="M 3597 1894 
L 3597 1613 
L 953 1613 
Q 991 1019 1311 708 
Q 1631 397 2203 397 
Q 2534 397 2845 478 
Q 3156 559 3463 722 
L 3463 178 
Q 3153 47 2828 -22 
Q 2503 -91 2169 -91 
Q 1331 -91 842 396 
Q 353 884 353 1716 
Q 353 2575 817 3079 
Q 1281 3584 2069 3584 
Q 2775 3584 3186 3129 
Q 3597 2675 3597 1894 
z
M 3022 2063 
Q 3016 2534 2758 2815 
Q 2500 3097 2075 3097 
Q 1594 3097 1305 2825 
Q 1016 2553 972 2059 
L 3022 2063 
z
" transform="scale(0.015625)"/>
       <path id="DejaVuSans-53" d="M 1159 525 
L 1159 -1331 
L 581 -1331 
L 581 3500 
L 1159 3500 
L 1159 2969 
Q 1341 3281 1617 3432 
Q 1894 3584 2278 3584 
Q 2916 3584 3314 3078 
Q 3713 2572 3713 1747 
Q 3713 922 3314 415 
Q 2916 -91 2278 -91 
Q 1894 -91 1617 61 
Q 1341 213 1159 525 
z
M 3116 1747 
Q 3116 2381 2855 2742 
Q 2594 3103 2138 3103 
Q 1681 3103 1420 2742 
Q 1159 2381 1159 1747 
Q 1159 1113 1420 752 
Q 1681 391 2138 391 
Q 2594 391 2855 752 
Q 3116 1113 3116 1747 
z
" transform="scale(0.015625)"/>
       <path id="DejaVuSans-57" d="M 1172 4494 
L 1172 3500 
L 2356 3500 
L 2356 3053 
L 1172 3053 
L 1172 1153 
Q 1172 725 1289 603 
Q 1406 481 1766 481 
L 2356 481 
L 2356 0 
L 1766 0 
Q 1100 0 847 248 
Q 594 497 594 1153 
L 594 3053 
L 172 3053 
L 172 3500 
L 594 3500 
L 594 4494 
L 1172 4494 
z
" transform="scale(0.015625)"/>
       <path id="DejaVuSans-4b" d="M 3513 2113 
L 3513 0 
L 2938 0 
L 2938 2094 
Q 2938 2591 2744 2837 
Q 2550 3084 2163 3084 
Q 1697 3084 1428 2787 
Q 1159 2491 1159 1978 
L 1159 0 
L 581 0 
L 581 4863 
L 1159 4863 
L 1159 2956 
Q 1366 3272 1645 3428 
Q 1925 3584 2291 3584 
Q 2894 3584 3203 3211 
Q 3513 2838 3513 2113 
z
" transform="scale(0.015625)"/>
       <path id="DejaVuSans-3" transform="scale(0.015625)"/>
       <path id="DejaVuSans-4c" d="M 603 3500 
L 1178 3500 
L 1178 0 
L 603 0 
L 603 3500 
z
M 603 4863 
L 1178 4863 
L 1178 4134 
L 603 4134 
L 603 4863 
z
" transform="scale(0.015625)"/>
       <path id="DejaVuSans-51" d="M 3513 2113 
L 3513 0 
L 2938 0 
L 2938 2094 
Q 2938 2591 2744 2837 
Q 2550 3084 2163 3084 
Q 1697 3084 1428 2787 
Q 1159 2491 1159 1978 
L 1159 0 
L 581 0 
L 581 3500 
L 1159 3500 
L 1159 2956 
Q 1366 3272 1645 3428 
Q 1925 3584 2291 3584 
Q 2894 3584 3203 3211 
Q 3513 2838 3513 2113 
z
" transform="scale(0.015625)"/>
       <path id="DejaVuSans-52" d="M 1959 3097 
Q 1497 3097 1228 2736 
Q 959 2375 959 1747 
Q 959 1119 1226 758 
Q 1494 397 1959 397 
Q 2419 397 2687 759 
Q 2956 1122 2956 1747 
Q 2956 2369 2687 2733 
Q 2419 3097 1959 3097 
z
M 1959 3584 
Q 2709 3584 3137 3096 
Q 3566 2609 3566 1747 
Q 3566 888 3137 398 
Q 2709 -91 1959 -91 
Q 1206 -91 779 398 
Q 353 888 353 1747 
Q 353 2609 779 3096 
Q 1206 3584 1959 3584 
z
" transform="scale(0.015625)"/>
       <path id="DejaVuSans-5a" d="M 269 3500 
L 844 3500 
L 1563 769 
L 2278 3500 
L 2956 3500 
L 3675 769 
L 4391 3500 
L 4966 3500 
L 4050 0 
L 3372 0 
L 2619 2869 
L 1863 0 
L 1184 0 
L 269 3500 
z
" transform="scale(0.015625)"/>
       <path id="DejaVuSans-44" d="M 2194 1759 
Q 1497 1759 1228 1600 
Q 959 1441 959 1056 
Q 959 750 1161 570 
Q 1363 391 1709 391 
Q 2188 391 2477 730 
Q 2766 1069 2766 1631 
L 2766 1759 
L 2194 1759 
z
M 3341 1997 
L 3341 0 
L 2766 0 
L 2766 531 
Q 2569 213 2275 61 
Q 1981 -91 1556 -91 
Q 1019 -91 701 211 
Q 384 513 384 1019 
Q 384 1609 779 1909 
Q 1175 2209 1959 2209 
L 2766 2209 
L 2766 2266 
Q 2766 2663 2505 2880 
Q 2244 3097 1772 3097 
Q 1472 3097 1187 3025 
Q 903 2953 641 2809 
L 641 3341 
Q 956 3463 1253 3523 
Q 1550 3584 1831 3584 
Q 2591 3584 2966 3190 
Q 3341 2797 3341 1997 
z
" transform="scale(0.015625)"/>
       <path id="DejaVuSans-55" d="M 2631 2963 
Q 2534 3019 2420 3045 
Q 2306 3072 2169 3072 
Q 1681 3072 1420 2755 
Q 1159 2438 1159 1844 
L 1159 0 
L 581 0 
L 581 3500 
L 1159 3500 
L 1159 2956 
Q 1341 3275 1631 3429 
Q 1922 3584 2338 3584 
Q 2397 3584 2469 3576 
Q 2541 3569 2628 3553 
L 2631 2963 
z
" transform="scale(0.015625)"/>
       <path id="DejaVuSans-b" d="M 1984 4856 
Q 1566 4138 1362 3434 
Q 1159 2731 1159 2009 
Q 1159 1288 1364 580 
Q 1569 -128 1984 -844 
L 1484 -844 
Q 1016 -109 783 600 
Q 550 1309 550 2009 
Q 550 2706 781 3412 
Q 1013 4119 1484 4856 
L 1984 4856 
z
" transform="scale(0.015625)"/>
       <path id="DejaVuSans-Oblique-350" d="M -84 -1331 
L 856 3500 
L 1434 3500 
L 1009 1322 
Q 997 1256 987 1175 
Q 978 1094 978 1013 
Q 978 722 1161 565 
Q 1344 409 1684 409 
Q 2147 409 2431 671 
Q 2716 934 2816 1459 
L 3213 3500 
L 3788 3500 
L 3266 809 
Q 3253 750 3248 706 
Q 3244 663 3244 628 
Q 3244 531 3283 486 
Q 3322 441 3406 441 
Q 3438 441 3492 456 
Q 3547 472 3647 513 
L 3559 50 
Q 3422 -19 3297 -55 
Q 3172 -91 3053 -91 
Q 2847 -91 2730 40 
Q 2613 172 2613 403 
Q 2438 153 2195 31 
Q 1953 -91 1625 -91 
Q 1334 -91 1117 43 
Q 900 178 831 397 
L 494 -1331 
L -84 -1331 
z
" transform="scale(0.015625)"/>
       <path id="DejaVuSans-50" d="M 3328 2828 
Q 3544 3216 3844 3400 
Q 4144 3584 4550 3584 
Q 5097 3584 5394 3201 
Q 5691 2819 5691 2113 
L 5691 0 
L 5113 0 
L 5113 2094 
Q 5113 2597 4934 2840 
Q 4756 3084 4391 3084 
Q 3944 3084 3684 2787 
Q 3425 2491 3425 1978 
L 3425 0 
L 2847 0 
L 2847 2094 
Q 2847 2600 2669 2842 
Q 2491 3084 2119 3084 
Q 1678 3084 1418 2786 
Q 1159 2488 1159 1978 
L 1159 0 
L 581 0 
L 581 3500 
L 1159 3500 
L 1159 2956 
Q 1356 3278 1631 3431 
Q 1906 3584 2284 3584 
Q 2666 3584 2933 3390 
Q 3200 3197 3328 2828 
z
" transform="scale(0.015625)"/>
       <path id="DejaVuSans-c" d="M 513 4856 
L 1013 4856 
Q 1481 4119 1714 3412 
Q 1947 2706 1947 2009 
Q 1947 1309 1714 600 
Q 1481 -109 1013 -844 
L 513 -844 
Q 928 -128 1133 580 
Q 1338 1288 1338 2009 
Q 1338 2731 1133 3434 
Q 928 4138 513 4856 
z
" transform="scale(0.015625)"/>
      </defs>
      <use xlink:href="#DejaVuSans-47" transform="translate(0 0.015625)"/>
      <use xlink:href="#DejaVuSans-48" transform="translate(63.476562 0.015625)"/>
      <use xlink:href="#DejaVuSans-53" transform="translate(125 0.015625)"/>
      <use xlink:href="#DejaVuSans-57" transform="translate(188.476562 0.015625)"/>
      <use xlink:href="#DejaVuSans-4b" transform="translate(227.685547 0.015625)"/>
      <use xlink:href="#DejaVuSans-3" transform="translate(291.064453 0.015625)"/>
      <use xlink:href="#DejaVuSans-4c" transform="translate(322.851562 0.015625)"/>
      <use xlink:href="#DejaVuSans-51" transform="translate(350.634766 0.015625)"/>
      <use xlink:href="#DejaVuSans-57" transform="translate(414.013672 0.015625)"/>
      <use xlink:href="#DejaVuSans-52" transform="translate(453.222656 0.015625)"/>
      <use xlink:href="#DejaVuSans-3" transform="translate(514.404297 0.015625)"/>
      <use xlink:href="#DejaVuSans-5a" transform="translate(546.191406 0.015625)"/>
      <use xlink:href="#DejaVuSans-44" transform="translate(627.978516 0.015625)"/>
      <use xlink:href="#DejaVuSans-57" transform="translate(689.257812 0.015625)"/>
      <use xlink:href="#DejaVuSans-48" transform="translate(728.466797 0.015625)"/>
      <use xlink:href="#DejaVuSans-55" transform="translate(789.990234 0.015625)"/>
      <use xlink:href="#DejaVuSans-3" transform="translate(831.103516 0.015625)"/>
      <use xlink:href="#DejaVuSans-b" transform="translate(862.890625 0.015625)"/>
      <use xlink:href="#DejaVuSans-Oblique-350" transform="translate(901.904297 0.015625)"/>
      <use xlink:href="#DejaVuSans-50" transform="translate(965.527344 0.015625)"/>
      <use xlink:href="#DejaVuSans-c" transform="translate(1062.939453 0.015625)"/>
     </g>
    </g>
   </g>
   <g id="matplotlib.axis_2">
    <g id="ytick_1">
     <g id="line2d_8">
      <defs>
       <path id="mbef7523fc5" d="M 0 0 
L -3.5 0 
" style="stroke: #000000; stroke-width: 0.8"/>
      </defs>
      <g>
       <use xlink:href="#mbef7523fc5" x="46.694297" y="239.445938" style="stroke: #000000; stroke-width: 0.8"/>
      </g>
     </g>
     <g id="text_9">
      <!-- 0.0 -->
      <g transform="translate(22.200859 243.624648) scale(0.11 -0.11)">
       <defs>
        <path id="DejaVuSans-11" d="M 684 794 
L 1344 794 
L 1344 0 
L 684 0 
L 684 794 
z
" transform="scale(0.015625)"/>
       </defs>
       <use xlink:href="#DejaVuSans-13"/>
       <use xlink:href="#DejaVuSans-11" transform="translate(63.625 0)"/>
       <use xlink:href="#DejaVuSans-13" transform="translate(95.40625 0)"/>
      </g>
     </g>
    </g>
    <g id="ytick_2">
     <g id="line2d_9">
      <g>
       <use xlink:href="#mbef7523fc5" x="46.694297" y="198.261938" style="stroke: #000000; stroke-width: 0.8"/>
      </g>
     </g>
     <g id="text_10">
      <!-- 0.2 -->
      <g transform="translate(22.200859 202.440648) scale(0.11 -0.11)">
       <use xlink:href="#DejaVuSans-13"/>
       <use xlink:href="#DejaVuSans-11" transform="translate(63.625 0)"/>
       <use xlink:href="#DejaVuSans-15" transform="translate(95.40625 0)"/>
      </g>
     </g>
    </g>
    <g id="ytick_3">
     <g id="line2d_10">
      <g>
       <use xlink:href="#mbef7523fc5" x="46.694297" y="157.077938" style="stroke: #000000; stroke-width: 0.8"/>
      </g>
     </g>
     <g id="text_11">
      <!-- 0.4 -->
      <g transform="translate(22.200859 161.256648) scale(0.11 -0.11)">
       <use xlink:href="#DejaVuSans-13"/>
       <use xlink:href="#DejaVuSans-11" transform="translate(63.625 0)"/>
       <use xlink:href="#DejaVuSans-17" transform="translate(95.40625 0)"/>
      </g>
     </g>
    </g>
    <g id="ytick_4">
     <g id="line2d_11">
      <g>
       <use xlink:href="#mbef7523fc5" x="46.694297" y="115.893938" style="stroke: #000000; stroke-width: 0.8"/>
      </g>
     </g>
     <g id="text_12">
      <!-- 0.6 -->
      <g transform="translate(22.200859 120.072648) scale(0.11 -0.11)">
       <use xlink:href="#DejaVuSans-13"/>
       <use xlink:href="#DejaVuSans-11" transform="translate(63.625 0)"/>
       <use xlink:href="#DejaVuSans-19" transform="translate(95.40625 0)"/>
      </g>
     </g>
    </g>
    <g id="ytick_5">
     <g id="line2d_12">
      <g>
       <use xlink:href="#mbef7523fc5" x="46.694297" y="74.709938" style="stroke: #000000; stroke-width: 0.8"/>
      </g>
     </g>
     <g id="text_13">
      <!-- 0.8 -->
      <g transform="translate(22.200859 78.888648) scale(0.11 -0.11)">
       <defs>
        <path id="DejaVuSans-1b" d="M 2034 2216 
Q 1584 2216 1326 1975 
Q 1069 1734 1069 1313 
Q 1069 891 1326 650 
Q 1584 409 2034 409 
Q 2484 409 2743 651 
Q 3003 894 3003 1313 
Q 3003 1734 2745 1975 
Q 2488 2216 2034 2216 
z
M 1403 2484 
Q 997 2584 770 2862 
Q 544 3141 544 3541 
Q 544 4100 942 4425 
Q 1341 4750 2034 4750 
Q 2731 4750 3128 4425 
Q 3525 4100 3525 3541 
Q 3525 3141 3298 2862 
Q 3072 2584 2669 2484 
Q 3125 2378 3379 2068 
Q 3634 1759 3634 1313 
Q 3634 634 3220 271 
Q 2806 -91 2034 -91 
Q 1263 -91 848 271 
Q 434 634 434 1313 
Q 434 1759 690 2068 
Q 947 2378 1403 2484 
z
M 1172 3481 
Q 1172 3119 1398 2916 
Q 1625 2713 2034 2713 
Q 2441 2713 2670 2916 
Q 2900 3119 2900 3481 
Q 2900 3844 2670 4047 
Q 2441 4250 2034 4250 
Q 1625 4250 1398 4047 
Q 1172 3844 1172 3481 
z
" transform="scale(0.015625)"/>
       </defs>
       <use xlink:href="#DejaVuSans-13"/>
       <use xlink:href="#DejaVuSans-11" transform="translate(63.625 0)"/>
       <use xlink:href="#DejaVuSans-1b" transform="translate(95.40625 0)"/>
      </g>
     </g>
    </g>
    <g id="ytick_6">
     <g id="line2d_13">
      <g>
       <use xlink:href="#mbef7523fc5" x="46.694297" y="33.525938" style="stroke: #000000; stroke-width: 0.8"/>
      </g>
     </g>
     <g id="text_14">
      <!-- 1.0 -->
      <g transform="translate(22.200859 37.704648) scale(0.11 -0.11)">
       <use xlink:href="#DejaVuSans-14"/>
       <use xlink:href="#DejaVuSans-11" transform="translate(63.625 0)"/>
       <use xlink:href="#DejaVuSans-13" transform="translate(95.40625 0)"/>
      </g>
     </g>
    </g>
    <g id="text_15">
     <!-- fraction still travelling -->
     <g transform="translate(15.558281 191.554344) rotate(-90) scale(0.11 -0.11)">
      <defs>
       <path id="DejaVuSans-49" d="M 2375 4863 
L 2375 4384 
L 1825 4384 
Q 1516 4384 1395 4259 
Q 1275 4134 1275 3809 
L 1275 3500 
L 2222 3500 
L 2222 3053 
L 1275 3053 
L 1275 0 
L 697 0 
L 697 3053 
L 147 3053 
L 147 3500 
L 697 3500 
L 697 3744 
Q 697 4328 969 4595 
Q 1241 4863 1831 4863 
L 2375 4863 
z
" transform="scale(0.015625)"/>
       <path id="DejaVuSans-46" d="M 3122 3366 
L 3122 2828 
Q 2878 2963 2633 3030 
Q 2388 3097 2138 3097 
Q 1578 3097 1268 2742 
Q 959 2388 959 1747 
Q 959 1106 1268 751 
Q 1578 397 2138 397 
Q 2388 397 2633 464 
Q 2878 531 3122 666 
L 3122 134 
Q 2881 22 2623 -34 
Q 2366 -91 2075 -91 
Q 1284 -91 818 406 
Q 353 903 353 1747 
Q 353 2603 823 3093 
Q 1294 3584 2113 3584 
Q 2378 3584 2631 3529 
Q 2884 3475 3122 3366 
z
" transform="scale(0.015625)"/>
       <path id="DejaVuSans-56" d="M 2834 3397 
L 2834 2853 
Q 2591 2978 2328 3040 
Q 2066 3103 1784 3103 
Q 1356 3103 1142 2972 
Q 928 2841 928 2578 
Q 928 2378 1081 2264 
Q 1234 2150 1697 2047 
L 1894 2003 
Q 2506 1872 2764 1633 
Q 3022 1394 3022 966 
Q 3022 478 2636 193 
Q 2250 -91 1575 -91 
Q 1294 -91 989 -36 
Q 684 19 347 128 
L 347 722 
Q 666 556 975 473 
Q 1284 391 1588 391 
Q 1994 391 2212 530 
Q 2431 669 2431 922 
Q 2431 1156 2273 1281 
Q 2116 1406 1581 1522 
L 1381 1569 
Q 847 1681 609 1914 
Q 372 2147 372 2553 
Q 372 3047 722 3315 
Q 1072 3584 1716 3584 
Q 2034 3584 2315 3537 
Q 2597 3491 2834 3397 
z
" transform="scale(0.015625)"/>
       <path id="DejaVuSans-4f" d="M 603 4863 
L 1178 4863 
L 1178 0 
L 603 0 
L 603 4863 
z
" transform="scale(0.015625)"/>
       <path id="DejaVuSans-59" d="M 191 3500 
L 800 3500 
L 1894 563 
L 2988 3500 
L 3597 3500 
L 2284 0 
L 1503 0 
L 191 3500 
z
" transform="scale(0.015625)"/>
       <path id="DejaVuSans-4a" d="M 2906 1791 
Q 2906 2416 2648 2759 
Q 2391 3103 1925 3103 
Q 1463 3103 1205 2759 
Q 947 2416 947 1791 
Q 947 1169 1205 825 
Q 1463 481 1925 481 
Q 2391 481 2648 825 
Q 2906 1169 2906 1791 
z
M 3481 434 
Q 3481 -459 3084 -895 
Q 2688 -1331 1869 -1331 
Q 1566 -1331 1297 -1286 
Q 1028 -1241 775 -1147 
L 775 -588 
Q 1028 -725 1275 -790 
Q 1522 -856 1778 -856 
Q 2344 -856 2625 -561 
Q 2906 -266 2906 331 
L 2906 616 
Q 2728 306 2450 153 
Q 2172 0 1784 0 
Q 1141 0 747 490 
Q 353 981 353 1791 
Q 353 2603 747 3093 
Q 1141 3584 1784 3584 
Q 2172 3584 2450 3431 
Q 2728 3278 2906 2969 
L 2906 3500 
L 3481 3500 
L 3481 434 
z
" transform="scale(0.015625)"/>
      </defs>
      <use xlink:href="#DejaVuSans-49"/>
      <use xlink:href="#DejaVuSans-55" transform="translate(35.203125 0)"/>
      <use xlink:href="#DejaVuSans-44" transform="translate(76.3125 0)"/>
      <use xlink:href="#DejaVuSans-46" transform="translate(137.59375 0)"/>
      <use xlink:href="#DejaVuSans-57" transform="translate(192.578125 0)"/>
      <use xlink:href="#DejaVuSans-4c" transform="translate(231.78125 0)"/>
      <use xlink:href="#DejaVuSans-52" transform="translate(259.5625 0)"/>
      <use xlink:href="#DejaVuSans-51" transform="translate(320.75 0)"/>
      <use xlink:href="#DejaVuSans-3" transform="translate(384.125 0)"/>
      <use xlink:href="#DejaVuSans-56" transform="translate(415.90625 0)"/>
      <use xlink:href="#DejaVuSans-57" transform="translate(468 0)"/>
      <use xlink:href="#DejaVuSans-4c" transform="translate(507.203125 0)"/>
      <use xlink:href="#DejaVuSans-4f" transform="translate(534.984375 0)"/>
      <use xlink:href="#DejaVuSans-4f" transform="translate(562.765625 0)"/>
      <use xlink:href="#DejaVuSans-3" transform="translate(590.546875 0)"/>
      <use xlink:href="#DejaVuSans-57" transform="translate(622.328125 0)"/>
      <use xlink:href="#DejaVuSans-55" transform="translate(661.53125 0)"/>
      <use xlink:href="#DejaVuSans-44" transform="translate(702.640625 0)"/>
      <use xlink:href="#DejaVuSans-59" transform="translate(763.921875 0)"/>
      <use xlink:href="#DejaVuSans-48" transform="translate(823.109375 0)"/>
      <use xlink:href="#DejaVuSans-4f" transform="translate(884.640625 0)"/>
      <use xlink:href="#DejaVuSans-4f" transform="translate(912.421875 0)"/>
      <use xlink:href="#DejaVuSans-4c" transform="translate(940.203125 0)"/>
      <use xlink:href="#DejaVuSans-51" transform="translate(967.984375 0)"/>
      <use xlink:href="#DejaVuSans-4a" transform="translate(1031.359375 0)"/>
     </g>
    </g>
   </g>
   <g id="line2d_14">
    <path d="M 46.694297 33.525938 
L 246.063921 33.624144 
L 250.678959 33.834454 
L 253.447981 34.138547 
L 255.293996 34.493024 
L 257.140011 35.05109 
L 258.986026 35.92742 
L 259.909034 36.536816 
L 260.832041 37.297985 
L 261.755049 38.247104 
L 262.678056 39.428067 
L 263.601064 40.893622 
L 264.524071 42.706385 
L 265.447079 44.939525 
L 266.370086 47.676805 
L 267.293094 51.011541 
L 268.216101 55.04395 
L 269.139109 59.876246 
L 270.062116 65.604947 
L 270.985124 72.310102 
L 271.908131 80.041756 
L 273.754146 98.54565 
L 275.600162 120.398822 
L 279.292192 166.550313 
L 281.138207 186.452602 
L 282.061214 194.960453 
L 282.984222 202.432994 
L 283.907229 208.88792 
L 284.830237 214.384159 
L 285.753244 219.007051 
L 286.676252 222.855429 
L 287.599259 226.031611 
L 288.522267 228.63445 
L 289.445274 230.75505 
L 290.368282 232.47457 
L 291.291289 233.863507 
L 292.214297 234.981929 
L 293.137304 235.880267 
L 294.060312 236.600377 
L 295.906327 237.637316 
L 297.752342 238.298524 
L 299.598357 238.718864 
L 302.36738 239.079674 
L 306.05941 239.299318 
L 312.520462 239.416437 
L 333.749635 239.445786 
L 414.974297 239.445937 
L 414.974297 239.445937 
" clip-path="url(#pe18273e177)" style="fill: none; stroke: #b5651d; stroke-width: 2.4; stroke-linecap: square"/>
   </g>
   <g id="line2d_15">
    <path d="M 46.694297 33.525938 
L 55.924372 41.620009 
L 65.154447 49.395929 
L 74.384522 56.866201 
L 83.614598 64.04284 
L 92.844673 70.937387 
L 102.074748 77.560932 
L 111.304823 83.924126 
L 120.534898 90.037202 
L 130.687981 96.484423 
L 140.841064 102.653436 
L 150.994146 108.556247 
L 161.147229 114.204342 
L 171.300312 119.608713 
L 182.376402 125.23877 
L 193.452492 130.604322 
L 204.528583 135.717795 
L 215.604673 140.591034 
L 226.680763 145.235323 
L 238.679861 150.020737 
L 250.678959 154.563076 
L 262.678056 158.874688 
L 275.600162 163.27336 
L 288.522267 167.431892 
L 301.444372 171.363395 
L 315.289485 175.337855 
L 329.134598 179.080297 
L 343.902718 182.831747 
L 358.670838 186.350061 
L 374.361966 189.849012 
L 390.053094 193.117387 
L 406.667229 196.343568 
L 414.974297 197.871407 
L 414.974297 197.871407 
" clip-path="url(#pe18273e177)" style="fill: none; stroke-dasharray: 7.4,3.2; stroke-dashoffset: 0; stroke: #5a7d9a; stroke-width: 2"/>
   </g>
   <g id="line2d_16">
    <path d="M 276.869297 239.445938 
L 276.869297 23.229938 
" clip-path="url(#pe18273e177)" style="fill: none; stroke-dasharray: 1.3,2.145; stroke-dashoffset: 0; stroke: #3b3b6d; stroke-width: 1.3"/>
   </g>
   <g id="patch_3">
    <path d="M 46.694297 239.445938 
L 46.694297 23.229938 
" style="fill: none; stroke: #000000; stroke-width: 0.8; stroke-linejoin: miter; stroke-linecap: square"/>
   </g>
   <g id="patch_4">
    <path d="M 414.974297 239.445938 
L 414.974297 23.229938 
" style="fill: none; stroke: #000000; stroke-width: 0.8; stroke-linejoin: miter; stroke-linecap: square"/>
   </g>
   <g id="patch_5">
    <path d="M 46.694297 239.445938 
L 414.974297 239.445938 
" style="fill: none; stroke: #000000; stroke-width: 0.8; stroke-linejoin: miter; stroke-linecap: square"/>
   </g>
   <g id="patch_6">
    <path d="M 46.694297 23.229938 
L 414.974297 23.229938 
" style="fill: none; stroke: #000000; stroke-width: 0.8; stroke-linejoin: miter; stroke-linecap: square"/>
   </g>
   <g id="patch_7">
    <path d="M 196.789232 96.243562 
Q 235.936037 115.915879 274.083855 135.086178 
" style="fill: none; stroke: #3b3b6d; stroke-linecap: round"/>
    <path d="M 271.675408 131.86137 
L 274.083855 135.086178 
L 270.05894 135.07805 
" style="fill: none; stroke: #3b3b6d; stroke-linecap: round"/>
   </g>
   <g id="text_16">
    <!-- range $R$ = 38 $\mu$m -->
    <g style="fill: #3b3b6d" transform="translate(143.367797 91.183538) scale(0.09 -0.09)">
     <defs>
      <path id="DejaVuSans-Oblique-35" d="M 1613 4147 
L 1294 2491 
L 2106 2491 
Q 2584 2491 2879 2755 
Q 3175 3019 3175 3444 
Q 3175 3784 2976 3965 
Q 2778 4147 2406 4147 
L 1613 4147 
z
M 2772 2241 
Q 2972 2194 3105 2009 
Q 3238 1825 3413 1275 
L 3809 0 
L 3144 0 
L 2778 1197 
Q 2638 1659 2453 1815 
Q 2269 1972 1888 1972 
L 1191 1972 
L 806 0 
L 172 0 
L 1081 4666 
L 2503 4666 
Q 3150 4666 3495 4373 
Q 3841 4081 3841 3531 
Q 3841 3044 3547 2687 
Q 3253 2331 2772 2241 
z
" transform="scale(0.015625)"/>
      <path id="DejaVuSans-20" d="M 678 2906 
L 4684 2906 
L 4684 2381 
L 678 2381 
L 678 2906 
z
M 678 1631 
L 4684 1631 
L 4684 1100 
L 678 1100 
L 678 1631 
z
" transform="scale(0.015625)"/>
     </defs>
     <use xlink:href="#DejaVuSans-55" transform="translate(0 0.78125)"/>
     <use xlink:href="#DejaVuSans-44" transform="translate(41.113281 0.78125)"/>
     <use xlink:href="#DejaVuSans-51" transform="translate(102.392578 0.78125)"/>
     <use xlink:href="#DejaVuSans-4a" transform="translate(165.771484 0.78125)"/>
     <use xlink:href="#DejaVuSans-48" transform="translate(229.248047 0.78125)"/>
     <use xlink:href="#DejaVuSans-3" transform="translate(290.771484 0.78125)"/>
     <use xlink:href="#DejaVuSans-Oblique-35" transform="translate(322.558594 0.78125)"/>
     <use xlink:href="#DejaVuSans-3" transform="translate(392.041016 0.78125)"/>
     <use xlink:href="#DejaVuSans-20" transform="translate(423.828125 0.78125)"/>
     <use xlink:href="#DejaVuSans-3" transform="translate(507.617188 0.78125)"/>
     <use xlink:href="#DejaVuSans-16" transform="translate(539.404297 0.78125)"/>
     <use xlink:href="#DejaVuSans-1b" transform="translate(603.027344 0.78125)"/>
     <use xlink:href="#DejaVuSans-3" transform="translate(666.650391 0.78125)"/>
     <use xlink:href="#DejaVuSans-Oblique-350" transform="translate(698.4375 0.78125)"/>
     <use xlink:href="#DejaVuSans-50" transform="translate(762.060547 0.78125)"/>
    </g>
   </g>
   <g id="text_17">
    <!-- The defining difference: a range, not an exponential -->
    <g transform="translate(58.547484 17.229938) scale(0.132 -0.132)">
     <defs>
      <path id="DejaVuSans-37" d="M -19 4666 
L 3928 4666 
L 3928 4134 
L 2272 4134 
L 2272 0 
L 1638 0 
L 1638 4134 
L -19 4134 
L -19 4666 
z
" transform="scale(0.015625)"/>
      <path id="DejaVuSans-13af" d="M 3431 3500 
L 3431 0 
L 2853 0 
L 2853 3053 
L 1275 3053 
L 1275 0 
L 697 0 
L 697 3053 
L 147 3053 
L 147 3500 
L 697 3500 
L 697 3744 
Q 697 4316 967 4589 
Q 1238 4863 1797 4863 
L 2375 4863 
L 2375 4384 
L 1825 4384 
Q 1516 4384 1395 4259 
Q 1275 4134 1275 3809 
L 1275 3500 
L 3431 3500 
z
M 2853 4856 
L 3431 4856 
L 3431 4128 
L 2853 4128 
L 2853 4856 
z
" transform="scale(0.015625)"/>
      <path id="DejaVuSans-13ae" d="M 4531 4863 
L 4531 4384 
L 3981 4384 
Q 3672 4384 3551 4259 
Q 3431 4134 3431 3809 
L 3431 3500 
L 4378 3500 
L 4378 3053 
L 3431 3053 
L 3431 0 
L 2853 0 
L 2853 3053 
L 1275 3053 
L 1275 0 
L 697 0 
L 697 3053 
L 147 3053 
L 147 3500 
L 697 3500 
L 697 3744 
Q 697 4328 969 4595 
Q 1241 4863 1831 4863 
L 2375 4863 
L 2375 4384 
L 1825 4384 
Q 1516 4384 1394 4259 
Q 1275 4134 1275 3809 
L 1275 3500 
L 2853 3500 
L 2853 3744 
Q 2853 4328 3125 4595 
Q 3397 4863 3988 4863 
L 4531 4863 
z
" transform="scale(0.015625)"/>
      <path id="DejaVuSans-1d" d="M 750 794 
L 1409 794 
L 1409 0 
L 750 0 
L 750 794 
z
M 750 3309 
L 1409 3309 
L 1409 2516 
L 750 2516 
L 750 3309 
z
" transform="scale(0.015625)"/>
      <path id="DejaVuSans-f" d="M 750 794 
L 1409 794 
L 1409 256 
L 897 -744 
L 494 -744 
L 750 256 
L 750 794 
z
" transform="scale(0.015625)"/>
      <path id="DejaVuSans-5b" d="M 3513 3500 
L 2247 1797 
L 3578 0 
L 2900 0 
L 1881 1375 
L 863 0 
L 184 0 
L 1544 1831 
L 300 3500 
L 978 3500 
L 1906 2253 
L 2834 3500 
L 3513 3500 
z
" transform="scale(0.015625)"/>
     </defs>
     <use xlink:href="#DejaVuSans-37"/>
     <use xlink:href="#DejaVuSans-4b" transform="translate(61.078125 0)"/>
     <use xlink:href="#DejaVuSans-48" transform="translate(124.453125 0)"/>
     <use xlink:href="#DejaVuSans-3" transform="translate(185.984375 0)"/>
     <use xlink:href="#DejaVuSans-47" transform="translate(217.765625 0)"/>
     <use xlink:href="#DejaVuSans-48" transform="translate(281.25 0)"/>
     <use xlink:href="#DejaVuSans-13af" transform="translate(342.78125 0)"/>
     <use xlink:href="#DejaVuSans-51" transform="translate(405.765625 0)"/>
     <use xlink:href="#DejaVuSans-4c" transform="translate(469.140625 0)"/>
     <use xlink:href="#DejaVuSans-51" transform="translate(496.921875 0)"/>
     <use xlink:href="#DejaVuSans-4a" transform="translate(560.296875 0)"/>
     <use xlink:href="#DejaVuSans-3" transform="translate(623.78125 0)"/>
     <use xlink:href="#DejaVuSans-47" transform="translate(655.5625 0)"/>
     <use xlink:href="#DejaVuSans-4c" transform="translate(719.046875 0)"/>
     <use xlink:href="#DejaVuSans-13ae" transform="translate(746.828125 0)"/>
     <use xlink:href="#DejaVuSans-48" transform="translate(815.71875 0)"/>
     <use xlink:href="#DejaVuSans-55" transform="translate(877.25 0)"/>
     <use xlink:href="#DejaVuSans-48" transform="translate(916.15625 0)"/>
     <use xlink:href="#DejaVuSans-51" transform="translate(977.6875 0)"/>
     <use xlink:href="#DejaVuSans-46" transform="translate(1041.0625 0)"/>
     <use xlink:href="#DejaVuSans-48" transform="translate(1096.046875 0)"/>
     <use xlink:href="#DejaVuSans-1d" transform="translate(1157.578125 0)"/>
     <use xlink:href="#DejaVuSans-3" transform="translate(1191.265625 0)"/>
     <use xlink:href="#DejaVuSans-44" transform="translate(1223.046875 0)"/>
     <use xlink:href="#DejaVuSans-3" transform="translate(1284.328125 0)"/>
     <use xlink:href="#DejaVuSans-55" transform="translate(1316.109375 0)"/>
     <use xlink:href="#DejaVuSans-44" transform="translate(1357.21875 0)"/>
     <use xlink:href="#DejaVuSans-51" transform="translate(1418.5 0)"/>
     <use xlink:href="#DejaVuSans-4a" transform="translate(1481.875 0)"/>
     <use xlink:href="#DejaVuSans-48" transform="translate(1545.359375 0)"/>
     <use xlink:href="#DejaVuSans-f" transform="translate(1606.890625 0)"/>
     <use xlink:href="#DejaVuSans-3" transform="translate(1638.671875 0)"/>
     <use xlink:href="#DejaVuSans-51" transform="translate(1670.453125 0)"/>
     <use xlink:href="#DejaVuSans-52" transform="translate(1733.828125 0)"/>
     <use xlink:href="#DejaVuSans-57" transform="translate(1795.015625 0)"/>
     <use xlink:href="#DejaVuSans-3" transform="translate(1834.21875 0)"/>
     <use xlink:href="#DejaVuSans-44" transform="translate(1866 0)"/>
     <use xlink:href="#DejaVuSans-51" transform="translate(1927.28125 0)"/>
     <use xlink:href="#DejaVuSans-3" transform="translate(1990.65625 0)"/>
     <use xlink:href="#DejaVuSans-48" transform="translate(2022.4375 0)"/>
     <use xlink:href="#DejaVuSans-5b" transform="translate(2082.21875 0)"/>
     <use xlink:href="#DejaVuSans-53" transform="translate(2141.40625 0)"/>
     <use xlink:href="#DejaVuSans-52" transform="translate(2204.890625 0)"/>
     <use xlink:href="#DejaVuSans-51" transform="translate(2266.078125 0)"/>
     <use xlink:href="#DejaVuSans-48" transform="translate(2329.453125 0)"/>
     <use xlink:href="#DejaVuSans-51" transform="translate(2390.984375 0)"/>
     <use xlink:href="#DejaVuSans-57" transform="translate(2454.359375 0)"/>
     <use xlink:href="#DejaVuSans-4c" transform="translate(2493.5625 0)"/>
     <use xlink:href="#DejaVuSans-44" transform="translate(2521.34375 0)"/>
     <use xlink:href="#DejaVuSans-4f" transform="translate(2582.625 0)"/>
    </g>
   </g>
   <g id="legend_1">
    <g id="patch_8">
     <path d="M 52.644297 235.195938 
L 259.789297 235.195938 
Q 261.489297 235.195938 261.489297 233.495938 
L 261.489297 208.503281 
Q 261.489297 206.803281 259.789297 206.803281 
L 52.644297 206.803281 
Q 50.944297 206.803281 50.944297 208.503281 
L 50.944297 233.495938 
Q 50.944297 235.195938 52.644297 235.195938 
z
" style="fill: #ffffff; opacity: 0.8; stroke: #cccccc; stroke-linejoin: miter"/>
    </g>
    <g id="line2d_17">
     <path d="M 54.344297 213.686953 
L 62.844297 213.686953 
L 71.344297 213.686953 
" style="fill: none; stroke: #b5651d; stroke-width: 2.4; stroke-linecap: square"/>
    </g>
    <g id="text_18">
     <!-- 5 MeV alphas (a definite range) -->
     <g transform="translate(78.144297 216.661953) scale(0.085 -0.085)">
      <defs>
       <path id="DejaVuSans-30" d="M 628 4666 
L 1569 4666 
L 2759 1491 
L 3956 4666 
L 4897 4666 
L 4897 0 
L 4281 0 
L 4281 4097 
L 3078 897 
L 2444 897 
L 1241 4097 
L 1241 0 
L 628 0 
L 628 4666 
z
" transform="scale(0.015625)"/>
       <path id="DejaVuSans-39" d="M 1831 0 
L 50 4666 
L 709 4666 
L 2188 738 
L 3669 4666 
L 4325 4666 
L 2547 0 
L 1831 0 
z
" transform="scale(0.015625)"/>
      </defs>
      <use xlink:href="#DejaVuSans-18"/>
      <use xlink:href="#DejaVuSans-3" transform="translate(63.625 0)"/>
      <use xlink:href="#DejaVuSans-30" transform="translate(95.40625 0)"/>
      <use xlink:href="#DejaVuSans-48" transform="translate(181.6875 0)"/>
      <use xlink:href="#DejaVuSans-39" transform="translate(243.21875 0)"/>
      <use xlink:href="#DejaVuSans-3" transform="translate(311.625 0)"/>
      <use xlink:href="#DejaVuSans-44" transform="translate(343.40625 0)"/>
      <use xlink:href="#DejaVuSans-4f" transform="translate(404.6875 0)"/>
      <use xlink:href="#DejaVuSans-53" transform="translate(432.46875 0)"/>
      <use xlink:href="#DejaVuSans-4b" transform="translate(495.953125 0)"/>
      <use xlink:href="#DejaVuSans-44" transform="translate(559.328125 0)"/>
      <use xlink:href="#DejaVuSans-56" transform="translate(620.609375 0)"/>
      <use xlink:href="#DejaVuSans-3" transform="translate(672.703125 0)"/>
      <use xlink:href="#DejaVuSans-b" transform="translate(704.484375 0)"/>
      <use xlink:href="#DejaVuSans-44" transform="translate(743.5 0)"/>
      <use xlink:href="#DejaVuSans-3" transform="translate(804.78125 0)"/>
      <use xlink:href="#DejaVuSans-47" transform="translate(836.5625 0)"/>
      <use xlink:href="#DejaVuSans-48" transform="translate(900.046875 0)"/>
      <use xlink:href="#DejaVuSans-13af" transform="translate(961.578125 0)"/>
      <use xlink:href="#DejaVuSans-51" transform="translate(1024.5625 0)"/>
      <use xlink:href="#DejaVuSans-4c" transform="translate(1087.9375 0)"/>
      <use xlink:href="#DejaVuSans-57" transform="translate(1115.71875 0)"/>
      <use xlink:href="#DejaVuSans-48" transform="translate(1154.921875 0)"/>
      <use xlink:href="#DejaVuSans-3" transform="translate(1216.453125 0)"/>
      <use xlink:href="#DejaVuSans-55" transform="translate(1248.234375 0)"/>
      <use xlink:href="#DejaVuSans-44" transform="translate(1289.34375 0)"/>
      <use xlink:href="#DejaVuSans-51" transform="translate(1350.625 0)"/>
      <use xlink:href="#DejaVuSans-4a" transform="translate(1414 0)"/>
      <use xlink:href="#DejaVuSans-48" transform="translate(1477.484375 0)"/>
      <use xlink:href="#DejaVuSans-c" transform="translate(1539.015625 0)"/>
     </g>
    </g>
    <g id="line2d_18">
     <path d="M 54.344297 226.778945 
L 62.844297 226.778945 
L 71.344297 226.778945 
" style="fill: none; stroke-dasharray: 7.4,3.2; stroke-dashoffset: 0; stroke: #5a7d9a; stroke-width: 2"/>
    </g>
    <g id="text_19">
     <!-- neutral particles ($e^{-\mu x}$, same mean depth) -->
     <g transform="translate(78.144297 229.753945) scale(0.085 -0.085)">
      <defs>
       <path id="DejaVuSans-58" d="M 544 1381 
L 544 3500 
L 1119 3500 
L 1119 1403 
Q 1119 906 1312 657 
Q 1506 409 1894 409 
Q 2359 409 2629 706 
Q 2900 1003 2900 1516 
L 2900 3500 
L 3475 3500 
L 3475 0 
L 2900 0 
L 2900 538 
Q 2691 219 2414 64 
Q 2138 -91 1772 -91 
Q 1169 -91 856 284 
Q 544 659 544 1381 
z
M 1991 3584 
L 1991 3584 
z
" transform="scale(0.015625)"/>
       <path id="DejaVuSans-Oblique-48" d="M 3078 2063 
Q 3088 2113 3092 2166 
Q 3097 2219 3097 2272 
Q 3097 2653 2873 2875 
Q 2650 3097 2266 3097 
Q 1838 3097 1509 2826 
Q 1181 2556 1013 2059 
L 3078 2063 
z
M 3578 1613 
L 903 1613 
Q 884 1494 878 1425 
Q 872 1356 872 1306 
Q 872 872 1139 634 
Q 1406 397 1894 397 
Q 2269 397 2603 481 
Q 2938 566 3225 728 
L 3116 159 
Q 2806 34 2476 -28 
Q 2147 -91 1806 -91 
Q 1078 -91 686 257 
Q 294 606 294 1247 
Q 294 1794 489 2264 
Q 684 2734 1063 3103 
Q 1306 3334 1642 3459 
Q 1978 3584 2356 3584 
Q 2950 3584 3301 3228 
Q 3653 2872 3653 2272 
Q 3653 2128 3634 1964 
Q 3616 1800 3578 1613 
z
" transform="scale(0.015625)"/>
       <path id="DejaVuSans-c9c" d="M 678 2272 
L 4684 2272 
L 4684 1741 
L 678 1741 
L 678 2272 
z
" transform="scale(0.015625)"/>
       <path id="DejaVuSans-Oblique-5b" d="M 3841 3500 
L 2234 1784 
L 3219 0 
L 2559 0 
L 1819 1388 
L 531 0 
L -166 0 
L 1556 1844 
L 641 3500 
L 1300 3500 
L 1972 2234 
L 3144 3500 
L 3841 3500 
z
" transform="scale(0.015625)"/>
      </defs>
      <use xlink:href="#DejaVuSans-51" transform="translate(0 0.41875)"/>
      <use xlink:href="#DejaVuSans-48" transform="translate(63.378906 0.41875)"/>
      <use xlink:href="#DejaVuSans-58" transform="translate(124.902344 0.41875)"/>
      <use xlink:href="#DejaVuSans-57" transform="translate(188.28125 0.41875)"/>
      <use xlink:href="#DejaVuSans-55" transform="translate(227.490234 0.41875)"/>
      <use xlink:href="#DejaVuSans-44" transform="translate(268.603516 0.41875)"/>
      <use xlink:href="#DejaVuSans-4f" transform="translate(329.882812 0.41875)"/>
      <use xlink:href="#DejaVuSans-3" transform="translate(357.666016 0.41875)"/>
      <use xlink:href="#DejaVuSans-53" transform="translate(389.453125 0.41875)"/>
      <use xlink:href="#DejaVuSans-44" transform="translate(452.929688 0.41875)"/>
      <use xlink:href="#DejaVuSans-55" transform="translate(514.208984 0.41875)"/>
      <use xlink:href="#DejaVuSans-57" transform="translate(555.322266 0.41875)"/>
      <use xlink:href="#DejaVuSans-4c" transform="translate(594.53125 0.41875)"/>
      <use xlink:href="#DejaVuSans-46" transform="translate(622.314453 0.41875)"/>
      <use xlink:href="#DejaVuSans-4f" transform="translate(677.294922 0.41875)"/>
      <use xlink:href="#DejaVuSans-48" transform="translate(705.078125 0.41875)"/>
      <use xlink:href="#DejaVuSans-56" transform="translate(766.601562 0.41875)"/>
      <use xlink:href="#DejaVuSans-3" transform="translate(818.701172 0.41875)"/>
      <use xlink:href="#DejaVuSans-b" transform="translate(850.488281 0.41875)"/>
      <use xlink:href="#DejaVuSans-Oblique-48" transform="translate(889.501953 0.41875)"/>
      <use xlink:href="#DejaVuSans-c9c" transform="translate(955.675286 41.71875) scale(0.7)"/>
      <use xlink:href="#DejaVuSans-Oblique-350" transform="translate(1014.32763 41.71875) scale(0.7)"/>
      <use xlink:href="#DejaVuSans-Oblique-5b" transform="translate(1058.863763 41.71875) scale(0.7)"/>
      <use xlink:href="#DejaVuSans-f" transform="translate(1103.023919 0.41875)"/>
      <use xlink:href="#DejaVuSans-3" transform="translate(1134.811029 0.41875)"/>
      <use xlink:href="#DejaVuSans-56" transform="translate(1166.598138 0.41875)"/>
      <use xlink:href="#DejaVuSans-44" transform="translate(1218.697747 0.41875)"/>
      <use xlink:href="#DejaVuSans-50" transform="translate(1279.977044 0.41875)"/>
      <use xlink:href="#DejaVuSans-48" transform="translate(1377.389154 0.41875)"/>
      <use xlink:href="#DejaVuSans-3" transform="translate(1438.912591 0.41875)"/>
      <use xlink:href="#DejaVuSans-50" transform="translate(1470.699701 0.41875)"/>
      <use xlink:href="#DejaVuSans-48" transform="translate(1568.11181 0.41875)"/>
      <use xlink:href="#DejaVuSans-44" transform="translate(1629.635247 0.41875)"/>
      <use xlink:href="#DejaVuSans-51" transform="translate(1690.914544 0.41875)"/>
      <use xlink:href="#DejaVuSans-3" transform="translate(1754.293451 0.41875)"/>
      <use xlink:href="#DejaVuSans-47" transform="translate(1786.08056 0.41875)"/>
      <use xlink:href="#DejaVuSans-48" transform="translate(1849.557122 0.41875)"/>
      <use xlink:href="#DejaVuSans-53" transform="translate(1911.08056 0.41875)"/>
      <use xlink:href="#DejaVuSans-57" transform="translate(1974.557122 0.41875)"/>
      <use xlink:href="#DejaVuSans-4b" transform="translate(2013.766107 0.41875)"/>
      <use xlink:href="#DejaVuSans-c" transform="translate(2077.145013 0.41875)"/>
     </g>
    </g>
   </g>
  </g>
 </g>
 <defs>
  <clipPath id="pe18273e177">
   <rect x="46.694297" y="23.229938" width="368.28" height="216.216"/>
  </clipPath>
 </defs>
</svg>
