<?xml version="1.0" encoding="utf-8" standalone="no"?>
<!DOCTYPE svg PUBLIC "-//W3C//DTD SVG 1.1//EN"
  "http://www.w3.org/Graphics/SVG/1.1/DTD/svg11.dtd">
<svg xmlns:xlink="http://www.w3.org/1999/xlink" width="403.02625pt" height="274.297875pt" viewBox="0 0 403.02625 274.297875" xmlns="http://www.w3.org/2000/svg" version="1.1">
 <metadata>
  <rdf:RDF xmlns:dc="http://purl.org/dc/elements/1.1/" xmlns:cc="http://creativecommons.org/ns#" xmlns:rdf="http://www.w3.org/1999/02/22-rdf-syntax-ns#">
   <cc:Work>
    <dc:type rdf:resource="http://purl.org/dc/dcmitype/StillImage"/>
    <dc:date>2026-08-01T13:54:32.678126</dc:date>
    <dc:format>image/svg+xml</dc:format>
    <dc:creator>
     <cc:Agent>
      <dc:title>Matplotlib v3.9.4, https://matplotlib.org/</dc:title>
     </cc:Agent>
    </dc:creator>
   </cc:Work>
  </rdf:RDF>
 </metadata>
 <defs>
  <style type="text/css">*{stroke-linejoin: round; stroke-linecap: butt}</style>
 </defs>
 <g id="figure_1">
  <g id="patch_1">
   <path d="M 0 274.297875 
L 403.02625 274.297875 
L 403.02625 0 
L 0 0 
z
" style="fill: #ffffff"/>
  </g>
  <g id="axes_1">
   <g id="patch_2">
    <path d="M 49.86625 233.901937 
L 395.82625 233.901937 
L 395.82625 23.229938 
L 49.86625 23.229938 
z
" style="fill: #ffffff"/>
   </g>
   <g id="patch_3">
    <path d="M 78.69625 48.014879 
L 80.144994 49.864501 
L 81.593737 51.677678 
L 83.042481 53.455476 
L 84.491225 55.19892 
L 85.939969 56.908996 
L 87.388712 58.586655 
L 88.837456 60.232807 
L 90.2862 61.848334 
L 91.734943 63.434082 
L 93.183687 64.990866 
L 94.632431 66.519473 
L 96.081175 68.020661 
L 97.529918 69.495161 
L 98.978662 70.943679 
L 100.427406 72.366895 
L 101.876149 73.765467 
L 103.324893 75.140029 
L 104.773637 76.491194 
L 106.222381 77.819555 
L 107.671124 79.125684 
L 109.119868 80.410134 
L 110.568612 81.673441 
L 112.017356 82.916122 
L 113.466099 84.13868 
L 114.914843 85.341597 
L 116.363587 86.525345 
L 117.81233 87.690377 
L 119.261074 88.837135 
L 120.709818 89.966044 
L 122.158562 91.077518 
L 123.607305 92.171958 
L 125.056049 93.249752 
L 126.504793 94.311278 
L 127.953536 95.356901 
L 129.40228 96.386976 
L 130.851024 97.401846 
L 132.299768 98.401847 
L 133.748511 99.387302 
L 135.197255 100.358527 
L 136.645999 101.315827 
L 138.094742 102.259501 
L 139.543486 103.189836 
L 140.99223 104.107114 
L 142.440974 105.011608 
L 143.889717 105.903582 
L 145.338461 106.783296 
L 146.787205 107.651 
L 148.235948 108.506938 
L 149.684692 109.351349 
L 151.133436 110.184464 
L 152.58218 111.006507 
L 154.030923 111.817698 
L 155.479667 112.61825 
L 156.928411 113.408372 
L 158.377155 114.188265 
L 159.825898 114.958128 
L 161.274642 115.718152 
L 162.723386 116.468526 
L 164.172129 117.209431 
L 165.620873 117.941045 
L 167.069617 118.663543 
L 168.518361 119.377093 
L 169.967104 120.081861 
L 171.415848 120.778009 
L 172.864592 121.465692 
L 174.313335 122.145065 
L 175.762079 122.816278 
L 177.210823 123.479476 
L 178.659567 124.134802 
L 180.10831 124.782396 
L 181.557054 125.422393 
L 183.005798 126.054927 
L 184.454541 126.680127 
L 185.903285 127.29812 
L 187.352029 127.90903 
L 188.800773 128.512978 
L 190.249516 129.110083 
L 191.69826 129.700459 
L 193.147004 130.284221 
L 194.595747 130.861479 
L 196.044491 131.43234 
L 197.493235 131.996911 
L 198.941979 132.555294 
L 200.390722 133.107592 
L 201.839466 133.653903 
L 203.28821 134.194324 
L 204.736954 134.728949 
L 206.185697 135.257872 
L 207.634441 135.781182 
L 209.083185 136.29897 
L 210.531928 136.811321 
L 211.980672 137.318322 
L 213.429416 137.820055 
L 214.87816 138.316602 
L 216.326903 138.808044 
L 217.775647 139.294457 
L 219.224391 139.77592 
L 220.673134 140.252508 
L 222.121878 140.724293 
L 223.570622 141.191349 
L 225.019366 141.653746 
L 226.468109 142.111554 
L 227.916853 142.564839 
L 229.365597 143.01367 
L 230.81434 143.458112 
L 232.263084 143.898228 
L 233.711828 144.334081 
L 235.160572 144.765733 
L 236.609315 145.193245 
L 238.058059 145.616676 
L 239.506803 146.036083 
L 240.955546 146.451524 
L 242.40429 146.863056 
L 243.853034 147.270732 
L 245.301778 147.674607 
L 246.750521 148.074734 
L 248.199265 148.471165 
L 249.648009 148.86395 
L 251.096753 149.25314 
L 252.545496 149.638783 
L 253.99424 150.020929 
L 255.442984 150.399624 
L 256.891727 150.774916 
L 258.340471 151.146849 
L 259.789215 151.515468 
L 261.237959 151.880818 
L 262.686702 152.242943 
L 264.135446 152.601883 
L 265.58419 152.957682 
L 267.032933 153.31038 
L 268.481677 153.660018 
L 269.930421 154.006636 
L 271.379165 154.350271 
L 272.827908 154.690964 
L 274.276652 155.02875 
L 275.725396 155.363668 
L 277.174139 155.695754 
L 278.622883 156.025043 
L 280.071627 156.351571 
L 281.520371 156.675372 
L 282.969114 156.996481 
L 284.417858 157.31493 
L 285.866602 157.630753 
L 287.315345 157.943981 
L 288.764089 158.254648 
L 290.212833 158.562783 
L 291.661577 158.868419 
L 293.11032 159.171585 
L 294.559064 159.47231 
L 296.007808 159.770625 
L 297.456552 160.066559 
L 298.905295 160.360139 
L 300.354039 160.651394 
L 301.802783 160.94035 
L 303.251526 161.227036 
L 304.70027 161.511478 
L 306.149014 161.793702 
L 307.597758 162.073734 
L 309.046501 162.3516 
L 310.495245 162.627323 
L 311.943989 162.90093 
L 313.392732 163.172445 
L 314.841476 163.44189 
L 316.29022 163.709291 
L 317.738964 163.97467 
L 319.187707 164.238049 
L 320.636451 164.499452 
L 322.085195 164.758901 
L 323.533938 165.016417 
L 324.982682 165.272022 
L 326.431426 165.525737 
L 327.88017 165.777583 
L 329.328913 166.02758 
L 330.777657 166.27575 
L 332.226401 166.522111 
L 333.675144 166.766684 
L 335.123888 167.009488 
L 336.572632 167.250542 
L 338.021376 167.489864 
L 339.470119 167.727475 
L 340.918863 167.963391 
L 342.367607 168.197631 
L 343.816351 168.430212 
L 345.265094 168.661153 
L 346.713838 168.890471 
L 348.162582 169.118181 
L 349.611325 169.344303 
L 351.060069 169.568851 
L 352.508813 169.791843 
L 353.957557 170.013294 
L 355.4063 170.23322 
L 356.855044 170.451638 
L 358.303788 170.668562 
L 359.752531 170.884008 
L 361.201275 171.097991 
L 362.650019 171.310525 
L 364.098763 171.521626 
L 365.547506 171.731308 
L 366.99625 171.939585 
L 366.99625 196.724526 
L 365.547506 196.59956 
L 364.098763 196.473751 
L 362.650019 196.34709 
L 361.201275 196.219569 
L 359.752531 196.09118 
L 358.303788 195.961912 
L 356.855044 195.831758 
L 355.4063 195.700707 
L 353.957557 195.568751 
L 352.508813 195.435881 
L 351.060069 195.302086 
L 349.611325 195.167357 
L 348.162582 195.031684 
L 346.713838 194.895057 
L 345.265094 194.757467 
L 343.816351 194.618902 
L 342.367607 194.479353 
L 340.918863 194.338809 
L 339.470119 194.19726 
L 338.021376 194.054694 
L 336.572632 193.9111 
L 335.123888 193.766468 
L 333.675144 193.620785 
L 332.226401 193.474042 
L 330.777657 193.326225 
L 329.328913 193.177323 
L 327.88017 193.027325 
L 326.431426 192.876217 
L 324.982682 192.723988 
L 323.533938 192.570625 
L 322.085195 192.416115 
L 320.636451 192.260446 
L 319.187707 192.103604 
L 317.738964 191.945577 
L 316.29022 191.78635 
L 314.841476 191.625909 
L 313.392732 191.464242 
L 311.943989 191.301333 
L 310.495245 191.137169 
L 309.046501 190.971735 
L 307.597758 190.805016 
L 306.149014 190.636996 
L 304.70027 190.467662 
L 303.251526 190.296997 
L 301.802783 190.124985 
L 300.354039 189.951611 
L 298.905295 189.776858 
L 297.456552 189.60071 
L 296.007808 189.42315 
L 294.559064 189.244161 
L 293.11032 189.063726 
L 291.661577 188.881826 
L 290.212833 188.698445 
L 288.764089 188.513564 
L 287.315345 188.327164 
L 285.866602 188.139227 
L 284.417858 187.949733 
L 282.969114 187.758663 
L 281.520371 187.565998 
L 280.071627 187.371718 
L 278.622883 187.175801 
L 277.174139 186.978228 
L 275.725396 186.778976 
L 274.276652 186.578025 
L 272.827908 186.375353 
L 271.379165 186.170938 
L 269.930421 185.964756 
L 268.481677 185.756786 
L 267.032933 185.547003 
L 265.58419 185.335384 
L 264.135446 185.121905 
L 262.686702 184.906541 
L 261.237959 184.689266 
L 259.789215 184.470056 
L 258.340471 184.248884 
L 256.891727 184.025724 
L 255.442984 183.80055 
L 253.99424 183.573332 
L 252.545496 183.344045 
L 251.096753 183.112659 
L 249.648009 182.879145 
L 248.199265 182.643474 
L 246.750521 182.405615 
L 245.301778 182.165539 
L 243.853034 181.923214 
L 242.40429 181.678609 
L 240.955546 181.43169 
L 239.506803 181.182425 
L 238.058059 180.93078 
L 236.609315 180.676722 
L 235.160572 180.420215 
L 233.711828 180.161224 
L 232.263084 179.899712 
L 230.81434 179.635642 
L 229.365597 179.368977 
L 227.916853 179.099679 
L 226.468109 178.827707 
L 225.019366 178.553023 
L 223.570622 178.275585 
L 222.121878 177.995351 
L 220.673134 177.71228 
L 219.224391 177.426327 
L 217.775647 177.137449 
L 216.326903 176.845601 
L 214.87816 176.550736 
L 213.429416 176.252808 
L 211.980672 175.951768 
L 210.531928 175.647568 
L 209.083185 175.340157 
L 207.634441 175.029484 
L 206.185697 174.715498 
L 204.736954 174.398144 
L 203.28821 174.077369 
L 201.839466 173.753117 
L 200.390722 173.42533 
L 198.941979 173.093952 
L 197.493235 172.758921 
L 196.044491 172.420179 
L 194.595747 172.077662 
L 193.147004 171.731308 
L 191.69826 171.381051 
L 190.249516 171.026825 
L 188.800773 170.668562 
L 187.352029 170.306193 
L 185.903285 169.939647 
L 184.454541 169.568851 
L 183.005798 169.193731 
L 181.557054 168.814211 
L 180.10831 168.430212 
L 178.659567 168.041656 
L 177.210823 167.64846 
L 175.762079 167.250542 
L 174.313335 166.847814 
L 172.864592 166.44019 
L 171.415848 166.02758 
L 169.967104 165.609892 
L 168.518361 165.187031 
L 167.069617 164.758901 
L 165.620873 164.325402 
L 164.172129 163.886433 
L 162.723386 163.44189 
L 161.274642 162.991666 
L 159.825898 162.535652 
L 158.377155 162.073734 
L 156.928411 161.605798 
L 155.479667 161.131725 
L 154.030923 160.651394 
L 152.58218 160.164679 
L 151.133436 159.671453 
L 149.684692 159.171585 
L 148.235948 158.664938 
L 146.787205 158.151375 
L 145.338461 157.630753 
L 143.889717 157.102924 
L 142.440974 156.56774 
L 140.99223 156.025043 
L 139.543486 155.474677 
L 138.094742 154.916475 
L 136.645999 154.350271 
L 135.197255 153.775891 
L 133.748511 153.193156 
L 132.299768 152.601883 
L 130.851024 152.001883 
L 129.40228 151.39296 
L 127.953536 150.774916 
L 126.504793 150.147542 
L 125.056049 149.510626 
L 123.607305 148.86395 
L 122.158562 148.207286 
L 120.709818 147.540401 
L 119.261074 146.863056 
L 117.81233 146.175001 
L 116.363587 145.475982 
L 114.914843 144.765733 
L 113.466099 144.043983 
L 112.017356 143.310448 
L 110.568612 142.564839 
L 109.119868 141.806855 
L 107.671124 141.036185 
L 106.222381 140.252508 
L 104.773637 139.455491 
L 103.324893 138.644792 
L 101.876149 137.820055 
L 100.427406 136.980912 
L 98.978662 136.126982 
L 97.529918 135.257872 
L 96.081175 134.373171 
L 94.632431 133.472459 
L 93.183687 132.555294 
L 91.734943 131.621224 
L 90.2862 130.669776 
L 88.837456 129.700459 
L 87.388712 128.712768 
L 85.939969 127.706173 
L 84.491225 126.680127 
L 83.042481 125.63406 
L 81.593737 124.567382 
L 80.144994 123.479476 
L 78.69625 122.369702 
z
" clip-path="url(#p955071dc8f)" style="fill: #9a5a8a; opacity: 0.18"/>
   </g>
   <g id="matplotlib.axis_1">
    <g id="xtick_1">
     <g id="line2d_1">
      <path d="M 78.69625 233.901937 
L 78.69625 23.229938 
" clip-path="url(#p955071dc8f)" style="fill: none; stroke: #b0b0b0; stroke-opacity: 0.25; stroke-width: 0.6; stroke-linecap: square"/>
     </g>
     <g id="line2d_2">
      <defs>
       <path id="mbd95d0099e" d="M 0 0 
L 0 3.5 
" style="stroke: #000000; stroke-width: 0.8"/>
      </defs>
      <g>
       <use xlink:href="#mbd95d0099e" x="78.69625" y="233.901937" style="stroke: #000000; stroke-width: 0.8"/>
      </g>
     </g>
     <g id="text_1">
      <!-- 0.10 -->
      <g transform="translate(66.450156 249.260219) scale(0.11 -0.11)">
       <defs>
        <path id="DejaVuSans-30" d="M 2034 4250 
Q 1547 4250 1301 3770 
Q 1056 3291 1056 2328 
Q 1056 1369 1301 889 
Q 1547 409 2034 409 
Q 2525 409 2770 889 
Q 3016 1369 3016 2328 
Q 3016 3291 2770 3770 
Q 2525 4250 2034 4250 
z
M 2034 4750 
Q 2819 4750 3233 4129 
Q 3647 3509 3647 2328 
Q 3647 1150 3233 529 
Q 2819 -91 2034 -91 
Q 1250 -91 836 529 
Q 422 1150 422 2328 
Q 422 3509 836 4129 
Q 1250 4750 2034 4750 
z
" transform="scale(0.015625)"/>
        <path id="DejaVuSans-2e" d="M 684 794 
L 1344 794 
L 1344 0 
L 684 0 
L 684 794 
z
" transform="scale(0.015625)"/>
        <path id="DejaVuSans-31" d="M 794 531 
L 1825 531 
L 1825 4091 
L 703 3866 
L 703 4441 
L 1819 4666 
L 2450 4666 
L 2450 531 
L 3481 531 
L 3481 0 
L 794 0 
L 794 531 
z
" transform="scale(0.015625)"/>
       </defs>
       <use xlink:href="#DejaVuSans-30"/>
       <use xlink:href="#DejaVuSans-2e" x="63.623047"/>
       <use xlink:href="#DejaVuSans-31" x="95.410156"/>
       <use xlink:href="#DejaVuSans-30" x="159.033203"/>
      </g>
     </g>
    </g>
    <g id="xtick_2">
     <g id="line2d_3">
      <path d="M 150.77125 233.901937 
L 150.77125 23.229938 
" clip-path="url(#p955071dc8f)" style="fill: none; stroke: #b0b0b0; stroke-opacity: 0.25; stroke-width: 0.6; stroke-linecap: square"/>
     </g>
     <g id="line2d_4">
      <g>
       <use xlink:href="#mbd95d0099e" x="150.77125" y="233.901937" style="stroke: #000000; stroke-width: 0.8"/>
      </g>
     </g>
     <g id="text_2">
      <!-- 0.15 -->
      <g transform="translate(138.525156 249.260219) scale(0.11 -0.11)">
       <defs>
        <path id="DejaVuSans-35" d="M 691 4666 
L 3169 4666 
L 3169 4134 
L 1269 4134 
L 1269 2991 
Q 1406 3038 1543 3061 
Q 1681 3084 1819 3084 
Q 2600 3084 3056 2656 
Q 3513 2228 3513 1497 
Q 3513 744 3044 326 
Q 2575 -91 1722 -91 
Q 1428 -91 1123 -41 
Q 819 9 494 109 
L 494 744 
Q 775 591 1075 516 
Q 1375 441 1709 441 
Q 2250 441 2565 725 
Q 2881 1009 2881 1497 
Q 2881 1984 2565 2268 
Q 2250 2553 1709 2553 
Q 1456 2553 1204 2497 
Q 953 2441 691 2322 
L 691 4666 
z
" transform="scale(0.015625)"/>
       </defs>
       <use xlink:href="#DejaVuSans-30"/>
       <use xlink:href="#DejaVuSans-2e" x="63.623047"/>
       <use xlink:href="#DejaVuSans-31" x="95.410156"/>
       <use xlink:href="#DejaVuSans-35" x="159.033203"/>
      </g>
     </g>
    </g>
    <g id="xtick_3">
     <g id="line2d_5">
      <path d="M 222.84625 233.901937 
L 222.84625 23.229938 
" clip-path="url(#p955071dc8f)" style="fill: none; stroke: #b0b0b0; stroke-opacity: 0.25; stroke-width: 0.6; stroke-linecap: square"/>
     </g>
     <g id="line2d_6">
      <g>
       <use xlink:href="#mbd95d0099e" x="222.84625" y="233.901937" style="stroke: #000000; stroke-width: 0.8"/>
      </g>
     </g>
     <g id="text_3">
      <!-- 0.20 -->
      <g transform="translate(210.600156 249.260219) scale(0.11 -0.11)">
       <defs>
        <path id="DejaVuSans-32" d="M 1228 531 
L 3431 531 
L 3431 0 
L 469 0 
L 469 531 
Q 828 903 1448 1529 
Q 2069 2156 2228 2338 
Q 2531 2678 2651 2914 
Q 2772 3150 2772 3378 
Q 2772 3750 2511 3984 
Q 2250 4219 1831 4219 
Q 1534 4219 1204 4116 
Q 875 4013 500 3803 
L 500 4441 
Q 881 4594 1212 4672 
Q 1544 4750 1819 4750 
Q 2544 4750 2975 4387 
Q 3406 4025 3406 3419 
Q 3406 3131 3298 2873 
Q 3191 2616 2906 2266 
Q 2828 2175 2409 1742 
Q 1991 1309 1228 531 
z
" transform="scale(0.015625)"/>
       </defs>
       <use xlink:href="#DejaVuSans-30"/>
       <use xlink:href="#DejaVuSans-2e" x="63.623047"/>
       <use xlink:href="#DejaVuSans-32" x="95.410156"/>
       <use xlink:href="#DejaVuSans-30" x="159.033203"/>
      </g>
     </g>
    </g>
    <g id="xtick_4">
     <g id="line2d_7">
      <path d="M 294.92125 233.901937 
L 294.92125 23.229938 
" clip-path="url(#p955071dc8f)" style="fill: none; stroke: #b0b0b0; stroke-opacity: 0.25; stroke-width: 0.6; stroke-linecap: square"/>
     </g>
     <g id="line2d_8">
      <g>
       <use xlink:href="#mbd95d0099e" x="294.92125" y="233.901937" style="stroke: #000000; stroke-width: 0.8"/>
      </g>
     </g>
     <g id="text_4">
      <!-- 0.25 -->
      <g transform="translate(282.675156 249.260219) scale(0.11 -0.11)">
       <use xlink:href="#DejaVuSans-30"/>
       <use xlink:href="#DejaVuSans-2e" x="63.623047"/>
       <use xlink:href="#DejaVuSans-32" x="95.410156"/>
       <use xlink:href="#DejaVuSans-35" x="159.033203"/>
      </g>
     </g>
    </g>
    <g id="xtick_5">
     <g id="line2d_9">
      <path d="M 366.99625 233.901937 
L 366.99625 23.229938 
" clip-path="url(#p955071dc8f)" style="fill: none; stroke: #b0b0b0; stroke-opacity: 0.25; stroke-width: 0.6; stroke-linecap: square"/>
     </g>
     <g id="line2d_10">
      <g>
       <use xlink:href="#mbd95d0099e" x="366.99625" y="233.901937" style="stroke: #000000; stroke-width: 0.8"/>
      </g>
     </g>
     <g id="text_5">
      <!-- 0.30 -->
      <g transform="translate(354.750156 249.260219) scale(0.11 -0.11)">
       <defs>
        <path id="DejaVuSans-33" d="M 2597 2516 
Q 3050 2419 3304 2112 
Q 3559 1806 3559 1356 
Q 3559 666 3084 287 
Q 2609 -91 1734 -91 
Q 1441 -91 1130 -33 
Q 819 25 488 141 
L 488 750 
Q 750 597 1062 519 
Q 1375 441 1716 441 
Q 2309 441 2620 675 
Q 2931 909 2931 1356 
Q 2931 1769 2642 2001 
Q 2353 2234 1838 2234 
L 1294 2234 
L 1294 2753 
L 1863 2753 
Q 2328 2753 2575 2939 
Q 2822 3125 2822 3475 
Q 2822 3834 2567 4026 
Q 2313 4219 1838 4219 
Q 1578 4219 1281 4162 
Q 984 4106 628 3988 
L 628 4550 
Q 988 4650 1302 4700 
Q 1616 4750 1894 4750 
Q 2613 4750 3031 4423 
Q 3450 4097 3450 3541 
Q 3450 3153 3228 2886 
Q 3006 2619 2597 2516 
z
" transform="scale(0.015625)"/>
       </defs>
       <use xlink:href="#DejaVuSans-30"/>
       <use xlink:href="#DejaVuSans-2e" x="63.623047"/>
       <use xlink:href="#DejaVuSans-33" x="95.410156"/>
       <use xlink:href="#DejaVuSans-30" x="159.033203"/>
      </g>
     </g>
    </g>
    <g id="text_6">
     <!-- volume $V$ (m$^3$) -->
     <g transform="translate(182.86125 264.810219) scale(0.11 -0.11)">
      <defs>
       <path id="DejaVuSans-76" d="M 191 3500 
L 800 3500 
L 1894 563 
L 2988 3500 
L 3597 3500 
L 2284 0 
L 1503 0 
L 191 3500 
z
" transform="scale(0.015625)"/>
       <path id="DejaVuSans-6f" d="M 1959 3097 
Q 1497 3097 1228 2736 
Q 959 2375 959 1747 
Q 959 1119 1226 758 
Q 1494 397 1959 397 
Q 2419 397 2687 759 
Q 2956 1122 2956 1747 
Q 2956 2369 2687 2733 
Q 2419 3097 1959 3097 
z
M 1959 3584 
Q 2709 3584 3137 3096 
Q 3566 2609 3566 1747 
Q 3566 888 3137 398 
Q 2709 -91 1959 -91 
Q 1206 -91 779 398 
Q 353 888 353 1747 
Q 353 2609 779 3096 
Q 1206 3584 1959 3584 
z
" transform="scale(0.015625)"/>
       <path id="DejaVuSans-6c" d="M 603 4863 
L 1178 4863 
L 1178 0 
L 603 0 
L 603 4863 
z
" transform="scale(0.015625)"/>
       <path id="DejaVuSans-75" d="M 544 1381 
L 544 3500 
L 1119 3500 
L 1119 1403 
Q 1119 906 1312 657 
Q 1506 409 1894 409 
Q 2359 409 2629 706 
Q 2900 1003 2900 1516 
L 2900 3500 
L 3475 3500 
L 3475 0 
L 2900 0 
L 2900 538 
Q 2691 219 2414 64 
Q 2138 -91 1772 -91 
Q 1169 -91 856 284 
Q 544 659 544 1381 
z
M 1991 3584 
L 1991 3584 
z
" transform="scale(0.015625)"/>
       <path id="DejaVuSans-6d" d="M 3328 2828 
Q 3544 3216 3844 3400 
Q 4144 3584 4550 3584 
Q 5097 3584 5394 3201 
Q 5691 2819 5691 2113 
L 5691 0 
L 5113 0 
L 5113 2094 
Q 5113 2597 4934 2840 
Q 4756 3084 4391 3084 
Q 3944 3084 3684 2787 
Q 3425 2491 3425 1978 
L 3425 0 
L 2847 0 
L 2847 2094 
Q 2847 2600 2669 2842 
Q 2491 3084 2119 3084 
Q 1678 3084 1418 2786 
Q 1159 2488 1159 1978 
L 1159 0 
L 581 0 
L 581 3500 
L 1159 3500 
L 1159 2956 
Q 1356 3278 1631 3431 
Q 1906 3584 2284 3584 
Q 2666 3584 2933 3390 
Q 3200 3197 3328 2828 
z
" transform="scale(0.015625)"/>
       <path id="DejaVuSans-65" d="M 3597 1894 
L 3597 1613 
L 953 1613 
Q 991 1019 1311 708 
Q 1631 397 2203 397 
Q 2534 397 2845 478 
Q 3156 559 3463 722 
L 3463 178 
Q 3153 47 2828 -22 
Q 2503 -91 2169 -91 
Q 1331 -91 842 396 
Q 353 884 353 1716 
Q 353 2575 817 3079 
Q 1281 3584 2069 3584 
Q 2775 3584 3186 3129 
Q 3597 2675 3597 1894 
z
M 3022 2063 
Q 3016 2534 2758 2815 
Q 2500 3097 2075 3097 
Q 1594 3097 1305 2825 
Q 1016 2553 972 2059 
L 3022 2063 
z
" transform="scale(0.015625)"/>
       <path id="DejaVuSans-20" transform="scale(0.015625)"/>
       <path id="DejaVuSans-Oblique-56" d="M 1319 0 
L 500 4666 
L 1119 4666 
L 1797 653 
L 4063 4666 
L 4750 4666 
L 2053 0 
L 1319 0 
z
" transform="scale(0.015625)"/>
       <path id="DejaVuSans-28" d="M 1984 4856 
Q 1566 4138 1362 3434 
Q 1159 2731 1159 2009 
Q 1159 1288 1364 580 
Q 1569 -128 1984 -844 
L 1484 -844 
Q 1016 -109 783 600 
Q 550 1309 550 2009 
Q 550 2706 781 3412 
Q 1013 4119 1484 4856 
L 1984 4856 
z
" transform="scale(0.015625)"/>
       <path id="DejaVuSans-29" d="M 513 4856 
L 1013 4856 
Q 1481 4119 1714 3412 
Q 1947 2706 1947 2009 
Q 1947 1309 1714 600 
Q 1481 -109 1013 -844 
L 513 -844 
Q 928 -128 1133 580 
Q 1338 1288 1338 2009 
Q 1338 2731 1133 3434 
Q 928 4138 513 4856 
z
" transform="scale(0.015625)"/>
      </defs>
      <use xlink:href="#DejaVuSans-76" transform="translate(0 0.765625)"/>
      <use xlink:href="#DejaVuSans-6f" transform="translate(59.179688 0.765625)"/>
      <use xlink:href="#DejaVuSans-6c" transform="translate(120.361328 0.765625)"/>
      <use xlink:href="#DejaVuSans-75" transform="translate(148.144531 0.765625)"/>
      <use xlink:href="#DejaVuSans-6d" transform="translate(211.523438 0.765625)"/>
      <use xlink:href="#DejaVuSans-65" transform="translate(308.935547 0.765625)"/>
      <use xlink:href="#DejaVuSans-20" transform="translate(370.458984 0.765625)"/>
      <use xlink:href="#DejaVuSans-Oblique-56" transform="translate(402.246094 0.765625)"/>
      <use xlink:href="#DejaVuSans-20" transform="translate(470.654297 0.765625)"/>
      <use xlink:href="#DejaVuSans-28" transform="translate(502.441406 0.765625)"/>
      <use xlink:href="#DejaVuSans-6d" transform="translate(541.455078 0.765625)"/>
      <use xlink:href="#DejaVuSans-33" transform="translate(639.824219 39.046875) scale(0.7)"/>
      <use xlink:href="#DejaVuSans-29" transform="translate(687.094727 0.765625)"/>
     </g>
    </g>
   </g>
   <g id="matplotlib.axis_2">
    <g id="ytick_1">
     <g id="line2d_11">
      <path d="M 49.86625 233.901937 
L 395.82625 233.901937 
" clip-path="url(#p955071dc8f)" style="fill: none; stroke: #b0b0b0; stroke-opacity: 0.25; stroke-width: 0.6; stroke-linecap: square"/>
     </g>
     <g id="line2d_12">
      <defs>
       <path id="m79cca8c395" d="M 0 0 
L -3.5 0 
" style="stroke: #000000; stroke-width: 0.8"/>
      </defs>
      <g>
       <use xlink:href="#m79cca8c395" x="49.86625" y="233.901937" style="stroke: #000000; stroke-width: 0.8"/>
      </g>
     </g>
     <g id="text_7">
      <!-- 0 -->
      <g transform="translate(35.8675 238.081078) scale(0.11 -0.11)">
       <use xlink:href="#DejaVuSans-30"/>
      </g>
     </g>
    </g>
    <g id="ytick_2">
     <g id="line2d_13">
      <path d="M 49.86625 202.920761 
L 395.82625 202.920761 
" clip-path="url(#p955071dc8f)" style="fill: none; stroke: #b0b0b0; stroke-opacity: 0.25; stroke-width: 0.6; stroke-linecap: square"/>
     </g>
     <g id="line2d_14">
      <g>
       <use xlink:href="#m79cca8c395" x="49.86625" y="202.920761" style="stroke: #000000; stroke-width: 0.8"/>
      </g>
     </g>
     <g id="text_8">
      <!-- 50 -->
      <g transform="translate(28.86875 207.099902) scale(0.11 -0.11)">
       <use xlink:href="#DejaVuSans-35"/>
       <use xlink:href="#DejaVuSans-30" x="63.623047"/>
      </g>
     </g>
    </g>
    <g id="ytick_3">
     <g id="line2d_15">
      <path d="M 49.86625 171.939585 
L 395.82625 171.939585 
" clip-path="url(#p955071dc8f)" style="fill: none; stroke: #b0b0b0; stroke-opacity: 0.25; stroke-width: 0.6; stroke-linecap: square"/>
     </g>
     <g id="line2d_16">
      <g>
       <use xlink:href="#m79cca8c395" x="49.86625" y="171.939585" style="stroke: #000000; stroke-width: 0.8"/>
      </g>
     </g>
     <g id="text_9">
      <!-- 100 -->
      <g transform="translate(21.87 176.118725) scale(0.11 -0.11)">
       <use xlink:href="#DejaVuSans-31"/>
       <use xlink:href="#DejaVuSans-30" x="63.623047"/>
       <use xlink:href="#DejaVuSans-30" x="127.246094"/>
      </g>
     </g>
    </g>
    <g id="ytick_4">
     <g id="line2d_17">
      <path d="M 49.86625 140.958408 
L 395.82625 140.958408 
" clip-path="url(#p955071dc8f)" style="fill: none; stroke: #b0b0b0; stroke-opacity: 0.25; stroke-width: 0.6; stroke-linecap: square"/>
     </g>
     <g id="line2d_18">
      <g>
       <use xlink:href="#m79cca8c395" x="49.86625" y="140.958408" style="stroke: #000000; stroke-width: 0.8"/>
      </g>
     </g>
     <g id="text_10">
      <!-- 150 -->
      <g transform="translate(21.87 145.137549) scale(0.11 -0.11)">
       <use xlink:href="#DejaVuSans-31"/>
       <use xlink:href="#DejaVuSans-35" x="63.623047"/>
       <use xlink:href="#DejaVuSans-30" x="127.246094"/>
      </g>
     </g>
    </g>
    <g id="ytick_5">
     <g id="line2d_19">
      <path d="M 49.86625 109.977232 
L 395.82625 109.977232 
" clip-path="url(#p955071dc8f)" style="fill: none; stroke: #b0b0b0; stroke-opacity: 0.25; stroke-width: 0.6; stroke-linecap: square"/>
     </g>
     <g id="line2d_20">
      <g>
       <use xlink:href="#m79cca8c395" x="49.86625" y="109.977232" style="stroke: #000000; stroke-width: 0.8"/>
      </g>
     </g>
     <g id="text_11">
      <!-- 200 -->
      <g transform="translate(21.87 114.156372) scale(0.11 -0.11)">
       <use xlink:href="#DejaVuSans-32"/>
       <use xlink:href="#DejaVuSans-30" x="63.623047"/>
       <use xlink:href="#DejaVuSans-30" x="127.246094"/>
      </g>
     </g>
    </g>
    <g id="ytick_6">
     <g id="line2d_21">
      <path d="M 49.86625 78.996055 
L 395.82625 78.996055 
" clip-path="url(#p955071dc8f)" style="fill: none; stroke: #b0b0b0; stroke-opacity: 0.25; stroke-width: 0.6; stroke-linecap: square"/>
     </g>
     <g id="line2d_22">
      <g>
       <use xlink:href="#m79cca8c395" x="49.86625" y="78.996055" style="stroke: #000000; stroke-width: 0.8"/>
      </g>
     </g>
     <g id="text_12">
      <!-- 250 -->
      <g transform="translate(21.87 83.175196) scale(0.11 -0.11)">
       <use xlink:href="#DejaVuSans-32"/>
       <use xlink:href="#DejaVuSans-35" x="63.623047"/>
       <use xlink:href="#DejaVuSans-30" x="127.246094"/>
      </g>
     </g>
    </g>
    <g id="ytick_7">
     <g id="line2d_23">
      <path d="M 49.86625 48.014879 
L 395.82625 48.014879 
" clip-path="url(#p955071dc8f)" style="fill: none; stroke: #b0b0b0; stroke-opacity: 0.25; stroke-width: 0.6; stroke-linecap: square"/>
     </g>
     <g id="line2d_24">
      <g>
       <use xlink:href="#m79cca8c395" x="49.86625" y="48.014879" style="stroke: #000000; stroke-width: 0.8"/>
      </g>
     </g>
     <g id="text_13">
      <!-- 300 -->
      <g transform="translate(21.87 52.194019) scale(0.11 -0.11)">
       <use xlink:href="#DejaVuSans-33"/>
       <use xlink:href="#DejaVuSans-30" x="63.623047"/>
       <use xlink:href="#DejaVuSans-30" x="127.246094"/>
      </g>
     </g>
    </g>
    <g id="text_14">
     <!-- pressure $p$ (kPa) -->
     <g transform="translate(15.56 173.720937) rotate(-90) scale(0.11 -0.11)">
      <defs>
       <path id="DejaVuSans-70" d="M 1159 525 
L 1159 -1331 
L 581 -1331 
L 581 3500 
L 1159 3500 
L 1159 2969 
Q 1341 3281 1617 3432 
Q 1894 3584 2278 3584 
Q 2916 3584 3314 3078 
Q 3713 2572 3713 1747 
Q 3713 922 3314 415 
Q 2916 -91 2278 -91 
Q 1894 -91 1617 61 
Q 1341 213 1159 525 
z
M 3116 1747 
Q 3116 2381 2855 2742 
Q 2594 3103 2138 3103 
Q 1681 3103 1420 2742 
Q 1159 2381 1159 1747 
Q 1159 1113 1420 752 
Q 1681 391 2138 391 
Q 2594 391 2855 752 
Q 3116 1113 3116 1747 
z
" transform="scale(0.015625)"/>
       <path id="DejaVuSans-72" d="M 2631 2963 
Q 2534 3019 2420 3045 
Q 2306 3072 2169 3072 
Q 1681 3072 1420 2755 
Q 1159 2438 1159 1844 
L 1159 0 
L 581 0 
L 581 3500 
L 1159 3500 
L 1159 2956 
Q 1341 3275 1631 3429 
Q 1922 3584 2338 3584 
Q 2397 3584 2469 3576 
Q 2541 3569 2628 3553 
L 2631 2963 
z
" transform="scale(0.015625)"/>
       <path id="DejaVuSans-73" d="M 2834 3397 
L 2834 2853 
Q 2591 2978 2328 3040 
Q 2066 3103 1784 3103 
Q 1356 3103 1142 2972 
Q 928 2841 928 2578 
Q 928 2378 1081 2264 
Q 1234 2150 1697 2047 
L 1894 2003 
Q 2506 1872 2764 1633 
Q 3022 1394 3022 966 
Q 3022 478 2636 193 
Q 2250 -91 1575 -91 
Q 1294 -91 989 -36 
Q 684 19 347 128 
L 347 722 
Q 666 556 975 473 
Q 1284 391 1588 391 
Q 1994 391 2212 530 
Q 2431 669 2431 922 
Q 2431 1156 2273 1281 
Q 2116 1406 1581 1522 
L 1381 1569 
Q 847 1681 609 1914 
Q 372 2147 372 2553 
Q 372 3047 722 3315 
Q 1072 3584 1716 3584 
Q 2034 3584 2315 3537 
Q 2597 3491 2834 3397 
z
" transform="scale(0.015625)"/>
       <path id="DejaVuSans-Oblique-70" d="M 3175 2156 
Q 3175 2616 2975 2859 
Q 2775 3103 2400 3103 
Q 2144 3103 1911 2972 
Q 1678 2841 1497 2591 
Q 1319 2344 1212 1994 
Q 1106 1644 1106 1300 
Q 1106 863 1306 627 
Q 1506 391 1875 391 
Q 2147 391 2380 519 
Q 2613 647 2778 891 
Q 2956 1147 3065 1494 
Q 3175 1841 3175 2156 
z
M 1394 2969 
Q 1625 3272 1939 3428 
Q 2253 3584 2638 3584 
Q 3175 3584 3472 3232 
Q 3769 2881 3769 2247 
Q 3769 1728 3584 1258 
Q 3400 788 3053 416 
Q 2822 169 2531 39 
Q 2241 -91 1919 -91 
Q 1547 -91 1294 64 
Q 1041 219 916 525 
L 556 -1331 
L -19 -1331 
L 922 3500 
L 1497 3500 
L 1394 2969 
z
" transform="scale(0.015625)"/>
       <path id="DejaVuSans-6b" d="M 581 4863 
L 1159 4863 
L 1159 1991 
L 2875 3500 
L 3609 3500 
L 1753 1863 
L 3688 0 
L 2938 0 
L 1159 1709 
L 1159 0 
L 581 0 
L 581 4863 
z
" transform="scale(0.015625)"/>
       <path id="DejaVuSans-50" d="M 1259 4147 
L 1259 2394 
L 2053 2394 
Q 2494 2394 2734 2622 
Q 2975 2850 2975 3272 
Q 2975 3691 2734 3919 
Q 2494 4147 2053 4147 
L 1259 4147 
z
M 628 4666 
L 2053 4666 
Q 2838 4666 3239 4311 
Q 3641 3956 3641 3272 
Q 3641 2581 3239 2228 
Q 2838 1875 2053 1875 
L 1259 1875 
L 1259 0 
L 628 0 
L 628 4666 
z
" transform="scale(0.015625)"/>
       <path id="DejaVuSans-61" d="M 2194 1759 
Q 1497 1759 1228 1600 
Q 959 1441 959 1056 
Q 959 750 1161 570 
Q 1363 391 1709 391 
Q 2188 391 2477 730 
Q 2766 1069 2766 1631 
L 2766 1759 
L 2194 1759 
z
M 3341 1997 
L 3341 0 
L 2766 0 
L 2766 531 
Q 2569 213 2275 61 
Q 1981 -91 1556 -91 
Q 1019 -91 701 211 
Q 384 513 384 1019 
Q 384 1609 779 1909 
Q 1175 2209 1959 2209 
L 2766 2209 
L 2766 2266 
Q 2766 2663 2505 2880 
Q 2244 3097 1772 3097 
Q 1472 3097 1187 3025 
Q 903 2953 641 2809 
L 641 3341 
Q 956 3463 1253 3523 
Q 1550 3584 1831 3584 
Q 2591 3584 2966 3190 
Q 3341 2797 3341 1997 
z
" transform="scale(0.015625)"/>
      </defs>
      <use xlink:href="#DejaVuSans-70" transform="translate(0 0.015625)"/>
      <use xlink:href="#DejaVuSans-72" transform="translate(63.476562 0.015625)"/>
      <use xlink:href="#DejaVuSans-65" transform="translate(104.589844 0.015625)"/>
      <use xlink:href="#DejaVuSans-73" transform="translate(166.113281 0.015625)"/>
      <use xlink:href="#DejaVuSans-73" transform="translate(218.212891 0.015625)"/>
      <use xlink:href="#DejaVuSans-75" transform="translate(270.3125 0.015625)"/>
      <use xlink:href="#DejaVuSans-72" transform="translate(333.691406 0.015625)"/>
      <use xlink:href="#DejaVuSans-65" transform="translate(374.804688 0.015625)"/>
      <use xlink:href="#DejaVuSans-20" transform="translate(436.328125 0.015625)"/>
      <use xlink:href="#DejaVuSans-Oblique-70" transform="translate(468.115234 0.015625)"/>
      <use xlink:href="#DejaVuSans-20" transform="translate(531.591797 0.015625)"/>
      <use xlink:href="#DejaVuSans-28" transform="translate(563.378906 0.015625)"/>
      <use xlink:href="#DejaVuSans-6b" transform="translate(602.392578 0.015625)"/>
      <use xlink:href="#DejaVuSans-50" transform="translate(660.302734 0.015625)"/>
      <use xlink:href="#DejaVuSans-61" transform="translate(720.605469 0.015625)"/>
      <use xlink:href="#DejaVuSans-29" transform="translate(781.884766 0.015625)"/>
     </g>
    </g>
   </g>
   <g id="line2d_25">
    <path d="M 78.69625 48.014879 
L 83.042481 53.455476 
L 87.388712 58.586655 
L 91.734943 63.434082 
L 96.081175 68.020661 
L 101.876149 73.765467 
L 107.671124 79.125684 
L 113.466099 84.13868 
L 119.261074 88.837135 
L 125.056049 93.249752 
L 130.851024 97.401846 
L 136.645999 101.315827 
L 143.889717 105.903582 
L 151.133436 110.184464 
L 158.377155 114.188265 
L 165.620873 117.941045 
L 172.864592 121.465692 
L 181.557054 125.422393 
L 190.249516 129.110083 
L 198.941979 132.555294 
L 207.634441 135.781182 
L 217.775647 139.294457 
L 227.916853 142.564839 
L 238.058059 145.616676 
L 249.648009 148.86395 
L 261.237959 151.880818 
L 274.276652 155.02875 
L 287.315345 157.943981 
L 301.802783 160.94035 
L 316.29022 163.709291 
L 332.226401 166.522111 
L 349.611325 169.344303 
L 366.99625 171.939585 
L 366.99625 171.939585 
" clip-path="url(#p955071dc8f)" style="fill: none; stroke: #3b3b6d; stroke-width: 2.2; stroke-linecap: square"/>
   </g>
   <g id="line2d_26">
    <path d="M 366.99625 196.724526 
L 343.816351 194.618902 
L 322.085195 192.416115 
L 303.251526 190.296997 
L 284.417858 187.949733 
L 267.032933 185.547003 
L 251.096753 183.112659 
L 236.609315 180.676722 
L 223.570622 178.275585 
L 210.531928 175.647568 
L 198.941979 173.093952 
L 187.352029 170.306193 
L 177.210823 167.64846 
L 167.069617 164.758901 
L 158.377155 162.073734 
L 149.684692 159.171585 
L 140.99223 156.025043 
L 133.748511 153.193156 
L 126.504793 150.147542 
L 119.261074 146.863056 
L 112.017356 143.310448 
L 106.222381 140.252508 
L 100.427406 136.980912 
L 94.632431 133.472459 
L 88.837456 129.700459 
L 83.042481 125.63406 
L 78.69625 122.369702 
L 78.69625 122.369702 
" clip-path="url(#p955071dc8f)" style="fill: none; stroke-dasharray: 8.14,3.52; stroke-dashoffset: 0; stroke: #b5651d; stroke-width: 2.2"/>
   </g>
   <g id="line2d_27">
    <path d="M 366.99625 171.939585 
L 366.99625 196.724526 
" clip-path="url(#p955071dc8f)" style="fill: none; stroke: #999999; stroke-width: 1.6; stroke-linecap: square"/>
   </g>
   <g id="line2d_28">
    <path d="M 78.69625 122.369702 
L 78.69625 48.014879 
" clip-path="url(#p955071dc8f)" style="fill: none; stroke: #999999; stroke-width: 1.6; stroke-linecap: square"/>
   </g>
   <g id="patch_4">
    <path d="M 49.86625 233.901937 
L 49.86625 23.229938 
" style="fill: none; stroke: #000000; stroke-width: 0.8; stroke-linejoin: miter; stroke-linecap: square"/>
   </g>
   <g id="patch_5">
    <path d="M 395.82625 233.901937 
L 395.82625 23.229938 
" style="fill: none; stroke: #000000; stroke-width: 0.8; stroke-linejoin: miter; stroke-linecap: square"/>
   </g>
   <g id="patch_6">
    <path d="M 49.86625 233.901937 
L 395.82625 233.901937 
" style="fill: none; stroke: #000000; stroke-width: 0.8; stroke-linejoin: miter; stroke-linecap: square"/>
   </g>
   <g id="patch_7">
    <path d="M 49.86625 23.229938 
L 395.82625 23.229938 
" style="fill: none; stroke: #000000; stroke-width: 0.8; stroke-linejoin: miter; stroke-linecap: square"/>
   </g>
   <g id="text_15">
    <!-- enclosed area -->
    <g style="fill: #404040" transform="translate(153.215094 134.096085) scale(0.1 -0.1)">
     <defs>
      <path id="DejaVuSans-6e" d="M 3513 2113 
L 3513 0 
L 2938 0 
L 2938 2094 
Q 2938 2591 2744 2837 
Q 2550 3084 2163 3084 
Q 1697 3084 1428 2787 
Q 1159 2491 1159 1978 
L 1159 0 
L 581 0 
L 581 3500 
L 1159 3500 
L 1159 2956 
Q 1366 3272 1645 3428 
Q 1925 3584 2291 3584 
Q 2894 3584 3203 3211 
Q 3513 2838 3513 2113 
z
" transform="scale(0.015625)"/>
      <path id="DejaVuSans-63" d="M 3122 3366 
L 3122 2828 
Q 2878 2963 2633 3030 
Q 2388 3097 2138 3097 
Q 1578 3097 1268 2742 
Q 959 2388 959 1747 
Q 959 1106 1268 751 
Q 1578 397 2138 397 
Q 2388 397 2633 464 
Q 2878 531 3122 666 
L 3122 134 
Q 2881 22 2623 -34 
Q 2366 -91 2075 -91 
Q 1284 -91 818 406 
Q 353 903 353 1747 
Q 353 2603 823 3093 
Q 1294 3584 2113 3584 
Q 2378 3584 2631 3529 
Q 2884 3475 3122 3366 
z
" transform="scale(0.015625)"/>
      <path id="DejaVuSans-64" d="M 2906 2969 
L 2906 4863 
L 3481 4863 
L 3481 0 
L 2906 0 
L 2906 525 
Q 2725 213 2448 61 
Q 2172 -91 1784 -91 
Q 1150 -91 751 415 
Q 353 922 353 1747 
Q 353 2572 751 3078 
Q 1150 3584 1784 3584 
Q 2172 3584 2448 3432 
Q 2725 3281 2906 2969 
z
M 947 1747 
Q 947 1113 1208 752 
Q 1469 391 1925 391 
Q 2381 391 2643 752 
Q 2906 1113 2906 1747 
Q 2906 2381 2643 2742 
Q 2381 3103 1925 3103 
Q 1469 3103 1208 2742 
Q 947 2381 947 1747 
z
" transform="scale(0.015625)"/>
     </defs>
     <use xlink:href="#DejaVuSans-65"/>
     <use xlink:href="#DejaVuSans-6e" x="61.523438"/>
     <use xlink:href="#DejaVuSans-63" x="124.902344"/>
     <use xlink:href="#DejaVuSans-6c" x="179.882812"/>
     <use xlink:href="#DejaVuSans-6f" x="207.666016"/>
     <use xlink:href="#DejaVuSans-73" x="268.847656"/>
     <use xlink:href="#DejaVuSans-65" x="320.947266"/>
     <use xlink:href="#DejaVuSans-64" x="382.470703"/>
     <use xlink:href="#DejaVuSans-20" x="445.947266"/>
     <use xlink:href="#DejaVuSans-61" x="477.734375"/>
     <use xlink:href="#DejaVuSans-72" x="539.013672"/>
     <use xlink:href="#DejaVuSans-65" x="577.876953"/>
     <use xlink:href="#DejaVuSans-61" x="639.400391"/>
    </g>
    <!-- $=W_{net}=13.2$ kJ -->
    <g style="fill: #404040" transform="translate(148.30025 145.295773) scale(0.1 -0.1)">
     <defs>
      <path id="DejaVuSans-3d" d="M 678 2906 
L 4684 2906 
L 4684 2381 
L 678 2381 
L 678 2906 
z
M 678 1631 
L 4684 1631 
L 4684 1100 
L 678 1100 
L 678 1631 
z
" transform="scale(0.015625)"/>
      <path id="DejaVuSans-Oblique-57" d="M 616 4666 
L 1228 4666 
L 1453 697 
L 3213 4666 
L 3916 4666 
L 4147 697 
L 5888 4666 
L 6528 4666 
L 4453 0 
L 3659 0 
L 3444 3891 
L 1697 0 
L 903 0 
L 616 4666 
z
" transform="scale(0.015625)"/>
      <path id="DejaVuSans-Oblique-6e" d="M 3566 2113 
L 3156 0 
L 2578 0 
L 2988 2091 
Q 3016 2238 3031 2350 
Q 3047 2463 3047 2528 
Q 3047 2791 2881 2937 
Q 2716 3084 2419 3084 
Q 1956 3084 1622 2776 
Q 1288 2469 1184 1941 
L 800 0 
L 225 0 
L 903 3500 
L 1478 3500 
L 1363 2950 
Q 1603 3253 1940 3418 
Q 2278 3584 2650 3584 
Q 3113 3584 3367 3334 
Q 3622 3084 3622 2631 
Q 3622 2519 3608 2391 
Q 3594 2263 3566 2113 
z
" transform="scale(0.015625)"/>
      <path id="DejaVuSans-Oblique-65" d="M 3078 2063 
Q 3088 2113 3092 2166 
Q 3097 2219 3097 2272 
Q 3097 2653 2873 2875 
Q 2650 3097 2266 3097 
Q 1838 3097 1509 2826 
Q 1181 2556 1013 2059 
L 3078 2063 
z
M 3578 1613 
L 903 1613 
Q 884 1494 878 1425 
Q 872 1356 872 1306 
Q 872 872 1139 634 
Q 1406 397 1894 397 
Q 2269 397 2603 481 
Q 2938 566 3225 728 
L 3116 159 
Q 2806 34 2476 -28 
Q 2147 -91 1806 -91 
Q 1078 -91 686 257 
Q 294 606 294 1247 
Q 294 1794 489 2264 
Q 684 2734 1063 3103 
Q 1306 3334 1642 3459 
Q 1978 3584 2356 3584 
Q 2950 3584 3301 3228 
Q 3653 2872 3653 2272 
Q 3653 2128 3634 1964 
Q 3616 1800 3578 1613 
z
" transform="scale(0.015625)"/>
      <path id="DejaVuSans-Oblique-74" d="M 2706 3500 
L 2619 3053 
L 1472 3053 
L 1100 1153 
Q 1081 1047 1072 975 
Q 1063 903 1063 863 
Q 1063 663 1183 572 
Q 1303 481 1569 481 
L 2150 481 
L 2053 0 
L 1503 0 
Q 991 0 739 200 
Q 488 400 488 806 
Q 488 878 497 964 
Q 506 1050 525 1153 
L 897 3053 
L 409 3053 
L 500 3500 
L 978 3500 
L 1172 4494 
L 1747 4494 
L 1556 3500 
L 2706 3500 
z
" transform="scale(0.015625)"/>
      <path id="DejaVuSans-4a" d="M 628 4666 
L 1259 4666 
L 1259 325 
Q 1259 -519 939 -900 
Q 619 -1281 -91 -1281 
L -331 -1281 
L -331 -750 
L -134 -750 
Q 284 -750 456 -515 
Q 628 -281 628 325 
L 628 4666 
z
" transform="scale(0.015625)"/>
     </defs>
     <use xlink:href="#DejaVuSans-3d" transform="translate(19.482422 0.015625)"/>
     <use xlink:href="#DejaVuSans-Oblique-57" transform="translate(122.753906 0.015625)"/>
     <use xlink:href="#DejaVuSans-Oblique-6e" transform="translate(221.630859 -16.390625) scale(0.7)"/>
     <use xlink:href="#DejaVuSans-Oblique-65" transform="translate(265.996094 -16.390625) scale(0.7)"/>
     <use xlink:href="#DejaVuSans-Oblique-74" transform="translate(309.0625 -16.390625) scale(0.7)"/>
     <use xlink:href="#DejaVuSans-3d" transform="translate(358.725586 0.015625)"/>
     <use xlink:href="#DejaVuSans-31" transform="translate(461.99707 0.015625)"/>
     <use xlink:href="#DejaVuSans-33" transform="translate(525.620117 0.015625)"/>
     <use xlink:href="#DejaVuSans-2e" transform="translate(589.243164 0.015625)"/>
     <use xlink:href="#DejaVuSans-32" transform="translate(615.530273 0.015625)"/>
     <use xlink:href="#DejaVuSans-20" transform="translate(679.15332 0.015625)"/>
     <use xlink:href="#DejaVuSans-6b" transform="translate(710.94043 0.015625)"/>
     <use xlink:href="#DejaVuSans-4a" transform="translate(768.850586 0.015625)"/>
    </g>
   </g>
   <g id="patch_8">
    <path d="M 167.068189 118.622366 
Q 208.431068 133.597027 248.111929 147.962743 
" style="fill: none; stroke: #3b3b6d; stroke-width: 1.6; stroke-linecap: round"/>
    <path d="M 244.723611 144.39633 
L 248.111929 147.962743 
L 243.225808 148.53355 
" style="fill: none; stroke: #3b3b6d; stroke-width: 1.6; stroke-linecap: round"/>
   </g>
   <g id="patch_9">
    <path d="M 249.720406 182.687813 
Q 208.429774 173.71871 168.887231 165.129325 
" style="fill: none; stroke: #b5651d; stroke-width: 1.6; stroke-linecap: round"/>
    <path d="M 172.719969 168.213172 
L 168.887231 165.129325 
L 173.653952 163.913442 
" style="fill: none; stroke: #b5651d; stroke-width: 1.6; stroke-linecap: round"/>
   </g>
   <g id="text_16">
    <!-- A closed cycle: the enclosed area is the net work -->
    <g transform="translate(61.095719 17.229938) scale(0.132 -0.132)">
     <defs>
      <path id="DejaVuSans-41" d="M 2188 4044 
L 1331 1722 
L 3047 1722 
L 2188 4044 
z
M 1831 4666 
L 2547 4666 
L 4325 0 
L 3669 0 
L 3244 1197 
L 1141 1197 
L 716 0 
L 50 0 
L 1831 4666 
z
" transform="scale(0.015625)"/>
      <path id="DejaVuSans-79" d="M 2059 -325 
Q 1816 -950 1584 -1140 
Q 1353 -1331 966 -1331 
L 506 -1331 
L 506 -850 
L 844 -850 
Q 1081 -850 1212 -737 
Q 1344 -625 1503 -206 
L 1606 56 
L 191 3500 
L 800 3500 
L 1894 763 
L 2988 3500 
L 3597 3500 
L 2059 -325 
z
" transform="scale(0.015625)"/>
      <path id="DejaVuSans-3a" d="M 750 794 
L 1409 794 
L 1409 0 
L 750 0 
L 750 794 
z
M 750 3309 
L 1409 3309 
L 1409 2516 
L 750 2516 
L 750 3309 
z
" transform="scale(0.015625)"/>
      <path id="DejaVuSans-74" d="M 1172 4494 
L 1172 3500 
L 2356 3500 
L 2356 3053 
L 1172 3053 
L 1172 1153 
Q 1172 725 1289 603 
Q 1406 481 1766 481 
L 2356 481 
L 2356 0 
L 1766 0 
Q 1100 0 847 248 
Q 594 497 594 1153 
L 594 3053 
L 172 3053 
L 172 3500 
L 594 3500 
L 594 4494 
L 1172 4494 
z
" transform="scale(0.015625)"/>
      <path id="DejaVuSans-68" d="M 3513 2113 
L 3513 0 
L 2938 0 
L 2938 2094 
Q 2938 2591 2744 2837 
Q 2550 3084 2163 3084 
Q 1697 3084 1428 2787 
Q 1159 2491 1159 1978 
L 1159 0 
L 581 0 
L 581 4863 
L 1159 4863 
L 1159 2956 
Q 1366 3272 1645 3428 
Q 1925 3584 2291 3584 
Q 2894 3584 3203 3211 
Q 3513 2838 3513 2113 
z
" transform="scale(0.015625)"/>
      <path id="DejaVuSans-69" d="M 603 3500 
L 1178 3500 
L 1178 0 
L 603 0 
L 603 3500 
z
M 603 4863 
L 1178 4863 
L 1178 4134 
L 603 4134 
L 603 4863 
z
" transform="scale(0.015625)"/>
      <path id="DejaVuSans-77" d="M 269 3500 
L 844 3500 
L 1563 769 
L 2278 3500 
L 2956 3500 
L 3675 769 
L 4391 3500 
L 4966 3500 
L 4050 0 
L 3372 0 
L 2619 2869 
L 1863 0 
L 1184 0 
L 269 3500 
z
" transform="scale(0.015625)"/>
     </defs>
     <use xlink:href="#DejaVuSans-41"/>
     <use xlink:href="#DejaVuSans-20" x="68.408203"/>
     <use xlink:href="#DejaVuSans-63" x="100.195312"/>
     <use xlink:href="#DejaVuSans-6c" x="155.175781"/>
     <use xlink:href="#DejaVuSans-6f" x="182.958984"/>
     <use xlink:href="#DejaVuSans-73" x="244.140625"/>
     <use xlink:href="#DejaVuSans-65" x="296.240234"/>
     <use xlink:href="#DejaVuSans-64" x="357.763672"/>
     <use xlink:href="#DejaVuSans-20" x="421.240234"/>
     <use xlink:href="#DejaVuSans-63" x="453.027344"/>
     <use xlink:href="#DejaVuSans-79" x="508.007812"/>
     <use xlink:href="#DejaVuSans-63" x="567.1875"/>
     <use xlink:href="#DejaVuSans-6c" x="622.167969"/>
     <use xlink:href="#DejaVuSans-65" x="649.951172"/>
     <use xlink:href="#DejaVuSans-3a" x="711.474609"/>
     <use xlink:href="#DejaVuSans-20" x="745.166016"/>
     <use xlink:href="#DejaVuSans-74" x="776.953125"/>
     <use xlink:href="#DejaVuSans-68" x="816.162109"/>
     <use xlink:href="#DejaVuSans-65" x="879.541016"/>
     <use xlink:href="#DejaVuSans-20" x="941.064453"/>
     <use xlink:href="#DejaVuSans-65" x="972.851562"/>
     <use xlink:href="#DejaVuSans-6e" x="1034.375"/>
     <use xlink:href="#DejaVuSans-63" x="1097.753906"/>
     <use xlink:href="#DejaVuSans-6c" x="1152.734375"/>
     <use xlink:href="#DejaVuSans-6f" x="1180.517578"/>
     <use xlink:href="#DejaVuSans-73" x="1241.699219"/>
     <use xlink:href="#DejaVuSans-65" x="1293.798828"/>
     <use xlink:href="#DejaVuSans-64" x="1355.322266"/>
     <use xlink:href="#DejaVuSans-20" x="1418.798828"/>
     <use xlink:href="#DejaVuSans-61" x="1450.585938"/>
     <use xlink:href="#DejaVuSans-72" x="1511.865234"/>
     <use xlink:href="#DejaVuSans-65" x="1550.728516"/>
     <use xlink:href="#DejaVuSans-61" x="1612.251953"/>
     <use xlink:href="#DejaVuSans-20" x="1673.53125"/>
     <use xlink:href="#DejaVuSans-69" x="1705.318359"/>
     <use xlink:href="#DejaVuSans-73" x="1733.101562"/>
     <use xlink:href="#DejaVuSans-20" x="1785.201172"/>
     <use xlink:href="#DejaVuSans-74" x="1816.988281"/>
     <use xlink:href="#DejaVuSans-68" x="1856.197266"/>
     <use xlink:href="#DejaVuSans-65" x="1919.576172"/>
     <use xlink:href="#DejaVuSans-20" x="1981.099609"/>
     <use xlink:href="#DejaVuSans-6e" x="2012.886719"/>
     <use xlink:href="#DejaVuSans-65" x="2076.265625"/>
     <use xlink:href="#DejaVuSans-74" x="2137.789062"/>
     <use xlink:href="#DejaVuSans-20" x="2176.998047"/>
     <use xlink:href="#DejaVuSans-77" x="2208.785156"/>
     <use xlink:href="#DejaVuSans-6f" x="2290.572266"/>
     <use xlink:href="#DejaVuSans-72" x="2351.753906"/>
     <use xlink:href="#DejaVuSans-6b" x="2392.867188"/>
    </g>
   </g>
   <g id="legend_1">
    <g id="line2d_29">
     <path d="M 237.78625 35.019938 
L 246.78625 35.019938 
L 255.78625 35.019938 
" style="fill: none; stroke: #3b3b6d; stroke-width: 2.2; stroke-linecap: square"/>
    </g>
    <g id="text_17">
     <!-- expansion: $W=+33.0$ kJ -->
     <g transform="translate(262.98625 38.169938) scale(0.09 -0.09)">
      <defs>
       <path id="DejaVuSans-78" d="M 3513 3500 
L 2247 1797 
L 3578 0 
L 2900 0 
L 1881 1375 
L 863 0 
L 184 0 
L 1544 1831 
L 300 3500 
L 978 3500 
L 1906 2253 
L 2834 3500 
L 3513 3500 
z
" transform="scale(0.015625)"/>
       <path id="DejaVuSans-2b" d="M 2944 4013 
L 2944 2272 
L 4684 2272 
L 4684 1741 
L 2944 1741 
L 2944 0 
L 2419 0 
L 2419 1741 
L 678 1741 
L 678 2272 
L 2419 2272 
L 2419 4013 
L 2944 4013 
z
" transform="scale(0.015625)"/>
      </defs>
      <use xlink:href="#DejaVuSans-65" transform="translate(0 0.015625)"/>
      <use xlink:href="#DejaVuSans-78" transform="translate(61.523438 0.015625)"/>
      <use xlink:href="#DejaVuSans-70" transform="translate(120.703125 0.015625)"/>
      <use xlink:href="#DejaVuSans-61" transform="translate(184.179688 0.015625)"/>
      <use xlink:href="#DejaVuSans-6e" transform="translate(245.458984 0.015625)"/>
      <use xlink:href="#DejaVuSans-73" transform="translate(308.837891 0.015625)"/>
      <use xlink:href="#DejaVuSans-69" transform="translate(360.9375 0.015625)"/>
      <use xlink:href="#DejaVuSans-6f" transform="translate(388.720703 0.015625)"/>
      <use xlink:href="#DejaVuSans-6e" transform="translate(449.902344 0.015625)"/>
      <use xlink:href="#DejaVuSans-3a" transform="translate(513.28125 0.015625)"/>
      <use xlink:href="#DejaVuSans-20" transform="translate(546.972656 0.015625)"/>
      <use xlink:href="#DejaVuSans-Oblique-57" transform="translate(578.759766 0.015625)"/>
      <use xlink:href="#DejaVuSans-3d" transform="translate(697.119141 0.015625)"/>
      <use xlink:href="#DejaVuSans-2b" transform="translate(819.873047 0.015625)"/>
      <use xlink:href="#DejaVuSans-33" transform="translate(923.144531 0.015625)"/>
      <use xlink:href="#DejaVuSans-33" transform="translate(986.767578 0.015625)"/>
      <use xlink:href="#DejaVuSans-2e" transform="translate(1050.390625 0.015625)"/>
      <use xlink:href="#DejaVuSans-30" transform="translate(1082.177734 0.015625)"/>
      <use xlink:href="#DejaVuSans-20" transform="translate(1145.800781 0.015625)"/>
      <use xlink:href="#DejaVuSans-6b" transform="translate(1177.587891 0.015625)"/>
      <use xlink:href="#DejaVuSans-4a" transform="translate(1235.498047 0.015625)"/>
     </g>
    </g>
    <g id="line2d_30">
     <path d="M 237.78625 48.249937 
L 246.78625 48.249937 
L 255.78625 48.249937 
" style="fill: none; stroke-dasharray: 8.14,3.52; stroke-dashoffset: 0; stroke: #b5651d; stroke-width: 2.2"/>
    </g>
    <g id="text_18">
     <!-- compression: $W=-19.8$ kJ -->
     <g transform="translate(262.98625 51.399937) scale(0.09 -0.09)">
      <defs>
       <path id="DejaVuSans-2212" d="M 678 2272 
L 4684 2272 
L 4684 1741 
L 678 1741 
L 678 2272 
z
" transform="scale(0.015625)"/>
       <path id="DejaVuSans-39" d="M 703 97 
L 703 672 
Q 941 559 1184 500 
Q 1428 441 1663 441 
Q 2288 441 2617 861 
Q 2947 1281 2994 2138 
Q 2813 1869 2534 1725 
Q 2256 1581 1919 1581 
Q 1219 1581 811 2004 
Q 403 2428 403 3163 
Q 403 3881 828 4315 
Q 1253 4750 1959 4750 
Q 2769 4750 3195 4129 
Q 3622 3509 3622 2328 
Q 3622 1225 3098 567 
Q 2575 -91 1691 -91 
Q 1453 -91 1209 -44 
Q 966 3 703 97 
z
M 1959 2075 
Q 2384 2075 2632 2365 
Q 2881 2656 2881 3163 
Q 2881 3666 2632 3958 
Q 2384 4250 1959 4250 
Q 1534 4250 1286 3958 
Q 1038 3666 1038 3163 
Q 1038 2656 1286 2365 
Q 1534 2075 1959 2075 
z
" transform="scale(0.015625)"/>
       <path id="DejaVuSans-38" d="M 2034 2216 
Q 1584 2216 1326 1975 
Q 1069 1734 1069 1313 
Q 1069 891 1326 650 
Q 1584 409 2034 409 
Q 2484 409 2743 651 
Q 3003 894 3003 1313 
Q 3003 1734 2745 1975 
Q 2488 2216 2034 2216 
z
M 1403 2484 
Q 997 2584 770 2862 
Q 544 3141 544 3541 
Q 544 4100 942 4425 
Q 1341 4750 2034 4750 
Q 2731 4750 3128 4425 
Q 3525 4100 3525 3541 
Q 3525 3141 3298 2862 
Q 3072 2584 2669 2484 
Q 3125 2378 3379 2068 
Q 3634 1759 3634 1313 
Q 3634 634 3220 271 
Q 2806 -91 2034 -91 
Q 1263 -91 848 271 
Q 434 634 434 1313 
Q 434 1759 690 2068 
Q 947 2378 1403 2484 
z
M 1172 3481 
Q 1172 3119 1398 2916 
Q 1625 2713 2034 2713 
Q 2441 2713 2670 2916 
Q 2900 3119 2900 3481 
Q 2900 3844 2670 4047 
Q 2441 4250 2034 4250 
Q 1625 4250 1398 4047 
Q 1172 3844 1172 3481 
z
" transform="scale(0.015625)"/>
      </defs>
      <use xlink:href="#DejaVuSans-63" transform="translate(0 0.015625)"/>
      <use xlink:href="#DejaVuSans-6f" transform="translate(54.980469 0.015625)"/>
      <use xlink:href="#DejaVuSans-6d" transform="translate(116.162109 0.015625)"/>
      <use xlink:href="#DejaVuSans-70" transform="translate(213.574219 0.015625)"/>
      <use xlink:href="#DejaVuSans-72" transform="translate(277.050781 0.015625)"/>
      <use xlink:href="#DejaVuSans-65" transform="translate(318.164062 0.015625)"/>
      <use xlink:href="#DejaVuSans-73" transform="translate(379.6875 0.015625)"/>
      <use xlink:href="#DejaVuSans-73" transform="translate(431.787109 0.015625)"/>
      <use xlink:href="#DejaVuSans-69" transform="translate(483.886719 0.015625)"/>
      <use xlink:href="#DejaVuSans-6f" transform="translate(511.669922 0.015625)"/>
      <use xlink:href="#DejaVuSans-6e" transform="translate(572.851562 0.015625)"/>
      <use xlink:href="#DejaVuSans-3a" transform="translate(636.230469 0.015625)"/>
      <use xlink:href="#DejaVuSans-20" transform="translate(669.921875 0.015625)"/>
      <use xlink:href="#DejaVuSans-Oblique-57" transform="translate(701.708984 0.015625)"/>
      <use xlink:href="#DejaVuSans-3d" transform="translate(820.068359 0.015625)"/>
      <use xlink:href="#DejaVuSans-2212" transform="translate(942.822266 0.015625)"/>
      <use xlink:href="#DejaVuSans-31" transform="translate(1046.09375 0.015625)"/>
      <use xlink:href="#DejaVuSans-39" transform="translate(1109.716797 0.015625)"/>
      <use xlink:href="#DejaVuSans-2e" transform="translate(1173.339844 0.015625)"/>
      <use xlink:href="#DejaVuSans-38" transform="translate(1202.501953 0.015625)"/>
      <use xlink:href="#DejaVuSans-20" transform="translate(1266.125 0.015625)"/>
      <use xlink:href="#DejaVuSans-6b" transform="translate(1297.912109 0.015625)"/>
      <use xlink:href="#DejaVuSans-4a" transform="translate(1355.822266 0.015625)"/>
     </g>
    </g>
   </g>
  </g>
 </g>
 <defs>
  <clipPath id="p955071dc8f">
   <rect x="49.86625" y="23.229938" width="345.96" height="210.672"/>
  </clipPath>
 </defs>
</svg>
