<?xml version="1.0" encoding="utf-8" standalone="no"?>
<!DOCTYPE svg PUBLIC "-//W3C//DTD SVG 1.1//EN"
  "http://www.w3.org/Graphics/SVG/1.1/DTD/svg11.dtd">
<svg xmlns:xlink="http://www.w3.org/1999/xlink" width="398.222344pt" height="256.763875pt" viewBox="0 0 398.222344 256.763875" xmlns="http://www.w3.org/2000/svg" version="1.1">
 <metadata>
  <rdf:RDF xmlns:dc="http://purl.org/dc/elements/1.1/" xmlns:cc="http://creativecommons.org/ns#" xmlns:rdf="http://www.w3.org/1999/02/22-rdf-syntax-ns#">
   <cc:Work>
    <dc:type rdf:resource="http://purl.org/dc/dcmitype/StillImage"/>
    <dc:date>2026-06-27T11:44:38.994224</dc:date>
    <dc:format>image/svg+xml</dc:format>
    <dc:creator>
     <cc:Agent>
      <dc:title>Matplotlib v3.10.3, https://matplotlib.org/</dc:title>
     </cc:Agent>
    </dc:creator>
   </cc:Work>
  </rdf:RDF>
 </metadata>
 <defs>
  <style type="text/css">*{stroke-linejoin: round; stroke-linecap: butt}</style>
 </defs>
 <g id="figure_1">
  <g id="patch_1">
   <path d="M 0 256.763875 
L 398.222344 256.763875 
L 398.222344 -0 
L 0 -0 
z
" style="fill: #ffffff"/>
  </g>
  <g id="axes_1">
   <g id="patch_2">
    <path d="M 45.062344 217.272 
L 391.022344 217.272 
L 391.022344 23.232 
L 45.062344 23.232 
z
" style="fill: #ffffff"/>
   </g>
   <g id="PathCollection_1">
    <path d="M 60.787798 214.12524 
C 62.292359 214.12524 63.7355 213.527472 64.799385 212.463587 
C 65.86327 211.399702 66.461039 209.956561 66.461039 208.452 
C 66.461039 206.947439 65.86327 205.504298 64.799385 204.440413 
C 63.7355 203.376528 62.292359 202.77876 60.787798 202.77876 
C 59.283237 202.77876 57.840097 203.376528 56.776212 204.440413 
C 55.712326 205.504298 55.114558 206.947439 55.114558 208.452 
C 55.114558 209.956561 55.712326 211.399702 56.776212 212.463587 
C 57.840097 213.527472 59.283237 214.12524 60.787798 214.12524 
z
" clip-path="url(#p1a00155a19)" style="fill: #3b3b6d; fill-opacity: 0.3"/>
    <path d="M 60.787798 192.939486 
C 62.52156 192.939486 64.184545 192.250655 65.410499 191.024701 
C 66.636454 189.798746 67.325284 188.135762 67.325284 186.402 
C 67.325284 184.668238 66.636454 183.005254 65.410499 181.779299 
C 64.184545 180.553345 62.52156 179.864514 60.787798 179.864514 
C 59.054037 179.864514 57.391052 180.553345 56.165097 181.779299 
C 54.939143 183.005254 54.250312 184.668238 54.250312 186.402 
C 54.250312 188.135762 54.939143 189.798746 56.165097 191.024701 
C 57.391052 192.250655 59.054037 192.939486 60.787798 192.939486 
z
" clip-path="url(#p1a00155a19)" style="fill: #3b3b6d; fill-opacity: 0.3"/>
    <path d="M 60.787798 170.504045 
C 62.41934 170.504045 63.984277 169.855827 65.137951 168.702153 
C 66.291625 167.548479 66.939844 165.983541 66.939844 164.352 
C 66.939844 162.720459 66.291625 161.155521 65.137951 160.001847 
C 63.984277 158.848173 62.41934 158.199955 60.787798 158.199955 
C 59.156257 158.199955 57.591319 158.848173 56.437645 160.001847 
C 55.283971 161.155521 54.635753 162.720459 54.635753 164.352 
C 54.635753 165.983541 55.283971 167.548479 56.437645 168.702153 
C 57.591319 169.855827 59.156257 170.504045 60.787798 170.504045 
z
" clip-path="url(#p1a00155a19)" style="fill: #3b3b6d; fill-opacity: 0.3"/>
    <path d="M 60.787798 147.029782 
C 62.041621 147.029782 63.244259 146.531633 64.130845 145.645047 
C 65.017431 144.75846 65.51558 143.555822 65.51558 142.302 
C 65.51558 141.048178 65.017431 139.84554 64.130845 138.958953 
C 63.244259 138.072367 62.041621 137.574218 60.787798 137.574218 
C 59.533976 137.574218 58.331338 138.072367 57.444752 138.958953 
C 56.558165 139.84554 56.060016 141.048178 56.060016 142.302 
C 56.060016 143.555822 56.558165 144.75846 57.444752 145.645047 
C 58.331338 146.531633 59.533976 147.029782 60.787798 147.029782 
z
" clip-path="url(#p1a00155a19)" style="fill: #3b3b6d; fill-opacity: 0.3"/>
    <path d="M 60.787798 123.219047 
C 61.574668 123.219047 62.329416 122.906421 62.885818 122.350019 
C 63.442219 121.793618 63.754846 121.03887 63.754846 120.252 
C 63.754846 119.46513 63.442219 118.710382 62.885818 118.153981 
C 62.329416 117.597579 61.574668 117.284953 60.787798 117.284953 
C 60.000928 117.284953 59.24618 117.597579 58.689779 118.153981 
C 58.133378 118.710382 57.820751 119.46513 57.820751 120.252 
C 57.820751 121.03887 58.133378 121.793618 58.689779 122.350019 
C 59.24618 122.906421 60.000928 123.219047 60.787798 123.219047 
z
" clip-path="url(#p1a00155a19)" style="fill: #3b3b6d; fill-opacity: 0.3"/>
    <path d="M 60.787798 99.72262 
C 61.191071 99.72262 61.577882 99.562398 61.863039 99.277241 
C 62.148196 98.992084 62.308418 98.605273 62.308418 98.202 
C 62.308418 97.798727 62.148196 97.411916 61.863039 97.126759 
C 61.577882 96.841602 61.191071 96.68138 60.787798 96.68138 
C 60.384525 96.68138 59.997715 96.841602 59.712558 97.126759 
C 59.4274 97.411916 59.267178 97.798727 59.267178 98.202 
C 59.267178 98.605273 59.4274 98.992084 59.712558 99.277241 
C 59.997715 99.562398 60.384525 99.72262 60.787798 99.72262 
z
" clip-path="url(#p1a00155a19)" style="fill: #3b3b6d; fill-opacity: 0.3"/>
    <path d="M 60.787798 76.788423 
C 60.95658 76.788423 61.118471 76.721366 61.237817 76.602019 
C 61.357164 76.482673 61.424222 76.320781 61.424222 76.152 
C 61.424222 75.983219 61.357164 75.821327 61.237817 75.701981 
C 61.118471 75.582634 60.95658 75.515577 60.787798 75.515577 
C 60.619017 75.515577 60.457126 75.582634 60.337779 75.701981 
C 60.218433 75.821327 60.151375 75.983219 60.151375 76.152 
C 60.151375 76.320781 60.218433 76.482673 60.337779 76.602019 
C 60.457126 76.721366 60.619017 76.788423 60.787798 76.788423 
z
" clip-path="url(#p1a00155a19)" style="fill: #3b3b6d; fill-opacity: 0.3"/>
    <path d="M 60.787798 54.319521 
C 60.845485 54.319521 60.900818 54.296601 60.941609 54.25581 
C 60.9824 54.215019 61.005319 54.159687 61.005319 54.102 
C 61.005319 54.044313 60.9824 53.988981 60.941609 53.94819 
C 60.900818 53.907399 60.845485 53.884479 60.787798 53.884479 
C 60.730111 53.884479 60.674779 53.907399 60.633988 53.94819 
C 60.593197 53.988981 60.570278 54.044313 60.570278 54.102 
C 60.570278 54.159687 60.593197 54.215019 60.633988 54.25581 
C 60.674779 54.296601 60.730111 54.319521 60.787798 54.319521 
z
" clip-path="url(#p1a00155a19)" style="fill: #3b3b6d; fill-opacity: 0.3"/>
    <path d="M 60.787798 32.112713 
C 60.8039 32.112713 60.819344 32.106316 60.830729 32.094931 
C 60.842115 32.083545 60.848512 32.068101 60.848512 32.052 
C 60.848512 32.035899 60.842115 32.020455 60.830729 32.009069 
C 60.819344 31.997684 60.8039 31.991287 60.787798 31.991287 
C 60.771697 31.991287 60.756253 31.997684 60.744867 32.009069 
C 60.733482 32.020455 60.727085 32.035899 60.727085 32.052 
C 60.727085 32.068101 60.733482 32.083545 60.744867 32.094931 
C 60.756253 32.106316 60.771697 32.112713 60.787798 32.112713 
z
" clip-path="url(#p1a00155a19)" style="fill: #3b3b6d; fill-opacity: 0.3"/>
    <path d="M 100.101435 214.989486 
C 101.835196 214.989486 103.498181 214.300655 104.724135 213.074701 
C 105.95009 211.848746 106.638921 210.185762 106.638921 208.452 
C 106.638921 206.718238 105.95009 205.055254 104.724135 203.829299 
C 103.498181 202.603345 101.835196 201.914514 100.101435 201.914514 
C 98.367673 201.914514 96.704688 202.603345 95.478734 203.829299 
C 94.252779 205.055254 93.563948 206.718238 93.563948 208.452 
C 93.563948 210.185762 94.252779 211.848746 95.478734 213.074701 
C 96.704688 214.300655 98.367673 214.989486 100.101435 214.989486 
z
" clip-path="url(#p1a00155a19)" style="fill: #3b3b6d; fill-opacity: 0.3"/>
    <path d="M 100.101435 195.083004 
C 102.403664 195.083004 104.61191 194.168319 106.239832 192.540397 
C 107.867754 190.912475 108.782439 188.704229 108.782439 186.402 
C 108.782439 184.099771 107.867754 181.891525 106.239832 180.263603 
C 104.61191 178.635681 102.403664 177.720996 100.101435 177.720996 
C 97.799205 177.720996 95.59096 178.635681 93.963038 180.263603 
C 92.335116 181.891525 91.42043 184.099771 91.42043 186.402 
C 91.42043 188.704229 92.335116 190.912475 93.963038 192.540397 
C 95.59096 194.168319 97.799205 195.083004 100.101435 195.083004 
z
" clip-path="url(#p1a00155a19)" style="fill: #3b3b6d; fill-opacity: 0.3"/>
    <path d="M 100.101435 173.765656 
C 102.597965 173.765656 104.992581 172.773774 106.757894 171.00846 
C 108.523208 169.243146 109.51509 166.848531 109.51509 164.352 
C 109.51509 161.855469 108.523208 159.460854 106.757894 157.69554 
C 104.992581 155.930226 102.597965 154.938344 100.101435 154.938344 
C 97.604904 154.938344 95.210289 155.930226 93.444975 157.69554 
C 91.679661 159.460854 90.687779 161.855469 90.687779 164.352 
C 90.687779 166.848531 91.679661 169.243146 93.444975 171.00846 
C 95.210289 172.773774 97.604904 173.765656 100.101435 173.765656 
z
" clip-path="url(#p1a00155a19)" style="fill: #3b3b6d; fill-opacity: 0.3"/>
    <path d="M 100.101435 150.638347 
C 102.31226 150.638347 104.432833 149.759977 105.996122 148.196688 
C 107.559412 146.633398 108.437782 144.512825 108.437782 142.302 
C 108.437782 140.091175 107.559412 137.970602 105.996122 136.407312 
C 104.432833 134.844023 102.31226 133.965653 100.101435 133.965653 
C 97.89061 133.965653 95.770036 134.844023 94.206747 136.407312 
C 92.643457 137.970602 91.765087 140.091175 91.765087 142.302 
C 91.765087 144.512825 92.643457 146.633398 94.206747 148.196688 
C 95.770036 149.759977 97.89061 150.638347 100.101435 150.638347 
z
" clip-path="url(#p1a00155a19)" style="fill: #3b3b6d; fill-opacity: 0.3"/>
    <path d="M 100.101435 126.280683 
C 101.70026 126.280683 103.233817 125.645463 104.364357 124.514923 
C 105.494898 123.384382 106.130118 121.850825 106.130118 120.252 
C 106.130118 118.653175 105.494898 117.119618 104.364357 115.989077 
C 103.233817 114.858537 101.70026 114.223317 100.101435 114.223317 
C 98.502609 114.223317 96.969052 114.858537 95.838512 115.989077 
C 94.707972 117.119618 94.072752 118.653175 94.072752 120.252 
C 94.072752 121.850825 94.707972 123.384382 95.838512 124.514923 
C 96.969052 125.645463 98.502609 126.280683 100.101435 126.280683 
z
" clip-path="url(#p1a00155a19)" style="fill: #3b3b6d; fill-opacity: 0.3"/>
    <path d="M 100.101435 101.762395 
C 101.045663 101.762395 101.951344 101.38725 102.619014 100.71958 
C 103.286684 100.05191 103.66183 99.146228 103.66183 98.202 
C 103.66183 97.257772 103.286684 96.35209 102.619014 95.68442 
C 101.951344 95.01675 101.045663 94.641605 100.101435 94.641605 
C 99.157207 94.641605 98.251525 95.01675 97.583855 95.68442 
C 96.916185 96.35209 96.541039 97.257772 96.541039 98.202 
C 96.541039 99.146228 96.916185 100.05191 97.583855 100.71958 
C 98.251525 101.38725 99.157207 101.762395 100.101435 101.762395 
z
" clip-path="url(#p1a00155a19)" style="fill: #3b3b6d; fill-opacity: 0.3"/>
    <path d="M 100.101435 77.86913 
C 100.556823 77.86913 100.993621 77.688202 101.315629 77.366194 
C 101.637637 77.044186 101.818565 76.607388 101.818565 76.152 
C 101.818565 75.696612 101.637637 75.259814 101.315629 74.937806 
C 100.993621 74.615798 100.556823 74.43487 100.101435 74.43487 
C 99.646046 74.43487 99.209248 74.615798 98.88724 74.937806 
C 98.565232 75.259814 98.384305 75.696612 98.384305 76.152 
C 98.384305 76.607388 98.565232 77.044186 98.88724 77.366194 
C 99.209248 77.688202 99.646046 77.86913 100.101435 77.86913 
z
" clip-path="url(#p1a00155a19)" style="fill: #3b3b6d; fill-opacity: 0.3"/>
    <path d="M 100.101435 54.778297 
C 100.280791 54.778297 100.452825 54.707038 100.579649 54.580214 
C 100.706472 54.45339 100.777731 54.281356 100.777731 54.102 
C 100.777731 53.922644 100.706472 53.75061 100.579649 53.623786 
C 100.452825 53.496962 100.280791 53.425703 100.101435 53.425703 
C 99.922079 53.425703 99.750044 53.496962 99.623221 53.623786 
C 99.496397 53.75061 99.425138 53.922644 99.425138 54.102 
C 99.425138 54.281356 99.496397 54.45339 99.623221 54.580214 
C 99.750044 54.707038 99.922079 54.778297 100.101435 54.778297 
z
" clip-path="url(#p1a00155a19)" style="fill: #3b3b6d; fill-opacity: 0.3"/>
    <path d="M 100.101435 32.269521 
C 100.159122 32.269521 100.214454 32.246601 100.255245 32.20581 
C 100.296036 32.165019 100.318955 32.109687 100.318955 32.052 
C 100.318955 31.994313 100.296036 31.938981 100.255245 31.89819 
C 100.214454 31.857399 100.159122 31.834479 100.101435 31.834479 
C 100.043748 31.834479 99.988415 31.857399 99.947624 31.89819 
C 99.906833 31.938981 99.883914 31.994313 99.883914 32.052 
C 99.883914 32.109687 99.906833 32.165019 99.947624 32.20581 
C 99.988415 32.246601 100.043748 32.269521 100.101435 32.269521 
z
" clip-path="url(#p1a00155a19)" style="fill: #3b3b6d; fill-opacity: 0.3"/>
    <path d="M 139.415071 214.604045 
C 141.046613 214.604045 142.61155 213.955827 143.765224 212.802153 
C 144.918898 211.648479 145.567116 210.083541 145.567116 208.452 
C 145.567116 206.820459 144.918898 205.255521 143.765224 204.101847 
C 142.61155 202.948173 141.046613 202.299955 139.415071 202.299955 
C 137.78353 202.299955 136.218592 202.948173 135.064918 204.101847 
C 133.911244 205.255521 133.263026 206.820459 133.263026 208.452 
C 133.263026 210.083541 133.911244 211.648479 135.064918 212.802153 
C 136.218592 213.955827 137.78353 214.604045 139.415071 214.604045 
z
" clip-path="url(#p1a00155a19)" style="fill: #3b3b6d; fill-opacity: 0.3"/>
    <path d="M 139.415071 195.815656 
C 141.911602 195.815656 144.306217 194.823774 146.071531 193.05846 
C 147.836845 191.293146 148.828727 188.898531 148.828727 186.402 
C 148.828727 183.905469 147.836845 181.510854 146.071531 179.74554 
C 144.306217 177.980226 141.911602 176.988344 139.415071 176.988344 
C 136.91854 176.988344 134.523925 177.980226 132.758611 179.74554 
C 130.993297 181.510854 130.001415 183.905469 130.001415 186.402 
C 130.001415 188.898531 130.993297 191.293146 132.758611 193.05846 
C 134.523925 194.823774 136.91854 195.815656 139.415071 195.815656 
z
" clip-path="url(#p1a00155a19)" style="fill: #3b3b6d; fill-opacity: 0.3"/>
    <path d="M 139.415071 176.115221 
C 142.534714 176.115221 145.527004 174.875773 147.732924 172.669853 
C 149.938844 170.463933 151.178292 167.471643 151.178292 164.352 
C 151.178292 161.232357 149.938844 158.240067 147.732924 156.034147 
C 145.527004 153.828227 142.534714 152.588779 139.415071 152.588779 
C 136.295428 152.588779 133.303138 153.828227 131.097218 156.034147 
C 128.891298 158.240067 127.65185 161.232357 127.65185 164.352 
C 127.65185 167.471643 128.891298 170.463933 131.097218 172.669853 
C 133.303138 174.875773 136.295428 176.115221 139.415071 176.115221 
z
" clip-path="url(#p1a00155a19)" style="fill: #3b3b6d; fill-opacity: 0.3"/>
    <path d="M 139.415071 154.305926 
C 142.59855 154.305926 145.65207 153.041117 147.903129 150.790058 
C 150.154188 148.538999 151.418997 145.485479 151.418997 142.302 
C 151.418997 139.118521 150.154188 136.065001 147.903129 133.813942 
C 145.65207 131.562883 142.59855 130.298074 139.415071 130.298074 
C 136.231593 130.298074 133.178072 131.562883 130.927013 133.813942 
C 128.675954 136.065001 127.411145 139.118521 127.411145 142.302 
C 127.411145 145.485479 128.675954 148.538999 130.927013 150.790058 
C 133.178072 153.041117 136.231593 154.305926 139.415071 154.305926 
z
" clip-path="url(#p1a00155a19)" style="fill: #3b3b6d; fill-opacity: 0.3"/>
    <path d="M 139.415071 130.255444 
C 142.068015 130.255444 144.612659 129.201418 146.488574 127.325503 
C 148.364489 125.449588 149.418515 122.904944 149.418515 120.252 
C 149.418515 117.599056 148.364489 115.054412 146.488574 113.178497 
C 144.612659 111.302582 142.068015 110.248556 139.415071 110.248556 
C 136.762127 110.248556 134.217483 111.302582 132.341568 113.178497 
C 130.465653 115.054412 129.411627 117.599056 129.411627 120.252 
C 129.411627 122.904944 130.465653 125.449588 132.341568 127.325503 
C 134.217483 129.201418 136.762127 130.255444 139.415071 130.255444 
z
" clip-path="url(#p1a00155a19)" style="fill: #3b3b6d; fill-opacity: 0.3"/>
    <path d="M 139.415071 105.009771 
C 141.220513 105.009771 142.952252 104.292461 144.228892 103.015821 
C 145.505533 101.739181 146.222842 100.007442 146.222842 98.202 
C 146.222842 96.396558 145.505533 94.664819 144.228892 93.388179 
C 142.952252 92.111539 141.220513 91.394229 139.415071 91.394229 
C 137.609629 91.394229 135.87789 92.111539 134.60125 93.388179 
C 133.32461 94.664819 132.6073 96.396558 132.6073 98.202 
C 132.6073 100.007442 133.32461 101.739181 134.60125 103.015821 
C 135.87789 104.292461 137.609629 105.009771 139.415071 105.009771 
z
" clip-path="url(#p1a00155a19)" style="fill: #3b3b6d; fill-opacity: 0.3"/>
    <path d="M 139.415071 79.935463 
C 140.418457 79.935463 141.380882 79.536813 142.090383 78.827312 
C 142.799885 78.117811 143.198534 77.155386 143.198534 76.152 
C 143.198534 75.148614 142.799885 74.186189 142.090383 73.476688 
C 141.380882 72.767187 140.418457 72.368537 139.415071 72.368537 
C 138.411685 72.368537 137.44926 72.767187 136.739759 73.476688 
C 136.030258 74.186189 135.631608 75.148614 135.631608 76.152 
C 135.631608 77.155386 136.030258 78.117811 136.739759 78.827312 
C 137.44926 79.536813 138.411685 79.935463 139.415071 79.935463 
z
" clip-path="url(#p1a00155a19)" style="fill: #3b3b6d; fill-opacity: 0.3"/>
    <path d="M 139.415071 55.81913 
C 139.870459 55.81913 140.307257 55.638202 140.629265 55.316194 
C 140.951273 54.994186 141.132201 54.557388 141.132201 54.102 
C 141.132201 53.646612 140.951273 53.209814 140.629265 52.887806 
C 140.307257 52.565798 139.870459 52.38487 139.415071 52.38487 
C 138.959683 52.38487 138.522885 52.565798 138.200877 52.887806 
C 137.878869 53.209814 137.697941 53.646612 137.697941 54.102 
C 137.697941 54.557388 137.878869 54.994186 138.200877 55.316194 
C 138.522885 55.638202 138.959683 55.81913 139.415071 55.81913 
z
" clip-path="url(#p1a00155a19)" style="fill: #3b3b6d; fill-opacity: 0.3"/>
    <path d="M 139.415071 32.688423 
C 139.583852 32.688423 139.745744 32.621366 139.86509 32.502019 
C 139.984437 32.382673 140.051494 32.220781 140.051494 32.052 
C 140.051494 31.883219 139.984437 31.721327 139.86509 31.601981 
C 139.745744 31.482634 139.583852 31.415577 139.415071 31.415577 
C 139.24629 31.415577 139.084398 31.482634 138.965052 31.601981 
C 138.845705 31.721327 138.778648 31.883219 138.778648 32.052 
C 138.778648 32.220781 138.845705 32.382673 138.965052 32.502019 
C 139.084398 32.621366 139.24629 32.688423 139.415071 32.688423 
z
" clip-path="url(#p1a00155a19)" style="fill: #3b3b6d; fill-opacity: 0.3"/>
    <path d="M 178.728707 213.179782 
C 179.98253 213.179782 181.185168 212.681633 182.071754 211.795047 
C 182.95834 210.90846 183.456489 209.705822 183.456489 208.452 
C 183.456489 207.198178 182.95834 205.99554 182.071754 205.108953 
C 181.185168 204.222367 179.98253 203.724218 178.728707 203.724218 
C 177.474885 203.724218 176.272247 204.222367 175.385661 205.108953 
C 174.499074 205.99554 174.000926 207.198178 174.000926 208.452 
C 174.000926 209.705822 174.499074 210.90846 175.385661 211.795047 
C 176.272247 212.681633 177.474885 213.179782 178.728707 213.179782 
z
" clip-path="url(#p1a00155a19)" style="fill: #3b3b6d; fill-opacity: 0.3"/>
    <path d="M 178.728707 194.738347 
C 180.939533 194.738347 183.060106 193.859977 184.623395 192.296688 
C 186.186685 190.733398 187.065055 188.612825 187.065055 186.402 
C 187.065055 184.191175 186.186685 182.070602 184.623395 180.507312 
C 183.060106 178.944023 180.939533 178.065653 178.728707 178.065653 
C 176.517882 178.065653 174.397309 178.944023 172.83402 180.507312 
C 171.27073 182.070602 170.39236 184.191175 170.39236 186.402 
C 170.39236 188.612825 171.27073 190.733398 172.83402 192.296688 
C 174.397309 193.859977 176.517882 194.738347 178.728707 194.738347 
z
" clip-path="url(#p1a00155a19)" style="fill: #3b3b6d; fill-opacity: 0.3"/>
    <path d="M 178.728707 176.355926 
C 181.912186 176.355926 184.965706 175.091117 187.216765 172.840058 
C 189.467824 170.588999 190.732634 167.535479 190.732634 164.352 
C 190.732634 161.168521 189.467824 158.115001 187.216765 155.863942 
C 184.965706 153.612883 181.912186 152.348074 178.728707 152.348074 
C 175.545229 152.348074 172.491709 153.612883 170.24065 155.863942 
C 167.98959 158.115001 166.724781 161.168521 166.724781 164.352 
C 166.724781 167.535479 167.98959 170.588999 170.24065 172.840058 
C 172.491709 175.091117 175.545229 176.355926 178.728707 176.355926 
z
" clip-path="url(#p1a00155a19)" style="fill: #3b3b6d; fill-opacity: 0.3"/>
    <path d="M 178.728707 156.417622 
C 182.472214 156.417622 186.0629 154.930311 188.709959 152.283252 
C 191.357018 149.636193 192.844329 146.045507 192.844329 142.302 
C 192.844329 138.558493 191.357018 134.967807 188.709959 132.320748 
C 186.0629 129.673689 182.472214 128.186378 178.728707 128.186378 
C 174.985201 128.186378 171.394515 129.673689 168.747456 132.320748 
C 166.100397 134.967807 164.613086 138.558493 164.613086 142.302 
C 164.613086 146.045507 166.100397 149.636193 168.747456 152.283252 
C 171.394515 154.930311 174.985201 156.417622 178.728707 156.417622 
z
" clip-path="url(#p1a00155a19)" style="fill: #3b3b6d; fill-opacity: 0.3"/>
    <path d="M 178.728707 133.807197 
C 182.323588 133.807197 185.771715 132.378936 188.313679 129.836972 
C 190.855643 127.295008 192.283904 123.84688 192.283904 120.252 
C 192.283904 116.65712 190.855643 113.208992 188.313679 110.667028 
C 185.771715 108.125064 182.323588 106.696803 178.728707 106.696803 
C 175.133827 106.696803 171.6857 108.125064 169.143736 110.667028 
C 166.601771 113.208992 165.17351 116.65712 165.17351 120.252 
C 165.17351 123.84688 166.601771 127.295008 169.143736 129.836972 
C 171.6857 132.378936 175.133827 133.807197 178.728707 133.807197 
z
" clip-path="url(#p1a00155a19)" style="fill: #3b3b6d; fill-opacity: 0.3"/>
    <path d="M 178.728707 108.832185 
C 181.547865 108.832185 184.251937 107.712122 186.245383 105.718676 
C 188.238829 103.72523 189.358892 101.021158 189.358892 98.202 
C 189.358892 95.382842 188.238829 92.67877 186.245383 90.685324 
C 184.251937 88.691878 181.547865 87.571815 178.728707 87.571815 
C 175.909549 87.571815 173.205477 88.691878 171.212032 90.685324 
C 169.218586 92.67877 168.098523 95.382842 168.098523 98.202 
C 168.098523 101.021158 169.218586 103.72523 171.212032 105.718676 
C 173.205477 107.712122 175.909549 108.832185 178.728707 108.832185 
z
" clip-path="url(#p1a00155a19)" style="fill: #3b3b6d; fill-opacity: 0.3"/>
    <path d="M 178.728707 82.959771 
C 180.534149 82.959771 182.265888 82.242461 183.542529 80.965821 
C 184.819169 79.689181 185.536479 77.957442 185.536479 76.152 
C 185.536479 74.346558 184.819169 72.614819 183.542529 71.338179 
C 182.265888 70.061539 180.534149 69.344229 178.728707 69.344229 
C 176.923265 69.344229 175.191526 70.061539 173.914886 71.338179 
C 172.638246 72.614819 171.920936 74.346558 171.920936 76.152 
C 171.920936 77.957442 172.638246 79.689181 173.914886 80.965821 
C 175.191526 82.242461 176.923265 82.959771 178.728707 82.959771 
z
" clip-path="url(#p1a00155a19)" style="fill: #3b3b6d; fill-opacity: 0.3"/>
    <path d="M 178.728707 57.662395 
C 179.672935 57.662395 180.578617 57.28725 181.246287 56.61958 
C 181.913957 55.95191 182.289103 55.046228 182.289103 54.102 
C 182.289103 53.157772 181.913957 52.25209 181.246287 51.58442 
C 180.578617 50.91675 179.672935 50.541605 178.728707 50.541605 
C 177.784479 50.541605 176.878798 50.91675 176.211128 51.58442 
C 175.543458 52.25209 175.168312 53.157772 175.168312 54.102 
C 175.168312 55.046228 175.543458 55.95191 176.211128 56.61958 
C 176.878798 57.28725 177.784479 57.662395 178.728707 57.662395 
z
" clip-path="url(#p1a00155a19)" style="fill: #3b3b6d; fill-opacity: 0.3"/>
    <path d="M 178.728707 33.57262 
C 179.131981 33.57262 179.518791 33.412398 179.803948 33.127241 
C 180.089105 32.842084 180.249327 32.455273 180.249327 32.052 
C 180.249327 31.648727 180.089105 31.261916 179.803948 30.976759 
C 179.518791 30.691602 179.131981 30.53138 178.728707 30.53138 
C 178.325434 30.53138 177.938624 30.691602 177.653467 30.976759 
C 177.36831 31.261916 177.208087 31.648727 177.208087 32.052 
C 177.208087 32.455273 177.36831 32.842084 177.653467 33.127241 
C 177.938624 33.412398 178.325434 33.57262 178.728707 33.57262 
z
" clip-path="url(#p1a00155a19)" style="fill: #3b3b6d; fill-opacity: 0.3"/>
    <path d="M 218.042344 211.419047 
C 218.829214 211.419047 219.583962 211.106421 220.140363 210.550019 
C 220.696764 209.993618 221.009391 209.23887 221.009391 208.452 
C 221.009391 207.66513 220.696764 206.910382 220.140363 206.353981 
C 219.583962 205.797579 218.829214 205.484953 218.042344 205.484953 
C 217.255474 205.484953 216.500726 205.797579 215.944324 206.353981 
C 215.387923 206.910382 215.075296 207.66513 215.075296 208.452 
C 215.075296 209.23887 215.387923 209.993618 215.944324 210.550019 
C 216.500726 211.106421 217.255474 211.419047 218.042344 211.419047 
z
" clip-path="url(#p1a00155a19)" style="fill: #3b3b6d; fill-opacity: 0.3"/>
    <path d="M 218.042344 192.430683 
C 219.641169 192.430683 221.174726 191.795463 222.305266 190.664923 
C 223.435807 189.534382 224.071027 188.000825 224.071027 186.402 
C 224.071027 184.803175 223.435807 183.269618 222.305266 182.139077 
C 221.174726 181.008537 219.641169 180.373317 218.042344 180.373317 
C 216.443518 180.373317 214.909961 181.008537 213.779421 182.139077 
C 212.648881 183.269618 212.013661 184.803175 212.013661 186.402 
C 212.013661 188.000825 212.648881 189.534382 213.779421 190.664923 
C 214.909961 191.795463 216.443518 192.430683 218.042344 192.430683 
z
" clip-path="url(#p1a00155a19)" style="fill: #3b3b6d; fill-opacity: 0.3"/>
    <path d="M 218.042344 174.355444 
C 220.695288 174.355444 223.239932 173.301418 225.115847 171.425503 
C 226.991762 169.549588 228.045788 167.004944 228.045788 164.352 
C 228.045788 161.699056 226.991762 159.154412 225.115847 157.278497 
C 223.239932 155.402582 220.695288 154.348556 218.042344 154.348556 
C 215.389399 154.348556 212.844755 155.402582 210.96884 157.278497 
C 209.092925 159.154412 208.038899 161.699056 208.038899 164.352 
C 208.038899 167.004944 209.092925 169.549588 210.96884 171.425503 
C 212.844755 173.301418 215.389399 174.355444 218.042344 174.355444 
z
" clip-path="url(#p1a00155a19)" style="fill: #3b3b6d; fill-opacity: 0.3"/>
    <path d="M 218.042344 155.857197 
C 221.637224 155.857197 225.085351 154.428936 227.627316 151.886972 
C 230.16928 149.345008 231.597541 145.89688 231.597541 142.302 
C 231.597541 138.70712 230.16928 135.258992 227.627316 132.717028 
C 225.085351 130.175064 221.637224 128.746803 218.042344 128.746803 
C 214.447463 128.746803 210.999336 130.175064 208.457372 132.717028 
C 205.915408 135.258992 204.487147 138.70712 204.487147 142.302 
C 204.487147 145.89688 205.915408 149.345008 208.457372 151.886972 
C 210.999336 154.428936 214.447463 155.857197 218.042344 155.857197 
z
" clip-path="url(#p1a00155a19)" style="fill: #3b3b6d; fill-opacity: 0.3"/>
    <path d="M 218.042344 135.252 
C 222.02039 135.252 225.836042 133.671505 228.648945 130.858602 
C 231.461849 128.045698 233.042344 124.230047 233.042344 120.252 
C 233.042344 116.273954 231.461849 112.458302 228.648945 109.645398 
C 225.836042 106.832495 222.02039 105.252 218.042344 105.252 
C 214.064297 105.252 210.248646 106.832495 207.435742 109.645398 
C 204.622838 112.458302 203.042344 116.273954 203.042344 120.252 
C 203.042344 124.230047 204.622838 128.045698 207.435742 130.858602 
C 210.248646 133.671505 214.064297 135.252 218.042344 135.252 
z
" clip-path="url(#p1a00155a19)" style="fill: #3b3b6d; fill-opacity: 0.3"/>
    <path d="M 218.042344 111.757197 
C 221.637224 111.757197 225.085351 110.328936 227.627316 107.786972 
C 230.16928 105.245008 231.597541 101.79688 231.597541 98.202 
C 231.597541 94.60712 230.16928 91.158992 227.627316 88.617028 
C 225.085351 86.075064 221.637224 84.646803 218.042344 84.646803 
C 214.447463 84.646803 210.999336 86.075064 208.457372 88.617028 
C 205.915408 91.158992 204.487147 94.60712 204.487147 98.202 
C 204.487147 101.79688 205.915408 105.245008 208.457372 107.786972 
C 210.999336 110.328936 214.447463 111.757197 218.042344 111.757197 
z
" clip-path="url(#p1a00155a19)" style="fill: #3b3b6d; fill-opacity: 0.3"/>
    <path d="M 218.042344 86.155444 
C 220.695288 86.155444 223.239932 85.101418 225.115847 83.225503 
C 226.991762 81.349588 228.045788 78.804944 228.045788 76.152 
C 228.045788 73.499056 226.991762 70.954412 225.115847 69.078497 
C 223.239932 67.202582 220.695288 66.148556 218.042344 66.148556 
C 215.389399 66.148556 212.844755 67.202582 210.96884 69.078497 
C 209.092925 70.954412 208.038899 73.499056 208.038899 76.152 
C 208.038899 78.804944 209.092925 81.349588 210.96884 83.225503 
C 212.844755 85.101418 215.389399 86.155444 218.042344 86.155444 
z
" clip-path="url(#p1a00155a19)" style="fill: #3b3b6d; fill-opacity: 0.3"/>
    <path d="M 218.042344 60.130683 
C 219.641169 60.130683 221.174726 59.495463 222.305266 58.364923 
C 223.435807 57.234382 224.071027 55.700825 224.071027 54.102 
C 224.071027 52.503175 223.435807 50.969618 222.305266 49.839077 
C 221.174726 48.708537 219.641169 48.073317 218.042344 48.073317 
C 216.443518 48.073317 214.909961 48.708537 213.779421 49.839077 
C 212.648881 50.969618 212.013661 52.503175 212.013661 54.102 
C 212.013661 55.700825 212.648881 57.234382 213.779421 58.364923 
C 214.909961 59.495463 216.443518 60.130683 218.042344 60.130683 
z
" clip-path="url(#p1a00155a19)" style="fill: #3b3b6d; fill-opacity: 0.3"/>
    <path d="M 218.042344 35.019047 
C 218.829214 35.019047 219.583962 34.706421 220.140363 34.150019 
C 220.696764 33.593618 221.009391 32.83887 221.009391 32.052 
C 221.009391 31.26513 220.696764 30.510382 220.140363 29.953981 
C 219.583962 29.397579 218.829214 29.084953 218.042344 29.084953 
C 217.255474 29.084953 216.500726 29.397579 215.944324 29.953981 
C 215.387923 30.510382 215.075296 31.26513 215.075296 32.052 
C 215.075296 32.83887 215.387923 33.593618 215.944324 34.150019 
C 216.500726 34.706421 217.255474 35.019047 218.042344 35.019047 
z
" clip-path="url(#p1a00155a19)" style="fill: #3b3b6d; fill-opacity: 0.3"/>
    <path d="M 257.35598 209.97262 
C 257.759253 209.97262 258.146064 209.812398 258.431221 209.527241 
C 258.716378 209.242084 258.8766 208.855273 258.8766 208.452 
C 258.8766 208.048727 258.716378 207.661916 258.431221 207.376759 
C 258.146064 207.091602 257.759253 206.93138 257.35598 206.93138 
C 256.952707 206.93138 256.565897 207.091602 256.280739 207.376759 
C 255.995582 207.661916 255.83536 208.048727 255.83536 208.452 
C 255.83536 208.855273 255.995582 209.242084 256.280739 209.527241 
C 256.565897 209.812398 256.952707 209.97262 257.35598 209.97262 
z
" clip-path="url(#p1a00155a19)" style="fill: #3b3b6d; fill-opacity: 0.3"/>
    <path d="M 257.35598 189.962395 
C 258.300208 189.962395 259.20589 189.58725 259.87356 188.91958 
C 260.54123 188.25191 260.916376 187.346228 260.916376 186.402 
C 260.916376 185.457772 260.54123 184.55209 259.87356 183.88442 
C 259.20589 183.21675 258.300208 182.841605 257.35598 182.841605 
C 256.411752 182.841605 255.50607 183.21675 254.8384 183.88442 
C 254.17073 184.55209 253.795585 185.457772 253.795585 186.402 
C 253.795585 187.346228 254.17073 188.25191 254.8384 188.91958 
C 255.50607 189.58725 256.411752 189.962395 257.35598 189.962395 
z
" clip-path="url(#p1a00155a19)" style="fill: #3b3b6d; fill-opacity: 0.3"/>
    <path d="M 257.35598 171.159771 
C 259.161422 171.159771 260.893161 170.442461 262.169801 169.165821 
C 263.446442 167.889181 264.163751 166.157442 264.163751 164.352 
C 264.163751 162.546558 263.446442 160.814819 262.169801 159.538179 
C 260.893161 158.261539 259.161422 157.544229 257.35598 157.544229 
C 255.550538 157.544229 253.818799 158.261539 252.542159 159.538179 
C 251.265519 160.814819 250.548209 162.546558 250.548209 164.352 
C 250.548209 166.157442 251.265519 167.889181 252.542159 169.165821 
C 253.818799 170.442461 255.550538 171.159771 257.35598 171.159771 
z
" clip-path="url(#p1a00155a19)" style="fill: #3b3b6d; fill-opacity: 0.3"/>
    <path d="M 257.35598 152.932185 
C 260.175138 152.932185 262.87921 151.812122 264.872656 149.818676 
C 266.866102 147.82523 267.986165 145.121158 267.986165 142.302 
C 267.986165 139.482842 266.866102 136.77877 264.872656 134.785324 
C 262.87921 132.791878 260.175138 131.671815 257.35598 131.671815 
C 254.536822 131.671815 251.83275 132.791878 249.839304 134.785324 
C 247.845859 136.77877 246.725795 139.482842 246.725795 142.302 
C 246.725795 145.121158 247.845859 147.82523 249.839304 149.818676 
C 251.83275 151.812122 254.536822 152.932185 257.35598 152.932185 
z
" clip-path="url(#p1a00155a19)" style="fill: #3b3b6d; fill-opacity: 0.3"/>
    <path d="M 257.35598 133.807197 
C 260.95086 133.807197 264.398988 132.378936 266.940952 129.836972 
C 269.482916 127.295008 270.911177 123.84688 270.911177 120.252 
C 270.911177 116.65712 269.482916 113.208992 266.940952 110.667028 
C 264.398988 108.125064 260.95086 106.696803 257.35598 106.696803 
C 253.7611 106.696803 250.312973 108.125064 247.771008 110.667028 
C 245.229044 113.208992 243.800783 116.65712 243.800783 120.252 
C 243.800783 123.84688 245.229044 127.295008 247.771008 129.836972 
C 250.312973 132.378936 253.7611 133.807197 257.35598 133.807197 
z
" clip-path="url(#p1a00155a19)" style="fill: #3b3b6d; fill-opacity: 0.3"/>
    <path d="M 257.35598 112.317622 
C 261.099487 112.317622 264.690173 110.830311 267.337232 108.183252 
C 269.984291 105.536193 271.471602 101.945507 271.471602 98.202 
C 271.471602 94.458493 269.984291 90.867807 267.337232 88.220748 
C 264.690173 85.573689 261.099487 84.086378 257.35598 84.086378 
C 253.612474 84.086378 250.021787 85.573689 247.374728 88.220748 
C 244.72767 90.867807 243.240359 94.458493 243.240359 98.202 
C 243.240359 101.945507 244.72767 105.536193 247.374728 108.183252 
C 250.021787 110.830311 253.612474 112.317622 257.35598 112.317622 
z
" clip-path="url(#p1a00155a19)" style="fill: #3b3b6d; fill-opacity: 0.3"/>
    <path d="M 257.35598 88.155926 
C 260.539459 88.155926 263.592979 86.891117 265.844038 84.640058 
C 268.095097 82.388999 269.359907 79.335479 269.359907 76.152 
C 269.359907 72.968521 268.095097 69.915001 265.844038 67.663942 
C 263.592979 65.412883 260.539459 64.148074 257.35598 64.148074 
C 254.172502 64.148074 251.118982 65.412883 248.867922 67.663942 
C 246.616863 69.915001 245.352054 72.968521 245.352054 76.152 
C 245.352054 79.335479 246.616863 82.388999 248.867922 84.640058 
C 251.118982 86.891117 254.172502 88.155926 257.35598 88.155926 
z
" clip-path="url(#p1a00155a19)" style="fill: #3b3b6d; fill-opacity: 0.3"/>
    <path d="M 257.35598 62.438347 
C 259.566805 62.438347 261.687378 61.559977 263.250668 59.996688 
C 264.813957 58.433398 265.692327 56.312825 265.692327 54.102 
C 265.692327 51.891175 264.813957 49.770602 263.250668 48.207312 
C 261.687378 46.644023 259.566805 45.765653 257.35598 45.765653 
C 255.145155 45.765653 253.024582 46.644023 251.461292 48.207312 
C 249.898003 49.770602 249.019633 51.891175 249.019633 54.102 
C 249.019633 56.312825 249.898003 58.433398 251.461292 59.996688 
C 253.024582 61.559977 255.145155 62.438347 257.35598 62.438347 
z
" clip-path="url(#p1a00155a19)" style="fill: #3b3b6d; fill-opacity: 0.3"/>
    <path d="M 257.35598 36.779782 
C 258.609803 36.779782 259.81244 36.281633 260.699027 35.395047 
C 261.585613 34.50846 262.083762 33.305822 262.083762 32.052 
C 262.083762 30.798178 261.585613 29.59554 260.699027 28.708953 
C 259.81244 27.822367 258.609803 27.324218 257.35598 27.324218 
C 256.102158 27.324218 254.89952 27.822367 254.012934 28.708953 
C 253.126347 29.59554 252.628198 30.798178 252.628198 32.052 
C 252.628198 33.305822 253.126347 34.50846 254.012934 35.395047 
C 254.89952 36.281633 256.102158 36.779782 257.35598 36.779782 
z
" clip-path="url(#p1a00155a19)" style="fill: #3b3b6d; fill-opacity: 0.3"/>
    <path d="M 296.669616 209.088423 
C 296.838398 209.088423 297.000289 209.021366 297.119636 208.902019 
C 297.238982 208.782673 297.30604 208.620781 297.30604 208.452 
C 297.30604 208.283219 297.238982 208.121327 297.119636 208.001981 
C 297.000289 207.882634 296.838398 207.815577 296.669616 207.815577 
C 296.500835 207.815577 296.338944 207.882634 296.219597 208.001981 
C 296.100251 208.121327 296.033193 208.283219 296.033193 208.452 
C 296.033193 208.620781 296.100251 208.782673 296.219597 208.902019 
C 296.338944 209.021366 296.500835 209.088423 296.669616 209.088423 
z
" clip-path="url(#p1a00155a19)" style="fill: #3b3b6d; fill-opacity: 0.3"/>
    <path d="M 296.669616 188.11913 
C 297.125005 188.11913 297.561803 187.938202 297.883811 187.616194 
C 298.205819 187.294186 298.386747 186.857388 298.386747 186.402 
C 298.386747 185.946612 298.205819 185.509814 297.883811 185.187806 
C 297.561803 184.865798 297.125005 184.68487 296.669616 184.68487 
C 296.214228 184.68487 295.77743 184.865798 295.455422 185.187806 
C 295.133414 185.509814 294.952486 185.946612 294.952486 186.402 
C 294.952486 186.857388 295.133414 187.294186 295.455422 187.616194 
C 295.77743 187.938202 296.214228 188.11913 296.669616 188.11913 
z
" clip-path="url(#p1a00155a19)" style="fill: #3b3b6d; fill-opacity: 0.3"/>
    <path d="M 296.669616 168.135463 
C 297.673003 168.135463 298.635428 167.736813 299.344929 167.027312 
C 300.05443 166.317811 300.453079 165.355386 300.453079 164.352 
C 300.453079 163.348614 300.05443 162.386189 299.344929 161.676688 
C 298.635428 160.967187 297.673003 160.568537 296.669616 160.568537 
C 295.66623 160.568537 294.703805 160.967187 293.994304 161.676688 
C 293.284803 162.386189 292.886153 163.348614 292.886153 164.352 
C 292.886153 165.355386 293.284803 166.317811 293.994304 167.027312 
C 294.703805 167.736813 295.66623 168.135463 296.669616 168.135463 
z
" clip-path="url(#p1a00155a19)" style="fill: #3b3b6d; fill-opacity: 0.3"/>
    <path d="M 296.669616 149.109771 
C 298.475059 149.109771 300.206797 148.392461 301.483438 147.115821 
C 302.760078 145.839181 303.477388 144.107442 303.477388 142.302 
C 303.477388 140.496558 302.760078 138.764819 301.483438 137.488179 
C 300.206797 136.211539 298.475059 135.494229 296.669616 135.494229 
C 294.864174 135.494229 293.132436 136.211539 291.855795 137.488179 
C 290.579155 138.764819 289.861845 140.496558 289.861845 142.302 
C 289.861845 144.107442 290.579155 145.839181 291.855795 147.115821 
C 293.132436 148.392461 294.864174 149.109771 296.669616 149.109771 
z
" clip-path="url(#p1a00155a19)" style="fill: #3b3b6d; fill-opacity: 0.3"/>
    <path d="M 296.669616 130.255444 
C 299.322561 130.255444 301.867205 129.201418 303.74312 127.325503 
C 305.619035 125.449588 306.673061 122.904944 306.673061 120.252 
C 306.673061 117.599056 305.619035 115.054412 303.74312 113.178497 
C 301.867205 111.302582 299.322561 110.248556 296.669616 110.248556 
C 294.016672 110.248556 291.472028 111.302582 289.596113 113.178497 
C 287.720198 115.054412 286.666172 117.599056 286.666172 120.252 
C 286.666172 122.904944 287.720198 125.449588 289.596113 127.325503 
C 291.472028 129.201418 294.016672 130.255444 296.669616 130.255444 
z
" clip-path="url(#p1a00155a19)" style="fill: #3b3b6d; fill-opacity: 0.3"/>
    <path d="M 296.669616 110.205926 
C 299.853095 110.205926 302.906615 108.941117 305.157674 106.690058 
C 307.408734 104.438999 308.673543 101.385479 308.673543 98.202 
C 308.673543 95.018521 307.408734 91.965001 305.157674 89.713942 
C 302.906615 87.462883 299.853095 86.198074 296.669616 86.198074 
C 293.486138 86.198074 290.432618 87.462883 288.181559 89.713942 
C 285.930499 91.965001 284.66569 95.018521 284.66569 98.202 
C 284.66569 101.385479 285.930499 104.438999 288.181559 106.690058 
C 290.432618 108.941117 293.486138 110.205926 296.669616 110.205926 
z
" clip-path="url(#p1a00155a19)" style="fill: #3b3b6d; fill-opacity: 0.3"/>
    <path d="M 296.669616 87.915221 
C 299.789259 87.915221 302.781549 86.675773 304.98747 84.469853 
C 307.19339 82.263933 308.432837 79.271643 308.432837 76.152 
C 308.432837 73.032357 307.19339 70.040067 304.98747 67.834147 
C 302.781549 65.628227 299.789259 64.388779 296.669616 64.388779 
C 293.549974 64.388779 290.557684 65.628227 288.351763 67.834147 
C 286.145843 70.040067 284.906396 73.032357 284.906396 76.152 
C 284.906396 79.271643 286.145843 82.263933 288.351763 84.469853 
C 290.557684 86.675773 293.549974 87.915221 296.669616 87.915221 
z
" clip-path="url(#p1a00155a19)" style="fill: #3b3b6d; fill-opacity: 0.3"/>
    <path d="M 296.669616 63.515656 
C 299.166147 63.515656 301.560762 62.523774 303.326076 60.75846 
C 305.09139 58.993146 306.083272 56.598531 306.083272 54.102 
C 306.083272 51.605469 305.09139 49.210854 303.326076 47.44554 
C 301.560762 45.680226 299.166147 44.688344 296.669616 44.688344 
C 294.173086 44.688344 291.77847 45.680226 290.013157 47.44554 
C 288.247843 49.210854 287.255961 51.605469 287.255961 54.102 
C 287.255961 56.598531 288.247843 58.993146 290.013157 60.75846 
C 291.77847 62.523774 294.173086 63.515656 296.669616 63.515656 
z
" clip-path="url(#p1a00155a19)" style="fill: #3b3b6d; fill-opacity: 0.3"/>
    <path d="M 296.669616 38.204045 
C 298.301158 38.204045 299.866095 37.555827 301.019769 36.402153 
C 302.173444 35.248479 302.821662 33.683541 302.821662 32.052 
C 302.821662 30.420459 302.173444 28.855521 301.019769 27.701847 
C 299.866095 26.548173 298.301158 25.899955 296.669616 25.899955 
C 295.038075 25.899955 293.473138 26.548173 292.319463 27.701847 
C 291.165789 28.855521 290.517571 30.420459 290.517571 32.052 
C 290.517571 33.683541 291.165789 35.248479 292.319463 36.402153 
C 293.473138 37.555827 295.038075 38.204045 296.669616 38.204045 
z
" clip-path="url(#p1a00155a19)" style="fill: #3b3b6d; fill-opacity: 0.3"/>
    <path d="M 335.983253 208.669521 
C 336.04094 208.669521 336.096272 208.646601 336.137063 208.60581 
C 336.177854 208.565019 336.200774 208.509687 336.200774 208.452 
C 336.200774 208.394313 336.177854 208.338981 336.137063 208.29819 
C 336.096272 208.257399 336.04094 208.234479 335.983253 208.234479 
C 335.925566 208.234479 335.870233 208.257399 335.829442 208.29819 
C 335.788652 208.338981 335.765732 208.394313 335.765732 208.452 
C 335.765732 208.509687 335.788652 208.565019 335.829442 208.60581 
C 335.870233 208.646601 335.925566 208.669521 335.983253 208.669521 
z
" clip-path="url(#p1a00155a19)" style="fill: #3b3b6d; fill-opacity: 0.3"/>
    <path d="M 335.983253 187.078297 
C 336.162609 187.078297 336.334643 187.007038 336.461467 186.880214 
C 336.588291 186.75339 336.65955 186.581356 336.65955 186.402 
C 336.65955 186.222644 336.588291 186.05061 336.461467 185.923786 
C 336.334643 185.796962 336.162609 185.725703 335.983253 185.725703 
C 335.803897 185.725703 335.631863 185.796962 335.505039 185.923786 
C 335.378215 186.05061 335.306956 186.222644 335.306956 186.402 
C 335.306956 186.581356 335.378215 186.75339 335.505039 186.880214 
C 335.631863 187.007038 335.803897 187.078297 335.983253 187.078297 
z
" clip-path="url(#p1a00155a19)" style="fill: #3b3b6d; fill-opacity: 0.3"/>
    <path d="M 335.983253 166.06913 
C 336.438641 166.06913 336.875439 165.888202 337.197447 165.566194 
C 337.519455 165.244186 337.700383 164.807388 337.700383 164.352 
C 337.700383 163.896612 337.519455 163.459814 337.197447 163.137806 
C 336.875439 162.815798 336.438641 162.63487 335.983253 162.63487 
C 335.527865 162.63487 335.091067 162.815798 334.769059 163.137806 
C 334.44705 163.459814 334.266123 163.896612 334.266123 164.352 
C 334.266123 164.807388 334.44705 165.244186 334.769059 165.566194 
C 335.091067 165.888202 335.527865 166.06913 335.983253 166.06913 
z
" clip-path="url(#p1a00155a19)" style="fill: #3b3b6d; fill-opacity: 0.3"/>
    <path d="M 335.983253 145.862395 
C 336.927481 145.862395 337.833163 145.48725 338.500833 144.81958 
C 339.168503 144.15191 339.543648 143.246228 339.543648 142.302 
C 339.543648 141.357772 339.168503 140.45209 338.500833 139.78442 
C 337.833163 139.11675 336.927481 138.741605 335.983253 138.741605 
C 335.039025 138.741605 334.133343 139.11675 333.465673 139.78442 
C 332.798003 140.45209 332.422857 141.357772 332.422857 142.302 
C 332.422857 143.246228 332.798003 144.15191 333.465673 144.81958 
C 334.133343 145.48725 335.039025 145.862395 335.983253 145.862395 
z
" clip-path="url(#p1a00155a19)" style="fill: #3b3b6d; fill-opacity: 0.3"/>
    <path d="M 335.983253 126.280683 
C 337.582078 126.280683 339.115635 125.645463 340.246175 124.514923 
C 341.376716 123.384382 342.011936 121.850825 342.011936 120.252 
C 342.011936 118.653175 341.376716 117.119618 340.246175 115.989077 
C 339.115635 114.858537 337.582078 114.223317 335.983253 114.223317 
C 334.384427 114.223317 332.850871 114.858537 331.72033 115.989077 
C 330.58979 117.119618 329.95457 118.653175 329.95457 120.252 
C 329.95457 121.850825 330.58979 123.384382 331.72033 124.514923 
C 332.850871 125.645463 334.384427 126.280683 335.983253 126.280683 
z
" clip-path="url(#p1a00155a19)" style="fill: #3b3b6d; fill-opacity: 0.3"/>
    <path d="M 335.983253 106.538347 
C 338.194078 106.538347 340.314651 105.659977 341.877941 104.096688 
C 343.44123 102.533398 344.3196 100.412825 344.3196 98.202 
C 344.3196 95.991175 343.44123 93.870602 341.877941 92.307312 
C 340.314651 90.744023 338.194078 89.865653 335.983253 89.865653 
C 333.772428 89.865653 331.651855 90.744023 330.088565 92.307312 
C 328.525276 93.870602 327.646906 95.991175 327.646906 98.202 
C 327.646906 100.412825 328.525276 102.533398 330.088565 104.096688 
C 331.651855 105.659977 333.772428 106.538347 335.983253 106.538347 
z
" clip-path="url(#p1a00155a19)" style="fill: #3b3b6d; fill-opacity: 0.3"/>
    <path d="M 335.983253 85.565656 
C 338.479784 85.565656 340.874399 84.573774 342.639713 82.80846 
C 344.405026 81.043146 345.396909 78.648531 345.396909 76.152 
C 345.396909 73.655469 344.405026 71.260854 342.639713 69.49554 
C 340.874399 67.730226 338.479784 66.738344 335.983253 66.738344 
C 333.486722 66.738344 331.092107 67.730226 329.326793 69.49554 
C 327.561479 71.260854 326.569597 73.655469 326.569597 76.152 
C 326.569597 78.648531 327.561479 81.043146 329.326793 82.80846 
C 331.092107 84.573774 333.486722 85.565656 335.983253 85.565656 
z
" clip-path="url(#p1a00155a19)" style="fill: #3b3b6d; fill-opacity: 0.3"/>
    <path d="M 335.983253 62.783004 
C 338.285482 62.783004 340.493728 61.868319 342.12165 60.240397 
C 343.749572 58.612475 344.664257 56.404229 344.664257 54.102 
C 344.664257 51.799771 343.749572 49.591525 342.12165 47.963603 
C 340.493728 46.335681 338.285482 45.420996 335.983253 45.420996 
C 333.681024 45.420996 331.472778 46.335681 329.844856 47.963603 
C 328.216934 49.591525 327.302249 51.799771 327.302249 54.102 
C 327.302249 56.404229 328.216934 58.612475 329.844856 60.240397 
C 331.472778 61.868319 333.681024 62.783004 335.983253 62.783004 
z
" clip-path="url(#p1a00155a19)" style="fill: #3b3b6d; fill-opacity: 0.3"/>
    <path d="M 335.983253 38.589486 
C 337.717014 38.589486 339.379999 37.900655 340.605954 36.674701 
C 341.831908 35.448746 342.520739 33.785762 342.520739 32.052 
C 342.520739 30.318238 341.831908 28.655254 340.605954 27.429299 
C 339.379999 26.203345 337.717014 25.514514 335.983253 25.514514 
C 334.249491 25.514514 332.586507 26.203345 331.360552 27.429299 
C 330.134597 28.655254 329.445767 30.318238 329.445767 32.052 
C 329.445767 33.785762 330.134597 35.448746 331.360552 36.674701 
C 332.586507 37.900655 334.249491 38.589486 335.983253 38.589486 
z
" clip-path="url(#p1a00155a19)" style="fill: #3b3b6d; fill-opacity: 0.3"/>
    <path d="M 375.296889 208.512713 
C 375.312991 208.512713 375.328435 208.506316 375.33982 208.494931 
C 375.351205 208.483545 375.357603 208.468101 375.357603 208.452 
C 375.357603 208.435899 375.351205 208.420455 375.33982 208.409069 
C 375.328435 208.397684 375.312991 208.391287 375.296889 208.391287 
C 375.280788 208.391287 375.265344 208.397684 375.253958 208.409069 
C 375.242573 208.420455 375.236176 208.435899 375.236176 208.452 
C 375.236176 208.468101 375.242573 208.483545 375.253958 208.494931 
C 375.265344 208.506316 375.280788 208.512713 375.296889 208.512713 
z
" clip-path="url(#p1a00155a19)" style="fill: #3b3b6d; fill-opacity: 0.3"/>
    <path d="M 375.296889 186.619521 
C 375.354576 186.619521 375.409909 186.596601 375.4507 186.55581 
C 375.491491 186.515019 375.51441 186.459687 375.51441 186.402 
C 375.51441 186.344313 375.491491 186.288981 375.4507 186.24819 
C 375.409909 186.207399 375.354576 186.184479 375.296889 186.184479 
C 375.239202 186.184479 375.18387 186.207399 375.143079 186.24819 
C 375.102288 186.288981 375.079369 186.344313 375.079369 186.402 
C 375.079369 186.459687 375.102288 186.515019 375.143079 186.55581 
C 375.18387 186.596601 375.239202 186.619521 375.296889 186.619521 
z
" clip-path="url(#p1a00155a19)" style="fill: #3b3b6d; fill-opacity: 0.3"/>
    <path d="M 375.296889 164.988423 
C 375.465671 164.988423 375.627562 164.921366 375.746908 164.802019 
C 375.866255 164.682673 375.933312 164.520781 375.933312 164.352 
C 375.933312 164.183219 375.866255 164.021327 375.746908 163.901981 
C 375.627562 163.782634 375.465671 163.715577 375.296889 163.715577 
C 375.128108 163.715577 374.966216 163.782634 374.84687 163.901981 
C 374.727524 164.021327 374.660466 164.183219 374.660466 164.352 
C 374.660466 164.520781 374.727524 164.682673 374.84687 164.802019 
C 374.966216 164.921366 375.128108 164.988423 375.296889 164.988423 
z
" clip-path="url(#p1a00155a19)" style="fill: #3b3b6d; fill-opacity: 0.3"/>
    <path d="M 375.296889 143.82262 
C 375.700162 143.82262 376.086973 143.662398 376.37213 143.377241 
C 376.657287 143.092084 376.817509 142.705273 376.817509 142.302 
C 376.817509 141.898727 376.657287 141.511916 376.37213 141.226759 
C 376.086973 140.941602 375.700162 140.78138 375.296889 140.78138 
C 374.893616 140.78138 374.506806 140.941602 374.221649 141.226759 
C 373.936491 141.511916 373.776269 141.898727 373.776269 142.302 
C 373.776269 142.705273 373.936491 143.092084 374.221649 143.377241 
C 374.506806 143.662398 374.893616 143.82262 375.296889 143.82262 
z
" clip-path="url(#p1a00155a19)" style="fill: #3b3b6d; fill-opacity: 0.3"/>
    <path d="M 375.296889 123.219047 
C 376.083759 123.219047 376.838507 122.906421 377.394908 122.350019 
C 377.95131 121.793618 378.263937 121.03887 378.263937 120.252 
C 378.263937 119.46513 377.95131 118.710382 377.394908 118.153981 
C 376.838507 117.597579 376.083759 117.284953 375.296889 117.284953 
C 374.510019 117.284953 373.755271 117.597579 373.19887 118.153981 
C 372.642469 118.710382 372.329842 119.46513 372.329842 120.252 
C 372.329842 121.03887 372.642469 121.793618 373.19887 122.350019 
C 373.755271 122.906421 374.510019 123.219047 375.296889 123.219047 
z
" clip-path="url(#p1a00155a19)" style="fill: #3b3b6d; fill-opacity: 0.3"/>
    <path d="M 375.296889 102.929782 
C 376.550712 102.929782 377.753349 102.431633 378.639936 101.545047 
C 379.526522 100.65846 380.024671 99.455822 380.024671 98.202 
C 380.024671 96.948178 379.526522 95.74554 378.639936 94.858953 
C 377.753349 93.972367 376.550712 93.474218 375.296889 93.474218 
C 374.043067 93.474218 372.840429 93.972367 371.953843 94.858953 
C 371.067256 95.74554 370.569107 96.948178 370.569107 98.202 
C 370.569107 99.455822 371.067256 100.65846 371.953843 101.545047 
C 372.840429 102.431633 374.043067 102.929782 375.296889 102.929782 
z
" clip-path="url(#p1a00155a19)" style="fill: #3b3b6d; fill-opacity: 0.3"/>
    <path d="M 375.296889 82.304045 
C 376.928431 82.304045 378.493368 81.655827 379.647042 80.502153 
C 380.800716 79.348479 381.448935 77.783541 381.448935 76.152 
C 381.448935 74.520459 380.800716 72.955521 379.647042 71.801847 
C 378.493368 70.648173 376.928431 69.999955 375.296889 69.999955 
C 373.665348 69.999955 372.10041 70.648173 370.946736 71.801847 
C 369.793062 72.955521 369.144844 74.520459 369.144844 76.152 
C 369.144844 77.783541 369.793062 79.348479 370.946736 80.502153 
C 372.10041 81.655827 373.665348 82.304045 375.296889 82.304045 
z
" clip-path="url(#p1a00155a19)" style="fill: #3b3b6d; fill-opacity: 0.3"/>
    <path d="M 375.296889 60.639486 
C 377.030651 60.639486 378.693635 59.950655 379.91959 58.724701 
C 381.145545 57.498746 381.834375 55.835762 381.834375 54.102 
C 381.834375 52.368238 381.145545 50.705254 379.91959 49.479299 
C 378.693635 48.253345 377.030651 47.564514 375.296889 47.564514 
C 373.563128 47.564514 371.900143 48.253345 370.674188 49.479299 
C 369.448234 50.705254 368.759403 52.368238 368.759403 54.102 
C 368.759403 55.835762 369.448234 57.498746 370.674188 58.724701 
C 371.900143 59.950655 373.563128 60.639486 375.296889 60.639486 
z
" clip-path="url(#p1a00155a19)" style="fill: #3b3b6d; fill-opacity: 0.3"/>
    <path d="M 375.296889 37.72524 
C 376.80145 37.72524 378.244591 37.127472 379.308476 36.063587 
C 380.372361 34.999702 380.97013 33.556561 380.97013 32.052 
C 380.97013 30.547439 380.372361 29.104298 379.308476 28.040413 
C 378.244591 26.976528 376.80145 26.37876 375.296889 26.37876 
C 373.792328 26.37876 372.349188 26.976528 371.285302 28.040413 
C 370.221417 29.104298 369.623649 30.547439 369.623649 32.052 
C 369.623649 33.556561 370.221417 34.999702 371.285302 36.063587 
C 372.349188 37.127472 373.792328 37.72524 375.296889 37.72524 
z
" clip-path="url(#p1a00155a19)" style="fill: #3b3b6d; fill-opacity: 0.3"/>
   </g>
   <g id="matplotlib.axis_1">
    <g id="xtick_1">
     <g id="line2d_1">
      <defs>
       <path id="m5954e5d464" d="M 0 0 
L 0 3.5 
" style="stroke: #000000; stroke-width: 0.8"/>
      </defs>
      <g>
       <use xlink:href="#m5954e5d464" x="60.787798" y="217.272" style="stroke: #000000; stroke-width: 0.8"/>
      </g>
     </g>
     <g id="text_1">
      <!-- −4 -->
      <g transform="translate(52.679595 232.630281) scale(0.11 -0.11)">
       <defs>
        <path id="DejaVuSans-2212" d="M 678 2272 
L 4684 2272 
L 4684 1741 
L 678 1741 
L 678 2272 
z
" transform="scale(0.015625)"/>
        <path id="DejaVuSans-34" d="M 2419 4116 
L 825 1625 
L 2419 1625 
L 2419 4116 
z
M 2253 4666 
L 3047 4666 
L 3047 1625 
L 3713 1625 
L 3713 1100 
L 3047 1100 
L 3047 0 
L 2419 0 
L 2419 1100 
L 313 1100 
L 313 1709 
L 2253 4666 
z
" transform="scale(0.015625)"/>
       </defs>
       <use xlink:href="#DejaVuSans-2212"/>
       <use xlink:href="#DejaVuSans-34" transform="translate(83.789062 0)"/>
      </g>
     </g>
    </g>
    <g id="xtick_2">
     <g id="line2d_2">
      <g>
       <use xlink:href="#m5954e5d464" x="100.101435" y="217.272" style="stroke: #000000; stroke-width: 0.8"/>
      </g>
     </g>
     <g id="text_2">
      <!-- −3 -->
      <g transform="translate(91.993232 232.630281) scale(0.11 -0.11)">
       <defs>
        <path id="DejaVuSans-33" d="M 2597 2516 
Q 3050 2419 3304 2112 
Q 3559 1806 3559 1356 
Q 3559 666 3084 287 
Q 2609 -91 1734 -91 
Q 1441 -91 1130 -33 
Q 819 25 488 141 
L 488 750 
Q 750 597 1062 519 
Q 1375 441 1716 441 
Q 2309 441 2620 675 
Q 2931 909 2931 1356 
Q 2931 1769 2642 2001 
Q 2353 2234 1838 2234 
L 1294 2234 
L 1294 2753 
L 1863 2753 
Q 2328 2753 2575 2939 
Q 2822 3125 2822 3475 
Q 2822 3834 2567 4026 
Q 2313 4219 1838 4219 
Q 1578 4219 1281 4162 
Q 984 4106 628 3988 
L 628 4550 
Q 988 4650 1302 4700 
Q 1616 4750 1894 4750 
Q 2613 4750 3031 4423 
Q 3450 4097 3450 3541 
Q 3450 3153 3228 2886 
Q 3006 2619 2597 2516 
z
" transform="scale(0.015625)"/>
       </defs>
       <use xlink:href="#DejaVuSans-2212"/>
       <use xlink:href="#DejaVuSans-33" transform="translate(83.789062 0)"/>
      </g>
     </g>
    </g>
    <g id="xtick_3">
     <g id="line2d_3">
      <g>
       <use xlink:href="#m5954e5d464" x="139.415071" y="217.272" style="stroke: #000000; stroke-width: 0.8"/>
      </g>
     </g>
     <g id="text_3">
      <!-- −2 -->
      <g transform="translate(131.306868 232.630281) scale(0.11 -0.11)">
       <defs>
        <path id="DejaVuSans-32" d="M 1228 531 
L 3431 531 
L 3431 0 
L 469 0 
L 469 531 
Q 828 903 1448 1529 
Q 2069 2156 2228 2338 
Q 2531 2678 2651 2914 
Q 2772 3150 2772 3378 
Q 2772 3750 2511 3984 
Q 2250 4219 1831 4219 
Q 1534 4219 1204 4116 
Q 875 4013 500 3803 
L 500 4441 
Q 881 4594 1212 4672 
Q 1544 4750 1819 4750 
Q 2544 4750 2975 4387 
Q 3406 4025 3406 3419 
Q 3406 3131 3298 2873 
Q 3191 2616 2906 2266 
Q 2828 2175 2409 1742 
Q 1991 1309 1228 531 
z
" transform="scale(0.015625)"/>
       </defs>
       <use xlink:href="#DejaVuSans-2212"/>
       <use xlink:href="#DejaVuSans-32" transform="translate(83.789062 0)"/>
      </g>
     </g>
    </g>
    <g id="xtick_4">
     <g id="line2d_4">
      <g>
       <use xlink:href="#m5954e5d464" x="178.728707" y="217.272" style="stroke: #000000; stroke-width: 0.8"/>
      </g>
     </g>
     <g id="text_4">
      <!-- −1 -->
      <g transform="translate(170.620504 232.630281) scale(0.11 -0.11)">
       <defs>
        <path id="DejaVuSans-31" d="M 794 531 
L 1825 531 
L 1825 4091 
L 703 3866 
L 703 4441 
L 1819 4666 
L 2450 4666 
L 2450 531 
L 3481 531 
L 3481 0 
L 794 0 
L 794 531 
z
" transform="scale(0.015625)"/>
       </defs>
       <use xlink:href="#DejaVuSans-2212"/>
       <use xlink:href="#DejaVuSans-31" transform="translate(83.789062 0)"/>
      </g>
     </g>
    </g>
    <g id="xtick_5">
     <g id="line2d_5">
      <g>
       <use xlink:href="#m5954e5d464" x="218.042344" y="217.272" style="stroke: #000000; stroke-width: 0.8"/>
      </g>
     </g>
     <g id="text_5">
      <!-- 0 -->
      <g transform="translate(214.542969 232.630281) scale(0.11 -0.11)">
       <defs>
        <path id="DejaVuSans-30" d="M 2034 4250 
Q 1547 4250 1301 3770 
Q 1056 3291 1056 2328 
Q 1056 1369 1301 889 
Q 1547 409 2034 409 
Q 2525 409 2770 889 
Q 3016 1369 3016 2328 
Q 3016 3291 2770 3770 
Q 2525 4250 2034 4250 
z
M 2034 4750 
Q 2819 4750 3233 4129 
Q 3647 3509 3647 2328 
Q 3647 1150 3233 529 
Q 2819 -91 2034 -91 
Q 1250 -91 836 529 
Q 422 1150 422 2328 
Q 422 3509 836 4129 
Q 1250 4750 2034 4750 
z
" transform="scale(0.015625)"/>
       </defs>
       <use xlink:href="#DejaVuSans-30"/>
      </g>
     </g>
    </g>
    <g id="xtick_6">
     <g id="line2d_6">
      <g>
       <use xlink:href="#m5954e5d464" x="257.35598" y="217.272" style="stroke: #000000; stroke-width: 0.8"/>
      </g>
     </g>
     <g id="text_6">
      <!-- 1 -->
      <g transform="translate(253.856605 232.630281) scale(0.11 -0.11)">
       <use xlink:href="#DejaVuSans-31"/>
      </g>
     </g>
    </g>
    <g id="xtick_7">
     <g id="line2d_7">
      <g>
       <use xlink:href="#m5954e5d464" x="296.669616" y="217.272" style="stroke: #000000; stroke-width: 0.8"/>
      </g>
     </g>
     <g id="text_7">
      <!-- 2 -->
      <g transform="translate(293.170241 232.630281) scale(0.11 -0.11)">
       <use xlink:href="#DejaVuSans-32"/>
      </g>
     </g>
    </g>
    <g id="xtick_8">
     <g id="line2d_8">
      <g>
       <use xlink:href="#m5954e5d464" x="335.983253" y="217.272" style="stroke: #000000; stroke-width: 0.8"/>
      </g>
     </g>
     <g id="text_8">
      <!-- 3 -->
      <g transform="translate(332.483878 232.630281) scale(0.11 -0.11)">
       <use xlink:href="#DejaVuSans-33"/>
      </g>
     </g>
    </g>
    <g id="xtick_9">
     <g id="line2d_9">
      <g>
       <use xlink:href="#m5954e5d464" x="375.296889" y="217.272" style="stroke: #000000; stroke-width: 0.8"/>
      </g>
     </g>
     <g id="text_9">
      <!-- 4 -->
      <g transform="translate(371.797514 232.630281) scale(0.11 -0.11)">
       <use xlink:href="#DejaVuSans-34"/>
      </g>
     </g>
    </g>
    <g id="text_10">
     <!-- $x$ -->
     <g transform="translate(214.742344 247.276219) scale(0.11 -0.11)">
      <defs>
       <path id="DejaVuSans-Oblique-78" d="M 3841 3500 
L 2234 1784 
L 3219 0 
L 2559 0 
L 1819 1388 
L 531 0 
L -166 0 
L 1556 1844 
L 641 3500 
L 1300 3500 
L 1972 2234 
L 3144 3500 
L 3841 3500 
z
" transform="scale(0.015625)"/>
      </defs>
      <use xlink:href="#DejaVuSans-Oblique-78" transform="translate(0 0.3125)"/>
     </g>
    </g>
   </g>
   <g id="matplotlib.axis_2">
    <g id="ytick_1">
     <g id="line2d_10">
      <defs>
       <path id="m85beb8698a" d="M 0 0 
L -3.5 0 
" style="stroke: #000000; stroke-width: 0.8"/>
      </defs>
      <g>
       <use xlink:href="#m85beb8698a" x="45.062344" y="208.452" style="stroke: #000000; stroke-width: 0.8"/>
      </g>
     </g>
     <g id="text_11">
      <!-- −4 -->
      <g transform="translate(21.845938 212.631141) scale(0.11 -0.11)">
       <use xlink:href="#DejaVuSans-2212"/>
       <use xlink:href="#DejaVuSans-34" transform="translate(83.789062 0)"/>
      </g>
     </g>
    </g>
    <g id="ytick_2">
     <g id="line2d_11">
      <g>
       <use xlink:href="#m85beb8698a" x="45.062344" y="164.352" style="stroke: #000000; stroke-width: 0.8"/>
      </g>
     </g>
     <g id="text_12">
      <!-- −2 -->
      <g transform="translate(21.845938 168.531141) scale(0.11 -0.11)">
       <use xlink:href="#DejaVuSans-2212"/>
       <use xlink:href="#DejaVuSans-32" transform="translate(83.789062 0)"/>
      </g>
     </g>
    </g>
    <g id="ytick_3">
     <g id="line2d_12">
      <g>
       <use xlink:href="#m85beb8698a" x="45.062344" y="120.252" style="stroke: #000000; stroke-width: 0.8"/>
      </g>
     </g>
     <g id="text_13">
      <!-- 0 -->
      <g transform="translate(31.063594 124.431141) scale(0.11 -0.11)">
       <use xlink:href="#DejaVuSans-30"/>
      </g>
     </g>
    </g>
    <g id="ytick_4">
     <g id="line2d_13">
      <g>
       <use xlink:href="#m85beb8698a" x="45.062344" y="76.152" style="stroke: #000000; stroke-width: 0.8"/>
      </g>
     </g>
     <g id="text_14">
      <!-- 2 -->
      <g transform="translate(31.063594 80.331141) scale(0.11 -0.11)">
       <use xlink:href="#DejaVuSans-32"/>
      </g>
     </g>
    </g>
    <g id="ytick_5">
     <g id="line2d_14">
      <g>
       <use xlink:href="#m85beb8698a" x="45.062344" y="32.052" style="stroke: #000000; stroke-width: 0.8"/>
      </g>
     </g>
     <g id="text_15">
      <!-- 4 -->
      <g transform="translate(31.063594 36.231141) scale(0.11 -0.11)">
       <use xlink:href="#DejaVuSans-34"/>
      </g>
     </g>
    </g>
    <g id="text_16">
     <!-- $y$ -->
     <g transform="translate(15.535938 123.552) rotate(-90) scale(0.11 -0.11)">
      <defs>
       <path id="DejaVuSans-Oblique-79" d="M 1588 -325 
Q 1188 -997 936 -1164 
Q 684 -1331 294 -1331 
L -159 -1331 
L -63 -850 
L 269 -850 
Q 509 -850 678 -719 
Q 847 -588 1056 -206 
L 1234 128 
L 459 3500 
L 1069 3500 
L 1650 819 
L 3256 3500 
L 3859 3500 
L 1588 -325 
z
" transform="scale(0.015625)"/>
      </defs>
      <use xlink:href="#DejaVuSans-Oblique-79" transform="translate(0 0.3125)"/>
     </g>
    </g>
   </g>
   <g id="line2d_15">
    <path d="M 60.787798 173.120508 
L 100.101435 162.088426 
L 139.415071 149.214155 
L 178.728707 135.049661 
L 218.042344 120.252 
L 257.35598 105.454339 
L 296.669616 91.289845 
L 335.983253 78.415574 
L 375.296889 67.383492 
" clip-path="url(#p1a00155a19)" style="fill: none; stroke: #b5651d; stroke-width: 2.2; stroke-linecap: square"/>
    <defs>
     <path id="m6d31a52782" d="M 0 2.5 
C 0.663008 2.5 1.29895 2.236584 1.767767 1.767767 
C 2.236584 1.29895 2.5 0.663008 2.5 0 
C 2.5 -0.663008 2.236584 -1.29895 1.767767 -1.767767 
C 1.29895 -2.236584 0.663008 -2.5 0 -2.5 
C -0.663008 -2.5 -1.29895 -2.236584 -1.767767 -1.767767 
C -2.236584 -1.29895 -2.5 -0.663008 -2.5 0 
C -2.5 0.663008 -2.236584 1.29895 -1.767767 1.767767 
C -1.29895 2.236584 -0.663008 2.5 0 2.5 
z
" style="stroke: #b5651d"/>
    </defs>
    <g clip-path="url(#p1a00155a19)">
     <use xlink:href="#m6d31a52782" x="60.787798" y="173.120508" style="fill: #b5651d; stroke: #b5651d"/>
     <use xlink:href="#m6d31a52782" x="100.101435" y="162.088426" style="fill: #b5651d; stroke: #b5651d"/>
     <use xlink:href="#m6d31a52782" x="139.415071" y="149.214155" style="fill: #b5651d; stroke: #b5651d"/>
     <use xlink:href="#m6d31a52782" x="178.728707" y="135.049661" style="fill: #b5651d; stroke: #b5651d"/>
     <use xlink:href="#m6d31a52782" x="218.042344" y="120.252" style="fill: #b5651d; stroke: #b5651d"/>
     <use xlink:href="#m6d31a52782" x="257.35598" y="105.454339" style="fill: #b5651d; stroke: #b5651d"/>
     <use xlink:href="#m6d31a52782" x="296.669616" y="91.289845" style="fill: #b5651d; stroke: #b5651d"/>
     <use xlink:href="#m6d31a52782" x="335.983253" y="78.415574" style="fill: #b5651d; stroke: #b5651d"/>
     <use xlink:href="#m6d31a52782" x="375.296889" y="67.383492" style="fill: #b5651d; stroke: #b5651d"/>
    </g>
   </g>
   <g id="line2d_16">
    <path d="M 60.787798 176.126441 
L 100.101435 162.157831 
L 139.415071 148.189221 
L 178.728707 134.22061 
L 218.042344 120.252 
L 257.35598 106.28339 
L 296.669616 92.314779 
L 335.983253 78.346169 
L 375.296889 64.377559 
" clip-path="url(#p1a00155a19)" style="fill: none; stroke-dasharray: 7.4,3.2; stroke-dashoffset: 0; stroke: #9a5a8a; stroke-width: 2"/>
   </g>
   <g id="patch_3">
    <path d="M 45.062344 217.272 
L 45.062344 23.232 
" style="fill: none; stroke: #000000; stroke-width: 0.8; stroke-linejoin: miter; stroke-linecap: square"/>
   </g>
   <g id="patch_4">
    <path d="M 391.022344 217.272 
L 391.022344 23.232 
" style="fill: none; stroke: #000000; stroke-width: 0.8; stroke-linejoin: miter; stroke-linecap: square"/>
   </g>
   <g id="patch_5">
    <path d="M 45.062344 217.272 
L 391.022344 217.272 
" style="fill: none; stroke: #000000; stroke-width: 0.8; stroke-linejoin: miter; stroke-linecap: square"/>
   </g>
   <g id="patch_6">
    <path d="M 45.062344 23.232 
L 391.022344 23.232 
" style="fill: none; stroke: #000000; stroke-width: 0.8; stroke-linejoin: miter; stroke-linecap: square"/>
   </g>
   <g id="text_17">
    <!-- Conditional mean over a joint law  ($\rho=+0.63$) -->
    <g transform="translate(65.054344 17.232) scale(0.132 -0.132)">
     <defs>
      <path id="DejaVuSans-43" d="M 4122 4306 
L 4122 3641 
Q 3803 3938 3442 4084 
Q 3081 4231 2675 4231 
Q 1875 4231 1450 3742 
Q 1025 3253 1025 2328 
Q 1025 1406 1450 917 
Q 1875 428 2675 428 
Q 3081 428 3442 575 
Q 3803 722 4122 1019 
L 4122 359 
Q 3791 134 3420 21 
Q 3050 -91 2638 -91 
Q 1578 -91 968 557 
Q 359 1206 359 2328 
Q 359 3453 968 4101 
Q 1578 4750 2638 4750 
Q 3056 4750 3426 4639 
Q 3797 4528 4122 4306 
z
" transform="scale(0.015625)"/>
      <path id="DejaVuSans-6f" d="M 1959 3097 
Q 1497 3097 1228 2736 
Q 959 2375 959 1747 
Q 959 1119 1226 758 
Q 1494 397 1959 397 
Q 2419 397 2687 759 
Q 2956 1122 2956 1747 
Q 2956 2369 2687 2733 
Q 2419 3097 1959 3097 
z
M 1959 3584 
Q 2709 3584 3137 3096 
Q 3566 2609 3566 1747 
Q 3566 888 3137 398 
Q 2709 -91 1959 -91 
Q 1206 -91 779 398 
Q 353 888 353 1747 
Q 353 2609 779 3096 
Q 1206 3584 1959 3584 
z
" transform="scale(0.015625)"/>
      <path id="DejaVuSans-6e" d="M 3513 2113 
L 3513 0 
L 2938 0 
L 2938 2094 
Q 2938 2591 2744 2837 
Q 2550 3084 2163 3084 
Q 1697 3084 1428 2787 
Q 1159 2491 1159 1978 
L 1159 0 
L 581 0 
L 581 3500 
L 1159 3500 
L 1159 2956 
Q 1366 3272 1645 3428 
Q 1925 3584 2291 3584 
Q 2894 3584 3203 3211 
Q 3513 2838 3513 2113 
z
" transform="scale(0.015625)"/>
      <path id="DejaVuSans-64" d="M 2906 2969 
L 2906 4863 
L 3481 4863 
L 3481 0 
L 2906 0 
L 2906 525 
Q 2725 213 2448 61 
Q 2172 -91 1784 -91 
Q 1150 -91 751 415 
Q 353 922 353 1747 
Q 353 2572 751 3078 
Q 1150 3584 1784 3584 
Q 2172 3584 2448 3432 
Q 2725 3281 2906 2969 
z
M 947 1747 
Q 947 1113 1208 752 
Q 1469 391 1925 391 
Q 2381 391 2643 752 
Q 2906 1113 2906 1747 
Q 2906 2381 2643 2742 
Q 2381 3103 1925 3103 
Q 1469 3103 1208 2742 
Q 947 2381 947 1747 
z
" transform="scale(0.015625)"/>
      <path id="DejaVuSans-69" d="M 603 3500 
L 1178 3500 
L 1178 0 
L 603 0 
L 603 3500 
z
M 603 4863 
L 1178 4863 
L 1178 4134 
L 603 4134 
L 603 4863 
z
" transform="scale(0.015625)"/>
      <path id="DejaVuSans-74" d="M 1172 4494 
L 1172 3500 
L 2356 3500 
L 2356 3053 
L 1172 3053 
L 1172 1153 
Q 1172 725 1289 603 
Q 1406 481 1766 481 
L 2356 481 
L 2356 0 
L 1766 0 
Q 1100 0 847 248 
Q 594 497 594 1153 
L 594 3053 
L 172 3053 
L 172 3500 
L 594 3500 
L 594 4494 
L 1172 4494 
z
" transform="scale(0.015625)"/>
      <path id="DejaVuSans-61" d="M 2194 1759 
Q 1497 1759 1228 1600 
Q 959 1441 959 1056 
Q 959 750 1161 570 
Q 1363 391 1709 391 
Q 2188 391 2477 730 
Q 2766 1069 2766 1631 
L 2766 1759 
L 2194 1759 
z
M 3341 1997 
L 3341 0 
L 2766 0 
L 2766 531 
Q 2569 213 2275 61 
Q 1981 -91 1556 -91 
Q 1019 -91 701 211 
Q 384 513 384 1019 
Q 384 1609 779 1909 
Q 1175 2209 1959 2209 
L 2766 2209 
L 2766 2266 
Q 2766 2663 2505 2880 
Q 2244 3097 1772 3097 
Q 1472 3097 1187 3025 
Q 903 2953 641 2809 
L 641 3341 
Q 956 3463 1253 3523 
Q 1550 3584 1831 3584 
Q 2591 3584 2966 3190 
Q 3341 2797 3341 1997 
z
" transform="scale(0.015625)"/>
      <path id="DejaVuSans-6c" d="M 603 4863 
L 1178 4863 
L 1178 0 
L 603 0 
L 603 4863 
z
" transform="scale(0.015625)"/>
      <path id="DejaVuSans-20" transform="scale(0.015625)"/>
      <path id="DejaVuSans-6d" d="M 3328 2828 
Q 3544 3216 3844 3400 
Q 4144 3584 4550 3584 
Q 5097 3584 5394 3201 
Q 5691 2819 5691 2113 
L 5691 0 
L 5113 0 
L 5113 2094 
Q 5113 2597 4934 2840 
Q 4756 3084 4391 3084 
Q 3944 3084 3684 2787 
Q 3425 2491 3425 1978 
L 3425 0 
L 2847 0 
L 2847 2094 
Q 2847 2600 2669 2842 
Q 2491 3084 2119 3084 
Q 1678 3084 1418 2786 
Q 1159 2488 1159 1978 
L 1159 0 
L 581 0 
L 581 3500 
L 1159 3500 
L 1159 2956 
Q 1356 3278 1631 3431 
Q 1906 3584 2284 3584 
Q 2666 3584 2933 3390 
Q 3200 3197 3328 2828 
z
" transform="scale(0.015625)"/>
      <path id="DejaVuSans-65" d="M 3597 1894 
L 3597 1613 
L 953 1613 
Q 991 1019 1311 708 
Q 1631 397 2203 397 
Q 2534 397 2845 478 
Q 3156 559 3463 722 
L 3463 178 
Q 3153 47 2828 -22 
Q 2503 -91 2169 -91 
Q 1331 -91 842 396 
Q 353 884 353 1716 
Q 353 2575 817 3079 
Q 1281 3584 2069 3584 
Q 2775 3584 3186 3129 
Q 3597 2675 3597 1894 
z
M 3022 2063 
Q 3016 2534 2758 2815 
Q 2500 3097 2075 3097 
Q 1594 3097 1305 2825 
Q 1016 2553 972 2059 
L 3022 2063 
z
" transform="scale(0.015625)"/>
      <path id="DejaVuSans-76" d="M 191 3500 
L 800 3500 
L 1894 563 
L 2988 3500 
L 3597 3500 
L 2284 0 
L 1503 0 
L 191 3500 
z
" transform="scale(0.015625)"/>
      <path id="DejaVuSans-72" d="M 2631 2963 
Q 2534 3019 2420 3045 
Q 2306 3072 2169 3072 
Q 1681 3072 1420 2755 
Q 1159 2438 1159 1844 
L 1159 0 
L 581 0 
L 581 3500 
L 1159 3500 
L 1159 2956 
Q 1341 3275 1631 3429 
Q 1922 3584 2338 3584 
Q 2397 3584 2469 3576 
Q 2541 3569 2628 3553 
L 2631 2963 
z
" transform="scale(0.015625)"/>
      <path id="DejaVuSans-6a" d="M 603 3500 
L 1178 3500 
L 1178 -63 
Q 1178 -731 923 -1031 
Q 669 -1331 103 -1331 
L -116 -1331 
L -116 -844 
L 38 -844 
Q 366 -844 484 -692 
Q 603 -541 603 -63 
L 603 3500 
z
M 603 4863 
L 1178 4863 
L 1178 4134 
L 603 4134 
L 603 4863 
z
" transform="scale(0.015625)"/>
      <path id="DejaVuSans-77" d="M 269 3500 
L 844 3500 
L 1563 769 
L 2278 3500 
L 2956 3500 
L 3675 769 
L 4391 3500 
L 4966 3500 
L 4050 0 
L 3372 0 
L 2619 2869 
L 1863 0 
L 1184 0 
L 269 3500 
z
" transform="scale(0.015625)"/>
      <path id="DejaVuSans-28" d="M 1984 4856 
Q 1566 4138 1362 3434 
Q 1159 2731 1159 2009 
Q 1159 1288 1364 580 
Q 1569 -128 1984 -844 
L 1484 -844 
Q 1016 -109 783 600 
Q 550 1309 550 2009 
Q 550 2706 781 3412 
Q 1013 4119 1484 4856 
L 1984 4856 
z
" transform="scale(0.015625)"/>
      <path id="DejaVuSans-Oblique-3c1" d="M 1203 2875 
Q 1453 3194 1981 3475 
Q 2188 3584 2756 3584 
Q 3394 3584 3694 3078 
Q 3994 2572 3834 1747 
Q 3672 922 3175 415 
Q 2678 -91 2041 -91 
Q 1656 -91 1409 63 
Q 1163 213 1044 525 
L 681 -1331 
L 103 -1331 
L 697 1716 
Q 838 2438 1203 2875 
z
M 3238 1747 
Q 3359 2381 3169 2744 
Q 2978 3103 2522 3103 
Q 2066 3103 1734 2744 
Q 1403 2381 1281 1747 
Q 1156 1113 1347 750 
Q 1538 391 1994 391 
Q 2450 391 2781 750 
Q 3113 1113 3238 1747 
z
" transform="scale(0.015625)"/>
      <path id="DejaVuSans-3d" d="M 678 2906 
L 4684 2906 
L 4684 2381 
L 678 2381 
L 678 2906 
z
M 678 1631 
L 4684 1631 
L 4684 1100 
L 678 1100 
L 678 1631 
z
" transform="scale(0.015625)"/>
      <path id="DejaVuSans-2b" d="M 2944 4013 
L 2944 2272 
L 4684 2272 
L 4684 1741 
L 2944 1741 
L 2944 0 
L 2419 0 
L 2419 1741 
L 678 1741 
L 678 2272 
L 2419 2272 
L 2419 4013 
L 2944 4013 
z
" transform="scale(0.015625)"/>
      <path id="DejaVuSans-2e" d="M 684 794 
L 1344 794 
L 1344 0 
L 684 0 
L 684 794 
z
" transform="scale(0.015625)"/>
      <path id="DejaVuSans-36" d="M 2113 2584 
Q 1688 2584 1439 2293 
Q 1191 2003 1191 1497 
Q 1191 994 1439 701 
Q 1688 409 2113 409 
Q 2538 409 2786 701 
Q 3034 994 3034 1497 
Q 3034 2003 2786 2293 
Q 2538 2584 2113 2584 
z
M 3366 4563 
L 3366 3988 
Q 3128 4100 2886 4159 
Q 2644 4219 2406 4219 
Q 1781 4219 1451 3797 
Q 1122 3375 1075 2522 
Q 1259 2794 1537 2939 
Q 1816 3084 2150 3084 
Q 2853 3084 3261 2657 
Q 3669 2231 3669 1497 
Q 3669 778 3244 343 
Q 2819 -91 2113 -91 
Q 1303 -91 875 529 
Q 447 1150 447 2328 
Q 447 3434 972 4092 
Q 1497 4750 2381 4750 
Q 2619 4750 2861 4703 
Q 3103 4656 3366 4563 
z
" transform="scale(0.015625)"/>
      <path id="DejaVuSans-29" d="M 513 4856 
L 1013 4856 
Q 1481 4119 1714 3412 
Q 1947 2706 1947 2009 
Q 1947 1309 1714 600 
Q 1481 -109 1013 -844 
L 513 -844 
Q 928 -128 1133 580 
Q 1338 1288 1338 2009 
Q 1338 2731 1133 3434 
Q 928 4138 513 4856 
z
" transform="scale(0.015625)"/>
     </defs>
     <use xlink:href="#DejaVuSans-43" transform="translate(0 0.015625)"/>
     <use xlink:href="#DejaVuSans-6f" transform="translate(69.824219 0.015625)"/>
     <use xlink:href="#DejaVuSans-6e" transform="translate(131.005859 0.015625)"/>
     <use xlink:href="#DejaVuSans-64" transform="translate(194.384766 0.015625)"/>
     <use xlink:href="#DejaVuSans-69" transform="translate(257.861328 0.015625)"/>
     <use xlink:href="#DejaVuSans-74" transform="translate(285.644531 0.015625)"/>
     <use xlink:href="#DejaVuSans-69" transform="translate(324.853516 0.015625)"/>
     <use xlink:href="#DejaVuSans-6f" transform="translate(352.636719 0.015625)"/>
     <use xlink:href="#DejaVuSans-6e" transform="translate(413.818359 0.015625)"/>
     <use xlink:href="#DejaVuSans-61" transform="translate(477.197266 0.015625)"/>
     <use xlink:href="#DejaVuSans-6c" transform="translate(538.476562 0.015625)"/>
     <use xlink:href="#DejaVuSans-20" transform="translate(566.259766 0.015625)"/>
     <use xlink:href="#DejaVuSans-6d" transform="translate(598.046875 0.015625)"/>
     <use xlink:href="#DejaVuSans-65" transform="translate(695.458984 0.015625)"/>
     <use xlink:href="#DejaVuSans-61" transform="translate(756.982422 0.015625)"/>
     <use xlink:href="#DejaVuSans-6e" transform="translate(818.261719 0.015625)"/>
     <use xlink:href="#DejaVuSans-20" transform="translate(881.640625 0.015625)"/>
     <use xlink:href="#DejaVuSans-6f" transform="translate(913.427734 0.015625)"/>
     <use xlink:href="#DejaVuSans-76" transform="translate(974.609375 0.015625)"/>
     <use xlink:href="#DejaVuSans-65" transform="translate(1033.789062 0.015625)"/>
     <use xlink:href="#DejaVuSans-72" transform="translate(1095.3125 0.015625)"/>
     <use xlink:href="#DejaVuSans-20" transform="translate(1136.425781 0.015625)"/>
     <use xlink:href="#DejaVuSans-61" transform="translate(1168.212891 0.015625)"/>
     <use xlink:href="#DejaVuSans-20" transform="translate(1229.492188 0.015625)"/>
     <use xlink:href="#DejaVuSans-6a" transform="translate(1261.279297 0.015625)"/>
     <use xlink:href="#DejaVuSans-6f" transform="translate(1289.0625 0.015625)"/>
     <use xlink:href="#DejaVuSans-69" transform="translate(1350.244141 0.015625)"/>
     <use xlink:href="#DejaVuSans-6e" transform="translate(1378.027344 0.015625)"/>
     <use xlink:href="#DejaVuSans-74" transform="translate(1441.40625 0.015625)"/>
     <use xlink:href="#DejaVuSans-20" transform="translate(1480.615234 0.015625)"/>
     <use xlink:href="#DejaVuSans-6c" transform="translate(1512.402344 0.015625)"/>
     <use xlink:href="#DejaVuSans-61" transform="translate(1540.185547 0.015625)"/>
     <use xlink:href="#DejaVuSans-77" transform="translate(1601.464844 0.015625)"/>
     <use xlink:href="#DejaVuSans-20" transform="translate(1683.251953 0.015625)"/>
     <use xlink:href="#DejaVuSans-20" transform="translate(1715.039062 0.015625)"/>
     <use xlink:href="#DejaVuSans-28" transform="translate(1746.826172 0.015625)"/>
     <use xlink:href="#DejaVuSans-Oblique-3c1" transform="translate(1785.839844 0.015625)"/>
     <use xlink:href="#DejaVuSans-3d" transform="translate(1868.798828 0.015625)"/>
     <use xlink:href="#DejaVuSans-2b" transform="translate(1972.070312 0.015625)"/>
     <use xlink:href="#DejaVuSans-30" transform="translate(2055.859375 0.015625)"/>
     <use xlink:href="#DejaVuSans-2e" transform="translate(2119.482422 0.015625)"/>
     <use xlink:href="#DejaVuSans-36" transform="translate(2151.269531 0.015625)"/>
     <use xlink:href="#DejaVuSans-33" transform="translate(2214.892578 0.015625)"/>
     <use xlink:href="#DejaVuSans-29" transform="translate(2278.515625 0.015625)"/>
    </g>
   </g>
   <g id="legend_1">
    <g id="line2d_17">
     <path d="M 53.162344 35.112 
L 62.162344 35.112 
L 71.162344 35.112 
" style="fill: none; stroke: #b5651d; stroke-width: 2.2; stroke-linecap: square"/>
     <g>
      <use xlink:href="#m6d31a52782" x="62.162344" y="35.112" style="fill: #b5651d; stroke: #b5651d"/>
     </g>
    </g>
    <g id="text_18">
     <!-- $E[Y\,|\,X=x]$ (regression fn) -->
     <g transform="translate(78.362344 38.262) scale(0.09 -0.09)">
      <defs>
       <path id="DejaVuSans-Oblique-45" d="M 1081 4666 
L 4031 4666 
L 3928 4134 
L 1606 4134 
L 1338 2753 
L 3566 2753 
L 3463 2222 
L 1234 2222 
L 909 531 
L 3284 531 
L 3181 0 
L 172 0 
L 1081 4666 
z
" transform="scale(0.015625)"/>
       <path id="DejaVuSans-5b" d="M 550 4863 
L 1875 4863 
L 1875 4416 
L 1125 4416 
L 1125 -397 
L 1875 -397 
L 1875 -844 
L 550 -844 
L 550 4863 
z
" transform="scale(0.015625)"/>
       <path id="DejaVuSans-Oblique-59" d="M 403 4666 
L 1081 4666 
L 1953 2747 
L 3616 4666 
L 4325 4666 
L 2209 2222 
L 1778 0 
L 1147 0 
L 1575 2222 
L 403 4666 
z
" transform="scale(0.015625)"/>
       <path id="DejaVuSans-7c" d="M 1344 4891 
L 1344 -1509 
L 813 -1509 
L 813 4891 
L 1344 4891 
z
" transform="scale(0.015625)"/>
       <path id="DejaVuSans-Oblique-58" d="M 878 4666 
L 1516 4666 
L 2316 2981 
L 3763 4666 
L 4500 4666 
L 2578 2438 
L 3738 0 
L 3103 0 
L 2163 1966 
L 459 0 
L -275 0 
L 1906 2509 
L 878 4666 
z
" transform="scale(0.015625)"/>
       <path id="DejaVuSans-5d" d="M 1947 4863 
L 1947 -844 
L 622 -844 
L 622 -397 
L 1369 -397 
L 1369 4416 
L 622 4416 
L 622 4863 
L 1947 4863 
z
" transform="scale(0.015625)"/>
       <path id="DejaVuSans-67" d="M 2906 1791 
Q 2906 2416 2648 2759 
Q 2391 3103 1925 3103 
Q 1463 3103 1205 2759 
Q 947 2416 947 1791 
Q 947 1169 1205 825 
Q 1463 481 1925 481 
Q 2391 481 2648 825 
Q 2906 1169 2906 1791 
z
M 3481 434 
Q 3481 -459 3084 -895 
Q 2688 -1331 1869 -1331 
Q 1566 -1331 1297 -1286 
Q 1028 -1241 775 -1147 
L 775 -588 
Q 1028 -725 1275 -790 
Q 1522 -856 1778 -856 
Q 2344 -856 2625 -561 
Q 2906 -266 2906 331 
L 2906 616 
Q 2728 306 2450 153 
Q 2172 0 1784 0 
Q 1141 0 747 490 
Q 353 981 353 1791 
Q 353 2603 747 3093 
Q 1141 3584 1784 3584 
Q 2172 3584 2450 3431 
Q 2728 3278 2906 2969 
L 2906 3500 
L 3481 3500 
L 3481 434 
z
" transform="scale(0.015625)"/>
       <path id="DejaVuSans-73" d="M 2834 3397 
L 2834 2853 
Q 2591 2978 2328 3040 
Q 2066 3103 1784 3103 
Q 1356 3103 1142 2972 
Q 928 2841 928 2578 
Q 928 2378 1081 2264 
Q 1234 2150 1697 2047 
L 1894 2003 
Q 2506 1872 2764 1633 
Q 3022 1394 3022 966 
Q 3022 478 2636 193 
Q 2250 -91 1575 -91 
Q 1294 -91 989 -36 
Q 684 19 347 128 
L 347 722 
Q 666 556 975 473 
Q 1284 391 1588 391 
Q 1994 391 2212 530 
Q 2431 669 2431 922 
Q 2431 1156 2273 1281 
Q 2116 1406 1581 1522 
L 1381 1569 
Q 847 1681 609 1914 
Q 372 2147 372 2553 
Q 372 3047 722 3315 
Q 1072 3584 1716 3584 
Q 2034 3584 2315 3537 
Q 2597 3491 2834 3397 
z
" transform="scale(0.015625)"/>
       <path id="DejaVuSans-66" d="M 2375 4863 
L 2375 4384 
L 1825 4384 
Q 1516 4384 1395 4259 
Q 1275 4134 1275 3809 
L 1275 3500 
L 2222 3500 
L 2222 3053 
L 1275 3053 
L 1275 0 
L 697 0 
L 697 3053 
L 147 3053 
L 147 3500 
L 697 3500 
L 697 3744 
Q 697 4328 969 4595 
Q 1241 4863 1831 4863 
L 2375 4863 
z
" transform="scale(0.015625)"/>
      </defs>
      <use xlink:href="#DejaVuSans-Oblique-45" transform="translate(0 0.578125)"/>
      <use xlink:href="#DejaVuSans-5b" transform="translate(63.183594 0.578125)"/>
      <use xlink:href="#DejaVuSans-Oblique-59" transform="translate(102.197266 0.578125)"/>
      <use xlink:href="#DejaVuSans-7c" transform="translate(179.516926 0.578125)"/>
      <use xlink:href="#DejaVuSans-Oblique-58" transform="translate(229.444009 0.578125)"/>
      <use xlink:href="#DejaVuSans-3d" transform="translate(317.43229 0.578125)"/>
      <use xlink:href="#DejaVuSans-Oblique-78" transform="translate(420.703774 0.578125)"/>
      <use xlink:href="#DejaVuSans-5d" transform="translate(479.883462 0.578125)"/>
      <use xlink:href="#DejaVuSans-20" transform="translate(518.897134 0.578125)"/>
      <use xlink:href="#DejaVuSans-28" transform="translate(550.684243 0.578125)"/>
      <use xlink:href="#DejaVuSans-72" transform="translate(589.697915 0.578125)"/>
      <use xlink:href="#DejaVuSans-65" transform="translate(630.811196 0.578125)"/>
      <use xlink:href="#DejaVuSans-67" transform="translate(692.334634 0.578125)"/>
      <use xlink:href="#DejaVuSans-72" transform="translate(755.811196 0.578125)"/>
      <use xlink:href="#DejaVuSans-65" transform="translate(796.924478 0.578125)"/>
      <use xlink:href="#DejaVuSans-73" transform="translate(858.447915 0.578125)"/>
      <use xlink:href="#DejaVuSans-73" transform="translate(910.547524 0.578125)"/>
      <use xlink:href="#DejaVuSans-69" transform="translate(962.647134 0.578125)"/>
      <use xlink:href="#DejaVuSans-6f" transform="translate(990.430337 0.578125)"/>
      <use xlink:href="#DejaVuSans-6e" transform="translate(1051.611978 0.578125)"/>
      <use xlink:href="#DejaVuSans-20" transform="translate(1114.990884 0.578125)"/>
      <use xlink:href="#DejaVuSans-66" transform="translate(1146.777993 0.578125)"/>
      <use xlink:href="#DejaVuSans-6e" transform="translate(1181.983071 0.578125)"/>
      <use xlink:href="#DejaVuSans-29" transform="translate(1245.361978 0.578125)"/>
     </g>
    </g>
    <g id="line2d_18">
     <path d="M 53.162344 48.612 
L 62.162344 48.612 
L 71.162344 48.612 
" style="fill: none; stroke-dasharray: 7.4,3.2; stroke-dashoffset: 0; stroke: #9a5a8a; stroke-width: 2"/>
    </g>
    <g id="text_19">
     <!-- least-squares line, slope $=+0.63$ -->
     <g transform="translate(78.362344 51.762) scale(0.09 -0.09)">
      <defs>
       <path id="DejaVuSans-2d" d="M 313 2009 
L 1997 2009 
L 1997 1497 
L 313 1497 
L 313 2009 
z
" transform="scale(0.015625)"/>
       <path id="DejaVuSans-71" d="M 947 1747 
Q 947 1113 1208 752 
Q 1469 391 1925 391 
Q 2381 391 2643 752 
Q 2906 1113 2906 1747 
Q 2906 2381 2643 2742 
Q 2381 3103 1925 3103 
Q 1469 3103 1208 2742 
Q 947 2381 947 1747 
z
M 2906 525 
Q 2725 213 2448 61 
Q 2172 -91 1784 -91 
Q 1150 -91 751 415 
Q 353 922 353 1747 
Q 353 2572 751 3078 
Q 1150 3584 1784 3584 
Q 2172 3584 2448 3432 
Q 2725 3281 2906 2969 
L 2906 3500 
L 3481 3500 
L 3481 -1331 
L 2906 -1331 
L 2906 525 
z
" transform="scale(0.015625)"/>
       <path id="DejaVuSans-75" d="M 544 1381 
L 544 3500 
L 1119 3500 
L 1119 1403 
Q 1119 906 1312 657 
Q 1506 409 1894 409 
Q 2359 409 2629 706 
Q 2900 1003 2900 1516 
L 2900 3500 
L 3475 3500 
L 3475 0 
L 2900 0 
L 2900 538 
Q 2691 219 2414 64 
Q 2138 -91 1772 -91 
Q 1169 -91 856 284 
Q 544 659 544 1381 
z
M 1991 3584 
L 1991 3584 
z
" transform="scale(0.015625)"/>
       <path id="DejaVuSans-2c" d="M 750 794 
L 1409 794 
L 1409 256 
L 897 -744 
L 494 -744 
L 750 256 
L 750 794 
z
" transform="scale(0.015625)"/>
       <path id="DejaVuSans-70" d="M 1159 525 
L 1159 -1331 
L 581 -1331 
L 581 3500 
L 1159 3500 
L 1159 2969 
Q 1341 3281 1617 3432 
Q 1894 3584 2278 3584 
Q 2916 3584 3314 3078 
Q 3713 2572 3713 1747 
Q 3713 922 3314 415 
Q 2916 -91 2278 -91 
Q 1894 -91 1617 61 
Q 1341 213 1159 525 
z
M 3116 1747 
Q 3116 2381 2855 2742 
Q 2594 3103 2138 3103 
Q 1681 3103 1420 2742 
Q 1159 2381 1159 1747 
Q 1159 1113 1420 752 
Q 1681 391 2138 391 
Q 2594 391 2855 752 
Q 3116 1113 3116 1747 
z
" transform="scale(0.015625)"/>
      </defs>
      <use xlink:href="#DejaVuSans-6c" transform="translate(0 0.015625)"/>
      <use xlink:href="#DejaVuSans-65" transform="translate(27.783203 0.015625)"/>
      <use xlink:href="#DejaVuSans-61" transform="translate(89.306641 0.015625)"/>
      <use xlink:href="#DejaVuSans-73" transform="translate(150.585938 0.015625)"/>
      <use xlink:href="#DejaVuSans-74" transform="translate(202.685547 0.015625)"/>
      <use xlink:href="#DejaVuSans-2d" transform="translate(241.894531 0.015625)"/>
      <use xlink:href="#DejaVuSans-73" transform="translate(277.978516 0.015625)"/>
      <use xlink:href="#DejaVuSans-71" transform="translate(330.078125 0.015625)"/>
      <use xlink:href="#DejaVuSans-75" transform="translate(393.554688 0.015625)"/>
      <use xlink:href="#DejaVuSans-61" transform="translate(456.933594 0.015625)"/>
      <use xlink:href="#DejaVuSans-72" transform="translate(518.212891 0.015625)"/>
      <use xlink:href="#DejaVuSans-65" transform="translate(559.326172 0.015625)"/>
      <use xlink:href="#DejaVuSans-73" transform="translate(620.849609 0.015625)"/>
      <use xlink:href="#DejaVuSans-20" transform="translate(672.949219 0.015625)"/>
      <use xlink:href="#DejaVuSans-6c" transform="translate(704.736328 0.015625)"/>
      <use xlink:href="#DejaVuSans-69" transform="translate(732.519531 0.015625)"/>
      <use xlink:href="#DejaVuSans-6e" transform="translate(760.302734 0.015625)"/>
      <use xlink:href="#DejaVuSans-65" transform="translate(823.681641 0.015625)"/>
      <use xlink:href="#DejaVuSans-2c" transform="translate(885.205078 0.015625)"/>
      <use xlink:href="#DejaVuSans-20" transform="translate(916.992188 0.015625)"/>
      <use xlink:href="#DejaVuSans-73" transform="translate(948.779297 0.015625)"/>
      <use xlink:href="#DejaVuSans-6c" transform="translate(1000.878906 0.015625)"/>
      <use xlink:href="#DejaVuSans-6f" transform="translate(1028.662109 0.015625)"/>
      <use xlink:href="#DejaVuSans-70" transform="translate(1089.84375 0.015625)"/>
      <use xlink:href="#DejaVuSans-65" transform="translate(1153.320312 0.015625)"/>
      <use xlink:href="#DejaVuSans-20" transform="translate(1214.84375 0.015625)"/>
      <use xlink:href="#DejaVuSans-3d" transform="translate(1266.113281 0.015625)"/>
      <use xlink:href="#DejaVuSans-2b" transform="translate(1369.384766 0.015625)"/>
      <use xlink:href="#DejaVuSans-30" transform="translate(1453.173828 0.015625)"/>
      <use xlink:href="#DejaVuSans-2e" transform="translate(1516.796875 0.015625)"/>
      <use xlink:href="#DejaVuSans-36" transform="translate(1548.583984 0.015625)"/>
      <use xlink:href="#DejaVuSans-33" transform="translate(1612.207031 0.015625)"/>
     </g>
    </g>
   </g>
  </g>
 </g>
 <defs>
  <clipPath id="p1a00155a19">
   <rect x="45.062344" y="23.232" width="345.96" height="194.04"/>
  </clipPath>
 </defs>
</svg>
