<?xml version="1.0" encoding="utf-8" standalone="no"?>
<!DOCTYPE svg PUBLIC "-//W3C//DTD SVG 1.1//EN"
  "http://www.w3.org/Graphics/SVG/1.1/DTD/svg11.dtd">
<svg xmlns:xlink="http://www.w3.org/1999/xlink" width="424.477438pt" height="256.787937pt" viewBox="0 0 424.477438 256.787937" xmlns="http://www.w3.org/2000/svg" version="1.1">
 <metadata>
  <rdf:RDF xmlns:dc="http://purl.org/dc/elements/1.1/" xmlns:cc="http://creativecommons.org/ns#" xmlns:rdf="http://www.w3.org/1999/02/22-rdf-syntax-ns#">
   <cc:Work>
    <dc:type rdf:resource="http://purl.org/dc/dcmitype/StillImage"/>
    <dc:date>2026-06-27T00:38:05.245269</dc:date>
    <dc:format>image/svg+xml</dc:format>
    <dc:creator>
     <cc:Agent>
      <dc:title>Matplotlib v3.10.3, https://matplotlib.org/</dc:title>
     </cc:Agent>
    </dc:creator>
   </cc:Work>
  </rdf:RDF>
 </metadata>
 <defs>
  <style type="text/css">*{stroke-linejoin: round; stroke-linecap: butt}</style>
 </defs>
 <g id="figure_1">
  <g id="patch_1">
   <path d="M 0 256.787937 
L 424.477438 256.787937 
L 424.477438 0 
L 0 0 
z
" style="fill: #ffffff"/>
  </g>
  <g id="axes_1">
   <g id="patch_2">
    <path d="M 46.363438 217.272 
L 392.323438 217.272 
L 392.323438 23.232 
L 46.363438 23.232 
z
" style="fill: #ffffff"/>
   </g>
   <g id="matplotlib.axis_1">
    <g id="xtick_1">
     <g id="line2d_1">
      <defs>
       <path id="me4c23934c1" d="M 0 0 
L 0 3.5 
" style="stroke: #000000; stroke-width: 0.8"/>
      </defs>
      <g>
       <use xlink:href="#me4c23934c1" x="46.363438" y="217.272" style="stroke: #000000; stroke-width: 0.8"/>
      </g>
     </g>
     <g id="text_1">
      <!-- 0.0 -->
      <g transform="translate(37.616719 232.630281) scale(0.11 -0.11)">
       <defs>
        <path id="DejaVuSans-30" d="M 2034 4250 
Q 1547 4250 1301 3770 
Q 1056 3291 1056 2328 
Q 1056 1369 1301 889 
Q 1547 409 2034 409 
Q 2525 409 2770 889 
Q 3016 1369 3016 2328 
Q 3016 3291 2770 3770 
Q 2525 4250 2034 4250 
z
M 2034 4750 
Q 2819 4750 3233 4129 
Q 3647 3509 3647 2328 
Q 3647 1150 3233 529 
Q 2819 -91 2034 -91 
Q 1250 -91 836 529 
Q 422 1150 422 2328 
Q 422 3509 836 4129 
Q 1250 4750 2034 4750 
z
" transform="scale(0.015625)"/>
        <path id="DejaVuSans-2e" d="M 684 794 
L 1344 794 
L 1344 0 
L 684 0 
L 684 794 
z
" transform="scale(0.015625)"/>
       </defs>
       <use xlink:href="#DejaVuSans-30"/>
       <use xlink:href="#DejaVuSans-2e" transform="translate(63.623047 0)"/>
       <use xlink:href="#DejaVuSans-30" transform="translate(95.410156 0)"/>
      </g>
     </g>
    </g>
    <g id="xtick_2">
     <g id="line2d_2">
      <g>
       <use xlink:href="#me4c23934c1" x="95.786295" y="217.272" style="stroke: #000000; stroke-width: 0.8"/>
      </g>
     </g>
     <g id="text_2">
      <!-- 0.2 -->
      <g transform="translate(87.039576 232.630281) scale(0.11 -0.11)">
       <defs>
        <path id="DejaVuSans-32" d="M 1228 531 
L 3431 531 
L 3431 0 
L 469 0 
L 469 531 
Q 828 903 1448 1529 
Q 2069 2156 2228 2338 
Q 2531 2678 2651 2914 
Q 2772 3150 2772 3378 
Q 2772 3750 2511 3984 
Q 2250 4219 1831 4219 
Q 1534 4219 1204 4116 
Q 875 4013 500 3803 
L 500 4441 
Q 881 4594 1212 4672 
Q 1544 4750 1819 4750 
Q 2544 4750 2975 4387 
Q 3406 4025 3406 3419 
Q 3406 3131 3298 2873 
Q 3191 2616 2906 2266 
Q 2828 2175 2409 1742 
Q 1991 1309 1228 531 
z
" transform="scale(0.015625)"/>
       </defs>
       <use xlink:href="#DejaVuSans-30"/>
       <use xlink:href="#DejaVuSans-2e" transform="translate(63.623047 0)"/>
       <use xlink:href="#DejaVuSans-32" transform="translate(95.410156 0)"/>
      </g>
     </g>
    </g>
    <g id="xtick_3">
     <g id="line2d_3">
      <g>
       <use xlink:href="#me4c23934c1" x="145.209152" y="217.272" style="stroke: #000000; stroke-width: 0.8"/>
      </g>
     </g>
     <g id="text_3">
      <!-- 0.4 -->
      <g transform="translate(136.462433 232.630281) scale(0.11 -0.11)">
       <defs>
        <path id="DejaVuSans-34" d="M 2419 4116 
L 825 1625 
L 2419 1625 
L 2419 4116 
z
M 2253 4666 
L 3047 4666 
L 3047 1625 
L 3713 1625 
L 3713 1100 
L 3047 1100 
L 3047 0 
L 2419 0 
L 2419 1100 
L 313 1100 
L 313 1709 
L 2253 4666 
z
" transform="scale(0.015625)"/>
       </defs>
       <use xlink:href="#DejaVuSans-30"/>
       <use xlink:href="#DejaVuSans-2e" transform="translate(63.623047 0)"/>
       <use xlink:href="#DejaVuSans-34" transform="translate(95.410156 0)"/>
      </g>
     </g>
    </g>
    <g id="xtick_4">
     <g id="line2d_4">
      <g>
       <use xlink:href="#me4c23934c1" x="194.632009" y="217.272" style="stroke: #000000; stroke-width: 0.8"/>
      </g>
     </g>
     <g id="text_4">
      <!-- 0.6 -->
      <g transform="translate(185.88529 232.630281) scale(0.11 -0.11)">
       <defs>
        <path id="DejaVuSans-36" d="M 2113 2584 
Q 1688 2584 1439 2293 
Q 1191 2003 1191 1497 
Q 1191 994 1439 701 
Q 1688 409 2113 409 
Q 2538 409 2786 701 
Q 3034 994 3034 1497 
Q 3034 2003 2786 2293 
Q 2538 2584 2113 2584 
z
M 3366 4563 
L 3366 3988 
Q 3128 4100 2886 4159 
Q 2644 4219 2406 4219 
Q 1781 4219 1451 3797 
Q 1122 3375 1075 2522 
Q 1259 2794 1537 2939 
Q 1816 3084 2150 3084 
Q 2853 3084 3261 2657 
Q 3669 2231 3669 1497 
Q 3669 778 3244 343 
Q 2819 -91 2113 -91 
Q 1303 -91 875 529 
Q 447 1150 447 2328 
Q 447 3434 972 4092 
Q 1497 4750 2381 4750 
Q 2619 4750 2861 4703 
Q 3103 4656 3366 4563 
z
" transform="scale(0.015625)"/>
       </defs>
       <use xlink:href="#DejaVuSans-30"/>
       <use xlink:href="#DejaVuSans-2e" transform="translate(63.623047 0)"/>
       <use xlink:href="#DejaVuSans-36" transform="translate(95.410156 0)"/>
      </g>
     </g>
    </g>
    <g id="xtick_5">
     <g id="line2d_5">
      <g>
       <use xlink:href="#me4c23934c1" x="244.054866" y="217.272" style="stroke: #000000; stroke-width: 0.8"/>
      </g>
     </g>
     <g id="text_5">
      <!-- 0.8 -->
      <g transform="translate(235.308147 232.630281) scale(0.11 -0.11)">
       <defs>
        <path id="DejaVuSans-38" d="M 2034 2216 
Q 1584 2216 1326 1975 
Q 1069 1734 1069 1313 
Q 1069 891 1326 650 
Q 1584 409 2034 409 
Q 2484 409 2743 651 
Q 3003 894 3003 1313 
Q 3003 1734 2745 1975 
Q 2488 2216 2034 2216 
z
M 1403 2484 
Q 997 2584 770 2862 
Q 544 3141 544 3541 
Q 544 4100 942 4425 
Q 1341 4750 2034 4750 
Q 2731 4750 3128 4425 
Q 3525 4100 3525 3541 
Q 3525 3141 3298 2862 
Q 3072 2584 2669 2484 
Q 3125 2378 3379 2068 
Q 3634 1759 3634 1313 
Q 3634 634 3220 271 
Q 2806 -91 2034 -91 
Q 1263 -91 848 271 
Q 434 634 434 1313 
Q 434 1759 690 2068 
Q 947 2378 1403 2484 
z
M 1172 3481 
Q 1172 3119 1398 2916 
Q 1625 2713 2034 2713 
Q 2441 2713 2670 2916 
Q 2900 3119 2900 3481 
Q 2900 3844 2670 4047 
Q 2441 4250 2034 4250 
Q 1625 4250 1398 4047 
Q 1172 3844 1172 3481 
z
" transform="scale(0.015625)"/>
       </defs>
       <use xlink:href="#DejaVuSans-30"/>
       <use xlink:href="#DejaVuSans-2e" transform="translate(63.623047 0)"/>
       <use xlink:href="#DejaVuSans-38" transform="translate(95.410156 0)"/>
      </g>
     </g>
    </g>
    <g id="xtick_6">
     <g id="line2d_6">
      <g>
       <use xlink:href="#me4c23934c1" x="293.477723" y="217.272" style="stroke: #000000; stroke-width: 0.8"/>
      </g>
     </g>
     <g id="text_6">
      <!-- 1.0 -->
      <g transform="translate(284.731004 232.630281) scale(0.11 -0.11)">
       <defs>
        <path id="DejaVuSans-31" d="M 794 531 
L 1825 531 
L 1825 4091 
L 703 3866 
L 703 4441 
L 1819 4666 
L 2450 4666 
L 2450 531 
L 3481 531 
L 3481 0 
L 794 0 
L 794 531 
z
" transform="scale(0.015625)"/>
       </defs>
       <use xlink:href="#DejaVuSans-31"/>
       <use xlink:href="#DejaVuSans-2e" transform="translate(63.623047 0)"/>
       <use xlink:href="#DejaVuSans-30" transform="translate(95.410156 0)"/>
      </g>
     </g>
    </g>
    <g id="xtick_7">
     <g id="line2d_7">
      <g>
       <use xlink:href="#me4c23934c1" x="342.90058" y="217.272" style="stroke: #000000; stroke-width: 0.8"/>
      </g>
     </g>
     <g id="text_7">
      <!-- 1.2 -->
      <g transform="translate(334.153862 232.630281) scale(0.11 -0.11)">
       <use xlink:href="#DejaVuSans-31"/>
       <use xlink:href="#DejaVuSans-2e" transform="translate(63.623047 0)"/>
       <use xlink:href="#DejaVuSans-32" transform="translate(95.410156 0)"/>
      </g>
     </g>
    </g>
    <g id="xtick_8">
     <g id="line2d_8">
      <g>
       <use xlink:href="#me4c23934c1" x="392.323438" y="217.272" style="stroke: #000000; stroke-width: 0.8"/>
      </g>
     </g>
     <g id="text_8">
      <!-- 1.4 -->
      <g transform="translate(383.576719 232.630281) scale(0.11 -0.11)">
       <use xlink:href="#DejaVuSans-31"/>
       <use xlink:href="#DejaVuSans-2e" transform="translate(63.623047 0)"/>
       <use xlink:href="#DejaVuSans-34" transform="translate(95.410156 0)"/>
      </g>
     </g>
    </g>
    <g id="text_9">
     <!-- reduced temperature $T/T_c$ -->
     <g transform="translate(147.788438 247.277938) scale(0.11 -0.11)">
      <defs>
       <path id="DejaVuSans-72" d="M 2631 2963 
Q 2534 3019 2420 3045 
Q 2306 3072 2169 3072 
Q 1681 3072 1420 2755 
Q 1159 2438 1159 1844 
L 1159 0 
L 581 0 
L 581 3500 
L 1159 3500 
L 1159 2956 
Q 1341 3275 1631 3429 
Q 1922 3584 2338 3584 
Q 2397 3584 2469 3576 
Q 2541 3569 2628 3553 
L 2631 2963 
z
" transform="scale(0.015625)"/>
       <path id="DejaVuSans-65" d="M 3597 1894 
L 3597 1613 
L 953 1613 
Q 991 1019 1311 708 
Q 1631 397 2203 397 
Q 2534 397 2845 478 
Q 3156 559 3463 722 
L 3463 178 
Q 3153 47 2828 -22 
Q 2503 -91 2169 -91 
Q 1331 -91 842 396 
Q 353 884 353 1716 
Q 353 2575 817 3079 
Q 1281 3584 2069 3584 
Q 2775 3584 3186 3129 
Q 3597 2675 3597 1894 
z
M 3022 2063 
Q 3016 2534 2758 2815 
Q 2500 3097 2075 3097 
Q 1594 3097 1305 2825 
Q 1016 2553 972 2059 
L 3022 2063 
z
" transform="scale(0.015625)"/>
       <path id="DejaVuSans-64" d="M 2906 2969 
L 2906 4863 
L 3481 4863 
L 3481 0 
L 2906 0 
L 2906 525 
Q 2725 213 2448 61 
Q 2172 -91 1784 -91 
Q 1150 -91 751 415 
Q 353 922 353 1747 
Q 353 2572 751 3078 
Q 1150 3584 1784 3584 
Q 2172 3584 2448 3432 
Q 2725 3281 2906 2969 
z
M 947 1747 
Q 947 1113 1208 752 
Q 1469 391 1925 391 
Q 2381 391 2643 752 
Q 2906 1113 2906 1747 
Q 2906 2381 2643 2742 
Q 2381 3103 1925 3103 
Q 1469 3103 1208 2742 
Q 947 2381 947 1747 
z
" transform="scale(0.015625)"/>
       <path id="DejaVuSans-75" d="M 544 1381 
L 544 3500 
L 1119 3500 
L 1119 1403 
Q 1119 906 1312 657 
Q 1506 409 1894 409 
Q 2359 409 2629 706 
Q 2900 1003 2900 1516 
L 2900 3500 
L 3475 3500 
L 3475 0 
L 2900 0 
L 2900 538 
Q 2691 219 2414 64 
Q 2138 -91 1772 -91 
Q 1169 -91 856 284 
Q 544 659 544 1381 
z
M 1991 3584 
L 1991 3584 
z
" transform="scale(0.015625)"/>
       <path id="DejaVuSans-63" d="M 3122 3366 
L 3122 2828 
Q 2878 2963 2633 3030 
Q 2388 3097 2138 3097 
Q 1578 3097 1268 2742 
Q 959 2388 959 1747 
Q 959 1106 1268 751 
Q 1578 397 2138 397 
Q 2388 397 2633 464 
Q 2878 531 3122 666 
L 3122 134 
Q 2881 22 2623 -34 
Q 2366 -91 2075 -91 
Q 1284 -91 818 406 
Q 353 903 353 1747 
Q 353 2603 823 3093 
Q 1294 3584 2113 3584 
Q 2378 3584 2631 3529 
Q 2884 3475 3122 3366 
z
" transform="scale(0.015625)"/>
       <path id="DejaVuSans-20" transform="scale(0.015625)"/>
       <path id="DejaVuSans-74" d="M 1172 4494 
L 1172 3500 
L 2356 3500 
L 2356 3053 
L 1172 3053 
L 1172 1153 
Q 1172 725 1289 603 
Q 1406 481 1766 481 
L 2356 481 
L 2356 0 
L 1766 0 
Q 1100 0 847 248 
Q 594 497 594 1153 
L 594 3053 
L 172 3053 
L 172 3500 
L 594 3500 
L 594 4494 
L 1172 4494 
z
" transform="scale(0.015625)"/>
       <path id="DejaVuSans-6d" d="M 3328 2828 
Q 3544 3216 3844 3400 
Q 4144 3584 4550 3584 
Q 5097 3584 5394 3201 
Q 5691 2819 5691 2113 
L 5691 0 
L 5113 0 
L 5113 2094 
Q 5113 2597 4934 2840 
Q 4756 3084 4391 3084 
Q 3944 3084 3684 2787 
Q 3425 2491 3425 1978 
L 3425 0 
L 2847 0 
L 2847 2094 
Q 2847 2600 2669 2842 
Q 2491 3084 2119 3084 
Q 1678 3084 1418 2786 
Q 1159 2488 1159 1978 
L 1159 0 
L 581 0 
L 581 3500 
L 1159 3500 
L 1159 2956 
Q 1356 3278 1631 3431 
Q 1906 3584 2284 3584 
Q 2666 3584 2933 3390 
Q 3200 3197 3328 2828 
z
" transform="scale(0.015625)"/>
       <path id="DejaVuSans-70" d="M 1159 525 
L 1159 -1331 
L 581 -1331 
L 581 3500 
L 1159 3500 
L 1159 2969 
Q 1341 3281 1617 3432 
Q 1894 3584 2278 3584 
Q 2916 3584 3314 3078 
Q 3713 2572 3713 1747 
Q 3713 922 3314 415 
Q 2916 -91 2278 -91 
Q 1894 -91 1617 61 
Q 1341 213 1159 525 
z
M 3116 1747 
Q 3116 2381 2855 2742 
Q 2594 3103 2138 3103 
Q 1681 3103 1420 2742 
Q 1159 2381 1159 1747 
Q 1159 1113 1420 752 
Q 1681 391 2138 391 
Q 2594 391 2855 752 
Q 3116 1113 3116 1747 
z
" transform="scale(0.015625)"/>
       <path id="DejaVuSans-61" d="M 2194 1759 
Q 1497 1759 1228 1600 
Q 959 1441 959 1056 
Q 959 750 1161 570 
Q 1363 391 1709 391 
Q 2188 391 2477 730 
Q 2766 1069 2766 1631 
L 2766 1759 
L 2194 1759 
z
M 3341 1997 
L 3341 0 
L 2766 0 
L 2766 531 
Q 2569 213 2275 61 
Q 1981 -91 1556 -91 
Q 1019 -91 701 211 
Q 384 513 384 1019 
Q 384 1609 779 1909 
Q 1175 2209 1959 2209 
L 2766 2209 
L 2766 2266 
Q 2766 2663 2505 2880 
Q 2244 3097 1772 3097 
Q 1472 3097 1187 3025 
Q 903 2953 641 2809 
L 641 3341 
Q 956 3463 1253 3523 
Q 1550 3584 1831 3584 
Q 2591 3584 2966 3190 
Q 3341 2797 3341 1997 
z
" transform="scale(0.015625)"/>
       <path id="DejaVuSans-Oblique-54" d="M 378 4666 
L 4325 4666 
L 4225 4134 
L 2559 4134 
L 1759 0 
L 1125 0 
L 1925 4134 
L 275 4134 
L 378 4666 
z
" transform="scale(0.015625)"/>
       <path id="DejaVuSans-2f" d="M 1625 4666 
L 2156 4666 
L 531 -594 
L 0 -594 
L 1625 4666 
z
" transform="scale(0.015625)"/>
       <path id="DejaVuSans-Oblique-63" d="M 3431 3366 
L 3316 2797 
Q 3109 2947 2876 3022 
Q 2644 3097 2394 3097 
Q 2119 3097 1870 3000 
Q 1622 2903 1453 2725 
Q 1184 2453 1037 2087 
Q 891 1722 891 1331 
Q 891 859 1127 628 
Q 1363 397 1844 397 
Q 2081 397 2348 469 
Q 2616 541 2906 684 
L 2797 116 
Q 2547 13 2283 -39 
Q 2019 -91 1741 -91 
Q 1044 -91 669 257 
Q 294 606 294 1253 
Q 294 1797 489 2255 
Q 684 2713 1069 3078 
Q 1331 3328 1684 3456 
Q 2038 3584 2456 3584 
Q 2700 3584 2940 3529 
Q 3181 3475 3431 3366 
z
" transform="scale(0.015625)"/>
      </defs>
      <use xlink:href="#DejaVuSans-72" transform="translate(0 0.015625)"/>
      <use xlink:href="#DejaVuSans-65" transform="translate(41.113281 0.015625)"/>
      <use xlink:href="#DejaVuSans-64" transform="translate(102.636719 0.015625)"/>
      <use xlink:href="#DejaVuSans-75" transform="translate(166.113281 0.015625)"/>
      <use xlink:href="#DejaVuSans-63" transform="translate(229.492188 0.015625)"/>
      <use xlink:href="#DejaVuSans-65" transform="translate(284.472656 0.015625)"/>
      <use xlink:href="#DejaVuSans-64" transform="translate(345.996094 0.015625)"/>
      <use xlink:href="#DejaVuSans-20" transform="translate(409.472656 0.015625)"/>
      <use xlink:href="#DejaVuSans-74" transform="translate(441.259766 0.015625)"/>
      <use xlink:href="#DejaVuSans-65" transform="translate(480.46875 0.015625)"/>
      <use xlink:href="#DejaVuSans-6d" transform="translate(541.992188 0.015625)"/>
      <use xlink:href="#DejaVuSans-70" transform="translate(639.404297 0.015625)"/>
      <use xlink:href="#DejaVuSans-65" transform="translate(702.880859 0.015625)"/>
      <use xlink:href="#DejaVuSans-72" transform="translate(764.404297 0.015625)"/>
      <use xlink:href="#DejaVuSans-61" transform="translate(805.517578 0.015625)"/>
      <use xlink:href="#DejaVuSans-74" transform="translate(866.796875 0.015625)"/>
      <use xlink:href="#DejaVuSans-75" transform="translate(906.005859 0.015625)"/>
      <use xlink:href="#DejaVuSans-72" transform="translate(969.384766 0.015625)"/>
      <use xlink:href="#DejaVuSans-65" transform="translate(1010.498047 0.015625)"/>
      <use xlink:href="#DejaVuSans-20" transform="translate(1072.021484 0.015625)"/>
      <use xlink:href="#DejaVuSans-Oblique-54" transform="translate(1103.808594 0.015625)"/>
      <use xlink:href="#DejaVuSans-2f" transform="translate(1164.892578 0.015625)"/>
      <use xlink:href="#DejaVuSans-Oblique-54" transform="translate(1198.583984 0.015625)"/>
      <use xlink:href="#DejaVuSans-Oblique-63" transform="translate(1259.667969 -16.390625) scale(0.7)"/>
     </g>
    </g>
   </g>
   <g id="matplotlib.axis_2">
    <g id="ytick_1">
     <g id="line2d_9">
      <defs>
       <path id="mc8e8431fe7" d="M 0 0 
L -3.5 0 
" style="stroke: #000000; stroke-width: 0.8"/>
      </defs>
      <g>
       <use xlink:href="#mc8e8431fe7" x="46.363438" y="211.882" style="stroke: #000000; stroke-width: 0.8"/>
      </g>
     </g>
     <g id="text_10">
      <!-- 0.0 -->
      <g transform="translate(21.87 216.061141) scale(0.11 -0.11)">
       <use xlink:href="#DejaVuSans-30"/>
       <use xlink:href="#DejaVuSans-2e" transform="translate(63.623047 0)"/>
       <use xlink:href="#DejaVuSans-30" transform="translate(95.410156 0)"/>
      </g>
     </g>
    </g>
    <g id="ytick_2">
     <g id="line2d_10">
      <g>
       <use xlink:href="#mc8e8431fe7" x="46.363438" y="175.948667" style="stroke: #000000; stroke-width: 0.8"/>
      </g>
     </g>
     <g id="text_11">
      <!-- 0.2 -->
      <g transform="translate(21.87 180.127807) scale(0.11 -0.11)">
       <use xlink:href="#DejaVuSans-30"/>
       <use xlink:href="#DejaVuSans-2e" transform="translate(63.623047 0)"/>
       <use xlink:href="#DejaVuSans-32" transform="translate(95.410156 0)"/>
      </g>
     </g>
    </g>
    <g id="ytick_3">
     <g id="line2d_11">
      <g>
       <use xlink:href="#mc8e8431fe7" x="46.363438" y="140.015333" style="stroke: #000000; stroke-width: 0.8"/>
      </g>
     </g>
     <g id="text_12">
      <!-- 0.4 -->
      <g transform="translate(21.87 144.194474) scale(0.11 -0.11)">
       <use xlink:href="#DejaVuSans-30"/>
       <use xlink:href="#DejaVuSans-2e" transform="translate(63.623047 0)"/>
       <use xlink:href="#DejaVuSans-34" transform="translate(95.410156 0)"/>
      </g>
     </g>
    </g>
    <g id="ytick_4">
     <g id="line2d_12">
      <g>
       <use xlink:href="#mc8e8431fe7" x="46.363438" y="104.082" style="stroke: #000000; stroke-width: 0.8"/>
      </g>
     </g>
     <g id="text_13">
      <!-- 0.6 -->
      <g transform="translate(21.87 108.261141) scale(0.11 -0.11)">
       <use xlink:href="#DejaVuSans-30"/>
       <use xlink:href="#DejaVuSans-2e" transform="translate(63.623047 0)"/>
       <use xlink:href="#DejaVuSans-36" transform="translate(95.410156 0)"/>
      </g>
     </g>
    </g>
    <g id="ytick_5">
     <g id="line2d_13">
      <g>
       <use xlink:href="#mc8e8431fe7" x="46.363438" y="68.148667" style="stroke: #000000; stroke-width: 0.8"/>
      </g>
     </g>
     <g id="text_14">
      <!-- 0.8 -->
      <g transform="translate(21.87 72.327807) scale(0.11 -0.11)">
       <use xlink:href="#DejaVuSans-30"/>
       <use xlink:href="#DejaVuSans-2e" transform="translate(63.623047 0)"/>
       <use xlink:href="#DejaVuSans-38" transform="translate(95.410156 0)"/>
      </g>
     </g>
    </g>
    <g id="ytick_6">
     <g id="line2d_14">
      <g>
       <use xlink:href="#mc8e8431fe7" x="46.363438" y="32.215333" style="stroke: #000000; stroke-width: 0.8"/>
      </g>
     </g>
     <g id="text_15">
      <!-- 1.0 -->
      <g transform="translate(21.87 36.394474) scale(0.11 -0.11)">
       <use xlink:href="#DejaVuSans-31"/>
       <use xlink:href="#DejaVuSans-2e" transform="translate(63.623047 0)"/>
       <use xlink:href="#DejaVuSans-30" transform="translate(95.410156 0)"/>
      </g>
     </g>
    </g>
    <g id="text_16">
     <!-- magnetization $m$ -->
     <g transform="translate(15.56 166.947) rotate(-90) scale(0.11 -0.11)">
      <defs>
       <path id="DejaVuSans-67" d="M 2906 1791 
Q 2906 2416 2648 2759 
Q 2391 3103 1925 3103 
Q 1463 3103 1205 2759 
Q 947 2416 947 1791 
Q 947 1169 1205 825 
Q 1463 481 1925 481 
Q 2391 481 2648 825 
Q 2906 1169 2906 1791 
z
M 3481 434 
Q 3481 -459 3084 -895 
Q 2688 -1331 1869 -1331 
Q 1566 -1331 1297 -1286 
Q 1028 -1241 775 -1147 
L 775 -588 
Q 1028 -725 1275 -790 
Q 1522 -856 1778 -856 
Q 2344 -856 2625 -561 
Q 2906 -266 2906 331 
L 2906 616 
Q 2728 306 2450 153 
Q 2172 0 1784 0 
Q 1141 0 747 490 
Q 353 981 353 1791 
Q 353 2603 747 3093 
Q 1141 3584 1784 3584 
Q 2172 3584 2450 3431 
Q 2728 3278 2906 2969 
L 2906 3500 
L 3481 3500 
L 3481 434 
z
" transform="scale(0.015625)"/>
       <path id="DejaVuSans-6e" d="M 3513 2113 
L 3513 0 
L 2938 0 
L 2938 2094 
Q 2938 2591 2744 2837 
Q 2550 3084 2163 3084 
Q 1697 3084 1428 2787 
Q 1159 2491 1159 1978 
L 1159 0 
L 581 0 
L 581 3500 
L 1159 3500 
L 1159 2956 
Q 1366 3272 1645 3428 
Q 1925 3584 2291 3584 
Q 2894 3584 3203 3211 
Q 3513 2838 3513 2113 
z
" transform="scale(0.015625)"/>
       <path id="DejaVuSans-69" d="M 603 3500 
L 1178 3500 
L 1178 0 
L 603 0 
L 603 3500 
z
M 603 4863 
L 1178 4863 
L 1178 4134 
L 603 4134 
L 603 4863 
z
" transform="scale(0.015625)"/>
       <path id="DejaVuSans-7a" d="M 353 3500 
L 3084 3500 
L 3084 2975 
L 922 459 
L 3084 459 
L 3084 0 
L 275 0 
L 275 525 
L 2438 3041 
L 353 3041 
L 353 3500 
z
" transform="scale(0.015625)"/>
       <path id="DejaVuSans-6f" d="M 1959 3097 
Q 1497 3097 1228 2736 
Q 959 2375 959 1747 
Q 959 1119 1226 758 
Q 1494 397 1959 397 
Q 2419 397 2687 759 
Q 2956 1122 2956 1747 
Q 2956 2369 2687 2733 
Q 2419 3097 1959 3097 
z
M 1959 3584 
Q 2709 3584 3137 3096 
Q 3566 2609 3566 1747 
Q 3566 888 3137 398 
Q 2709 -91 1959 -91 
Q 1206 -91 779 398 
Q 353 888 353 1747 
Q 353 2609 779 3096 
Q 1206 3584 1959 3584 
z
" transform="scale(0.015625)"/>
       <path id="DejaVuSans-Oblique-6d" d="M 5747 2113 
L 5338 0 
L 4763 0 
L 5166 2094 
Q 5191 2228 5203 2325 
Q 5216 2422 5216 2491 
Q 5216 2772 5059 2928 
Q 4903 3084 4622 3084 
Q 4203 3084 3875 2770 
Q 3547 2456 3450 1953 
L 3066 0 
L 2491 0 
L 2900 2094 
Q 2925 2209 2937 2307 
Q 2950 2406 2950 2484 
Q 2950 2769 2794 2926 
Q 2638 3084 2363 3084 
Q 1938 3084 1609 2770 
Q 1281 2456 1184 1953 
L 800 0 
L 225 0 
L 909 3500 
L 1484 3500 
L 1375 2956 
Q 1609 3263 1923 3423 
Q 2238 3584 2597 3584 
Q 2978 3584 3223 3384 
Q 3469 3184 3519 2828 
Q 3781 3197 4126 3390 
Q 4472 3584 4856 3584 
Q 5306 3584 5551 3325 
Q 5797 3066 5797 2591 
Q 5797 2488 5784 2364 
Q 5772 2241 5747 2113 
z
" transform="scale(0.015625)"/>
      </defs>
      <use xlink:href="#DejaVuSans-6d" transform="translate(0 0.015625)"/>
      <use xlink:href="#DejaVuSans-61" transform="translate(97.412109 0.015625)"/>
      <use xlink:href="#DejaVuSans-67" transform="translate(158.691406 0.015625)"/>
      <use xlink:href="#DejaVuSans-6e" transform="translate(222.167969 0.015625)"/>
      <use xlink:href="#DejaVuSans-65" transform="translate(285.546875 0.015625)"/>
      <use xlink:href="#DejaVuSans-74" transform="translate(347.070312 0.015625)"/>
      <use xlink:href="#DejaVuSans-69" transform="translate(386.279297 0.015625)"/>
      <use xlink:href="#DejaVuSans-7a" transform="translate(414.0625 0.015625)"/>
      <use xlink:href="#DejaVuSans-61" transform="translate(466.552734 0.015625)"/>
      <use xlink:href="#DejaVuSans-74" transform="translate(527.832031 0.015625)"/>
      <use xlink:href="#DejaVuSans-69" transform="translate(567.041016 0.015625)"/>
      <use xlink:href="#DejaVuSans-6f" transform="translate(594.824219 0.015625)"/>
      <use xlink:href="#DejaVuSans-6e" transform="translate(656.005859 0.015625)"/>
      <use xlink:href="#DejaVuSans-20" transform="translate(719.384766 0.015625)"/>
      <use xlink:href="#DejaVuSans-Oblique-6d" transform="translate(751.171875 0.015625)"/>
     </g>
    </g>
   </g>
   <g id="line2d_15">
    <path d="M 51.305723 32.215333 
L 107.098271 32.320865 
L 117.915193 32.579534 
L 127.024181 33.01961 
L 134.994545 33.631586 
L 142.395597 34.429799 
L 149.227337 35.39133 
L 155.489766 36.482315 
L 161.752195 37.790752 
L 168.014624 39.332509 
L 173.707741 40.949802 
L 179.400858 42.784944 
L 185.093975 44.850479 
L 190.787092 47.159793 
L 196.480209 49.727467 
L 201.604015 52.272607 
L 206.72782 55.053332 
L 211.851625 58.084595 
L 216.975431 61.383512 
L 222.099236 64.96992 
L 226.65373 68.417919 
L 231.208224 72.130653 
L 235.762717 76.130844 
L 240.317211 80.44568 
L 244.302393 84.505047 
L 248.287575 88.857377 
L 252.272757 93.535531 
L 256.257939 98.580389 
L 259.673809 103.235418 
L 263.089679 108.239504 
L 266.50555 113.646284 
L 269.92142 119.526768 
L 272.767978 124.858271 
L 275.614537 130.663859 
L 278.461096 137.053985 
L 280.738342 142.695341 
L 283.015589 148.94344 
L 285.292836 156.001552 
L 287.000771 162.031845 
L 288.708706 168.985994 
L 289.84733 174.385569 
L 290.985953 180.759468 
L 292.124577 188.904728 
L 292.693888 194.377897 
L 293.832512 211.882 
L 392.323438 211.882 
L 392.323438 211.882 
" clip-path="url(#p029ad97783)" style="fill: none; stroke: #3b3b6d; stroke-width: 2; stroke-linecap: square"/>
   </g>
   <g id="line2d_16">
    <path d="M 253.939438 87.405282 
L 254.271692 87.929397 
L 254.603947 88.455737 
L 254.936201 88.984332 
L 255.268456 89.51521 
L 255.60071 90.048401 
L 255.932965 90.583936 
L 256.265219 91.121846 
L 256.597474 91.662162 
L 256.929728 92.204918 
L 257.261983 92.750147 
L 257.594237 93.297882 
L 257.926492 93.84816 
L 258.258746 94.401014 
L 258.591001 94.956483 
L 258.923255 95.514603 
L 259.25551 96.075413 
L 259.587764 96.638952 
L 259.920019 97.205261 
L 260.252273 97.77438 
L 260.584528 98.346351 
L 260.916782 98.921219 
L 261.249037 99.499027 
L 261.581291 100.079822 
L 261.913546 100.663649 
L 262.2458 101.250557 
L 262.578055 101.840596 
L 262.910309 102.433815 
L 263.242564 103.030268 
L 263.574818 103.630006 
L 263.907073 104.233086 
L 264.239327 104.839564 
L 264.571582 105.449497 
L 264.903836 106.062946 
L 265.236091 106.679972 
L 265.568345 107.300638 
L 265.9006 107.92501 
L 266.232854 108.553155 
L 266.565109 109.185142 
L 266.897363 109.821042 
L 267.229618 110.460929 
L 267.561872 111.104878 
L 267.894127 111.75297 
L 268.226381 112.405283 
L 268.558636 113.061902 
L 268.89089 113.722913 
L 269.223145 114.388406 
L 269.555399 115.058473 
L 269.887654 115.73321 
L 270.219908 116.412715 
L 270.552163 117.097092 
L 270.884417 117.786446 
L 271.216672 118.480887 
L 271.548926 119.180531 
L 271.881181 119.885495 
L 272.213435 120.595904 
L 272.54569 121.311884 
L 272.877944 122.03357 
L 273.210199 122.7611 
L 273.542453 123.494617 
L 273.874708 124.234274 
L 274.206962 124.980225 
L 274.539217 125.732636 
L 274.871471 126.491676 
L 275.203726 127.257524 
L 275.53598 128.030366 
L 275.868235 128.810398 
L 276.200489 129.597825 
L 276.532744 130.39286 
L 276.864998 131.195728 
L 277.197253 132.006666 
L 277.529507 132.825922 
L 277.861762 133.653757 
L 278.194016 134.490447 
L 278.526271 135.336281 
L 278.858525 136.191568 
L 279.19078 137.056629 
L 279.523034 137.93181 
L 279.855289 138.817473 
L 280.187543 139.714004 
L 280.519798 140.621814 
L 280.852052 141.541339 
L 281.184307 142.473044 
L 281.516561 143.417428 
L 281.848816 144.375021 
L 282.18107 145.346395 
L 282.513325 146.332163 
L 282.845579 147.332982 
L 283.177834 148.349566 
L 283.510088 149.382682 
L 283.842343 150.433166 
L 284.174597 151.501923 
L 284.506852 152.589941 
L 284.839106 153.698302 
L 285.171361 154.82819 
L 285.503615 155.980911 
L 285.83587 157.157908 
L 286.168124 158.360782 
L 286.500379 159.591319 
L 286.832633 160.851521 
L 287.164888 162.143641 
L 287.497142 163.470237 
L 287.829397 164.834223 
L 288.161651 166.238952 
L 288.493906 167.688309 
L 288.82616 169.186838 
L 289.158415 170.739912 
L 289.490669 172.353961 
L 289.822924 174.036784 
L 290.155178 175.798002 
L 290.487433 177.649714 
L 290.819687 179.607491 
L 291.151942 181.691961 
L 291.484196 183.931455 
L 291.816451 186.36676 
L 292.148705 189.060476 
L 292.48096 192.11798 
L 292.813214 195.744746 
L 293.145469 200.471238 
L 293.477723 211.882 
" clip-path="url(#p029ad97783)" style="fill: none; stroke-dasharray: 5.92,2.56; stroke-dashoffset: 0; stroke: #9a5a8a; stroke-width: 1.6"/>
   </g>
   <g id="line2d_17">
    <path d="M 51.305723 211.882 
L 392.323438 211.882 
L 392.323438 211.882 
" clip-path="url(#p029ad97783)" style="fill: none; stroke: #b5651d; stroke-width: 2; stroke-linecap: square"/>
   </g>
   <g id="line2d_18">
    <path d="M 293.477723 217.272 
L 293.477723 23.232 
" clip-path="url(#p029ad97783)" style="fill: none; stroke-dasharray: 0.9,1.485; stroke-dashoffset: 0; stroke: #aaaaaa; stroke-width: 0.9"/>
   </g>
   <g id="patch_3">
    <path d="M 46.363438 217.272 
L 46.363438 23.232 
" style="fill: none; stroke: #000000; stroke-width: 0.8; stroke-linejoin: miter; stroke-linecap: square"/>
   </g>
   <g id="patch_4">
    <path d="M 392.323438 217.272 
L 392.323438 23.232 
" style="fill: none; stroke: #000000; stroke-width: 0.8; stroke-linejoin: miter; stroke-linecap: square"/>
   </g>
   <g id="patch_5">
    <path d="M 46.363438 217.272 
L 392.323438 217.272 
" style="fill: none; stroke: #000000; stroke-width: 0.8; stroke-linejoin: miter; stroke-linecap: square"/>
   </g>
   <g id="patch_6">
    <path d="M 46.363438 23.232 
L 392.323438 23.232 
" style="fill: none; stroke: #000000; stroke-width: 0.8; stroke-linejoin: miter; stroke-linecap: square"/>
   </g>
   <g id="text_17">
    <!-- $T_c$ -->
    <g style="fill: #666666" transform="translate(313.246866 183.135333) scale(0.1 -0.1)">
     <use xlink:href="#DejaVuSans-Oblique-54" transform="translate(0 0.09375)"/>
     <use xlink:href="#DejaVuSans-Oblique-63" transform="translate(61.083984 -16.3125) scale(0.7)"/>
    </g>
   </g>
   <g id="text_18">
    <!-- Spontaneous magnetization: a second-order transition at $T_c$ -->
    <g transform="translate(21.409438 17.232) scale(0.132 -0.132)">
     <defs>
      <path id="DejaVuSans-53" d="M 3425 4513 
L 3425 3897 
Q 3066 4069 2747 4153 
Q 2428 4238 2131 4238 
Q 1616 4238 1336 4038 
Q 1056 3838 1056 3469 
Q 1056 3159 1242 3001 
Q 1428 2844 1947 2747 
L 2328 2669 
Q 3034 2534 3370 2195 
Q 3706 1856 3706 1288 
Q 3706 609 3251 259 
Q 2797 -91 1919 -91 
Q 1588 -91 1214 -16 
Q 841 59 441 206 
L 441 856 
Q 825 641 1194 531 
Q 1563 422 1919 422 
Q 2459 422 2753 634 
Q 3047 847 3047 1241 
Q 3047 1584 2836 1778 
Q 2625 1972 2144 2069 
L 1759 2144 
Q 1053 2284 737 2584 
Q 422 2884 422 3419 
Q 422 4038 858 4394 
Q 1294 4750 2059 4750 
Q 2388 4750 2728 4690 
Q 3069 4631 3425 4513 
z
" transform="scale(0.015625)"/>
      <path id="DejaVuSans-73" d="M 2834 3397 
L 2834 2853 
Q 2591 2978 2328 3040 
Q 2066 3103 1784 3103 
Q 1356 3103 1142 2972 
Q 928 2841 928 2578 
Q 928 2378 1081 2264 
Q 1234 2150 1697 2047 
L 1894 2003 
Q 2506 1872 2764 1633 
Q 3022 1394 3022 966 
Q 3022 478 2636 193 
Q 2250 -91 1575 -91 
Q 1294 -91 989 -36 
Q 684 19 347 128 
L 347 722 
Q 666 556 975 473 
Q 1284 391 1588 391 
Q 1994 391 2212 530 
Q 2431 669 2431 922 
Q 2431 1156 2273 1281 
Q 2116 1406 1581 1522 
L 1381 1569 
Q 847 1681 609 1914 
Q 372 2147 372 2553 
Q 372 3047 722 3315 
Q 1072 3584 1716 3584 
Q 2034 3584 2315 3537 
Q 2597 3491 2834 3397 
z
" transform="scale(0.015625)"/>
      <path id="DejaVuSans-3a" d="M 750 794 
L 1409 794 
L 1409 0 
L 750 0 
L 750 794 
z
M 750 3309 
L 1409 3309 
L 1409 2516 
L 750 2516 
L 750 3309 
z
" transform="scale(0.015625)"/>
      <path id="DejaVuSans-2d" d="M 313 2009 
L 1997 2009 
L 1997 1497 
L 313 1497 
L 313 2009 
z
" transform="scale(0.015625)"/>
     </defs>
     <use xlink:href="#DejaVuSans-53" transform="translate(0 0.015625)"/>
     <use xlink:href="#DejaVuSans-70" transform="translate(63.476562 0.015625)"/>
     <use xlink:href="#DejaVuSans-6f" transform="translate(126.953125 0.015625)"/>
     <use xlink:href="#DejaVuSans-6e" transform="translate(188.134766 0.015625)"/>
     <use xlink:href="#DejaVuSans-74" transform="translate(251.513672 0.015625)"/>
     <use xlink:href="#DejaVuSans-61" transform="translate(290.722656 0.015625)"/>
     <use xlink:href="#DejaVuSans-6e" transform="translate(352.001953 0.015625)"/>
     <use xlink:href="#DejaVuSans-65" transform="translate(415.380859 0.015625)"/>
     <use xlink:href="#DejaVuSans-6f" transform="translate(476.904297 0.015625)"/>
     <use xlink:href="#DejaVuSans-75" transform="translate(538.085938 0.015625)"/>
     <use xlink:href="#DejaVuSans-73" transform="translate(601.464844 0.015625)"/>
     <use xlink:href="#DejaVuSans-20" transform="translate(653.564453 0.015625)"/>
     <use xlink:href="#DejaVuSans-6d" transform="translate(685.351562 0.015625)"/>
     <use xlink:href="#DejaVuSans-61" transform="translate(782.763672 0.015625)"/>
     <use xlink:href="#DejaVuSans-67" transform="translate(844.042969 0.015625)"/>
     <use xlink:href="#DejaVuSans-6e" transform="translate(907.519531 0.015625)"/>
     <use xlink:href="#DejaVuSans-65" transform="translate(970.898438 0.015625)"/>
     <use xlink:href="#DejaVuSans-74" transform="translate(1032.421875 0.015625)"/>
     <use xlink:href="#DejaVuSans-69" transform="translate(1071.630859 0.015625)"/>
     <use xlink:href="#DejaVuSans-7a" transform="translate(1099.414062 0.015625)"/>
     <use xlink:href="#DejaVuSans-61" transform="translate(1151.904297 0.015625)"/>
     <use xlink:href="#DejaVuSans-74" transform="translate(1213.183594 0.015625)"/>
     <use xlink:href="#DejaVuSans-69" transform="translate(1252.392578 0.015625)"/>
     <use xlink:href="#DejaVuSans-6f" transform="translate(1280.175781 0.015625)"/>
     <use xlink:href="#DejaVuSans-6e" transform="translate(1341.357422 0.015625)"/>
     <use xlink:href="#DejaVuSans-3a" transform="translate(1404.736328 0.015625)"/>
     <use xlink:href="#DejaVuSans-20" transform="translate(1438.427734 0.015625)"/>
     <use xlink:href="#DejaVuSans-61" transform="translate(1470.214844 0.015625)"/>
     <use xlink:href="#DejaVuSans-20" transform="translate(1531.494141 0.015625)"/>
     <use xlink:href="#DejaVuSans-73" transform="translate(1563.28125 0.015625)"/>
     <use xlink:href="#DejaVuSans-65" transform="translate(1615.380859 0.015625)"/>
     <use xlink:href="#DejaVuSans-63" transform="translate(1676.904297 0.015625)"/>
     <use xlink:href="#DejaVuSans-6f" transform="translate(1731.884766 0.015625)"/>
     <use xlink:href="#DejaVuSans-6e" transform="translate(1793.066406 0.015625)"/>
     <use xlink:href="#DejaVuSans-64" transform="translate(1856.445312 0.015625)"/>
     <use xlink:href="#DejaVuSans-2d" transform="translate(1919.921875 0.015625)"/>
     <use xlink:href="#DejaVuSans-6f" transform="translate(1956.005859 0.015625)"/>
     <use xlink:href="#DejaVuSans-72" transform="translate(2017.1875 0.015625)"/>
     <use xlink:href="#DejaVuSans-64" transform="translate(2058.300781 0.015625)"/>
     <use xlink:href="#DejaVuSans-65" transform="translate(2121.777344 0.015625)"/>
     <use xlink:href="#DejaVuSans-72" transform="translate(2183.300781 0.015625)"/>
     <use xlink:href="#DejaVuSans-20" transform="translate(2224.414062 0.015625)"/>
     <use xlink:href="#DejaVuSans-74" transform="translate(2256.201172 0.015625)"/>
     <use xlink:href="#DejaVuSans-72" transform="translate(2295.410156 0.015625)"/>
     <use xlink:href="#DejaVuSans-61" transform="translate(2336.523438 0.015625)"/>
     <use xlink:href="#DejaVuSans-6e" transform="translate(2397.802734 0.015625)"/>
     <use xlink:href="#DejaVuSans-73" transform="translate(2461.181641 0.015625)"/>
     <use xlink:href="#DejaVuSans-69" transform="translate(2513.28125 0.015625)"/>
     <use xlink:href="#DejaVuSans-74" transform="translate(2541.064453 0.015625)"/>
     <use xlink:href="#DejaVuSans-69" transform="translate(2580.273438 0.015625)"/>
     <use xlink:href="#DejaVuSans-6f" transform="translate(2608.056641 0.015625)"/>
     <use xlink:href="#DejaVuSans-6e" transform="translate(2669.238281 0.015625)"/>
     <use xlink:href="#DejaVuSans-20" transform="translate(2732.617188 0.015625)"/>
     <use xlink:href="#DejaVuSans-61" transform="translate(2764.404297 0.015625)"/>
     <use xlink:href="#DejaVuSans-74" transform="translate(2825.683594 0.015625)"/>
     <use xlink:href="#DejaVuSans-20" transform="translate(2864.892578 0.015625)"/>
     <use xlink:href="#DejaVuSans-Oblique-54" transform="translate(2896.679688 0.015625)"/>
     <use xlink:href="#DejaVuSans-Oblique-63" transform="translate(2957.763672 -16.390625) scale(0.7)"/>
    </g>
   </g>
   <g id="legend_1">
    <g id="line2d_19">
     <path d="M 54.463438 172.722 
L 63.463438 172.722 
L 72.463437 172.722 
" style="fill: none; stroke: #3b3b6d; stroke-width: 2; stroke-linecap: square"/>
    </g>
    <g id="text_19">
     <!-- mean-field Ising  (spontaneous $m$) -->
     <g transform="translate(79.663438 175.872) scale(0.09 -0.09)">
      <defs>
       <path id="DejaVuSans-66" d="M 2375 4863 
L 2375 4384 
L 1825 4384 
Q 1516 4384 1395 4259 
Q 1275 4134 1275 3809 
L 1275 3500 
L 2222 3500 
L 2222 3053 
L 1275 3053 
L 1275 0 
L 697 0 
L 697 3053 
L 147 3053 
L 147 3500 
L 697 3500 
L 697 3744 
Q 697 4328 969 4595 
Q 1241 4863 1831 4863 
L 2375 4863 
z
" transform="scale(0.015625)"/>
       <path id="DejaVuSans-6c" d="M 603 4863 
L 1178 4863 
L 1178 0 
L 603 0 
L 603 4863 
z
" transform="scale(0.015625)"/>
       <path id="DejaVuSans-49" d="M 628 4666 
L 1259 4666 
L 1259 0 
L 628 0 
L 628 4666 
z
" transform="scale(0.015625)"/>
       <path id="DejaVuSans-28" d="M 1984 4856 
Q 1566 4138 1362 3434 
Q 1159 2731 1159 2009 
Q 1159 1288 1364 580 
Q 1569 -128 1984 -844 
L 1484 -844 
Q 1016 -109 783 600 
Q 550 1309 550 2009 
Q 550 2706 781 3412 
Q 1013 4119 1484 4856 
L 1984 4856 
z
" transform="scale(0.015625)"/>
       <path id="DejaVuSans-29" d="M 513 4856 
L 1013 4856 
Q 1481 4119 1714 3412 
Q 1947 2706 1947 2009 
Q 1947 1309 1714 600 
Q 1481 -109 1013 -844 
L 513 -844 
Q 928 -128 1133 580 
Q 1338 1288 1338 2009 
Q 1338 2731 1133 3434 
Q 928 4138 513 4856 
z
" transform="scale(0.015625)"/>
      </defs>
      <use xlink:href="#DejaVuSans-6d" transform="translate(0 0.015625)"/>
      <use xlink:href="#DejaVuSans-65" transform="translate(97.412109 0.015625)"/>
      <use xlink:href="#DejaVuSans-61" transform="translate(158.935547 0.015625)"/>
      <use xlink:href="#DejaVuSans-6e" transform="translate(220.214844 0.015625)"/>
      <use xlink:href="#DejaVuSans-2d" transform="translate(283.59375 0.015625)"/>
      <use xlink:href="#DejaVuSans-66" transform="translate(319.677734 0.015625)"/>
      <use xlink:href="#DejaVuSans-69" transform="translate(354.882812 0.015625)"/>
      <use xlink:href="#DejaVuSans-65" transform="translate(382.666016 0.015625)"/>
      <use xlink:href="#DejaVuSans-6c" transform="translate(444.189453 0.015625)"/>
      <use xlink:href="#DejaVuSans-64" transform="translate(471.972656 0.015625)"/>
      <use xlink:href="#DejaVuSans-20" transform="translate(535.449219 0.015625)"/>
      <use xlink:href="#DejaVuSans-49" transform="translate(567.236328 0.015625)"/>
      <use xlink:href="#DejaVuSans-73" transform="translate(596.728516 0.015625)"/>
      <use xlink:href="#DejaVuSans-69" transform="translate(648.828125 0.015625)"/>
      <use xlink:href="#DejaVuSans-6e" transform="translate(676.611328 0.015625)"/>
      <use xlink:href="#DejaVuSans-67" transform="translate(739.990234 0.015625)"/>
      <use xlink:href="#DejaVuSans-20" transform="translate(803.466797 0.015625)"/>
      <use xlink:href="#DejaVuSans-20" transform="translate(835.253906 0.015625)"/>
      <use xlink:href="#DejaVuSans-28" transform="translate(867.041016 0.015625)"/>
      <use xlink:href="#DejaVuSans-73" transform="translate(906.054688 0.015625)"/>
      <use xlink:href="#DejaVuSans-70" transform="translate(958.154297 0.015625)"/>
      <use xlink:href="#DejaVuSans-6f" transform="translate(1021.630859 0.015625)"/>
      <use xlink:href="#DejaVuSans-6e" transform="translate(1082.8125 0.015625)"/>
      <use xlink:href="#DejaVuSans-74" transform="translate(1146.191406 0.015625)"/>
      <use xlink:href="#DejaVuSans-61" transform="translate(1185.400391 0.015625)"/>
      <use xlink:href="#DejaVuSans-6e" transform="translate(1246.679688 0.015625)"/>
      <use xlink:href="#DejaVuSans-65" transform="translate(1310.058594 0.015625)"/>
      <use xlink:href="#DejaVuSans-6f" transform="translate(1371.582031 0.015625)"/>
      <use xlink:href="#DejaVuSans-75" transform="translate(1432.763672 0.015625)"/>
      <use xlink:href="#DejaVuSans-73" transform="translate(1496.142578 0.015625)"/>
      <use xlink:href="#DejaVuSans-20" transform="translate(1548.242188 0.015625)"/>
      <use xlink:href="#DejaVuSans-Oblique-6d" transform="translate(1580.029297 0.015625)"/>
      <use xlink:href="#DejaVuSans-29" transform="translate(1677.441406 0.015625)"/>
     </g>
    </g>
    <g id="line2d_20">
     <path d="M 54.463438 189.192 
L 63.463438 189.192 
L 72.463437 189.192 
" style="fill: none; stroke-dasharray: 5.92,2.56; stroke-dashoffset: 0; stroke: #9a5a8a; stroke-width: 1.6"/>
    </g>
    <g id="text_20">
     <!-- near $T_c$: $\sqrt{3}\,(1-T/T_c)^{1/2}$  ($\beta=\frac{1}{2}$) -->
     <g transform="translate(79.663438 192.342) scale(0.09 -0.09)">
      <defs>
       <path id="STIXSizeOneSym-Regular-221a" d="M 6970 9933 
L 3373 -1888 
L 3104 -1888 
L 1626 2918 
Q 1555 3149 1465 3251 
Q 1376 3354 1229 3354 
Q 1011 3354 794 3181 
L 717 3309 
L 1766 4115 
L 1926 4115 
L 3379 -602 
L 3405 -602 
L 6605 9933 
L 6970 9933 
z
" transform="scale(0.015625)"/>
       <path id="DejaVuSans-33" d="M 2597 2516 
Q 3050 2419 3304 2112 
Q 3559 1806 3559 1356 
Q 3559 666 3084 287 
Q 2609 -91 1734 -91 
Q 1441 -91 1130 -33 
Q 819 25 488 141 
L 488 750 
Q 750 597 1062 519 
Q 1375 441 1716 441 
Q 2309 441 2620 675 
Q 2931 909 2931 1356 
Q 2931 1769 2642 2001 
Q 2353 2234 1838 2234 
L 1294 2234 
L 1294 2753 
L 1863 2753 
Q 2328 2753 2575 2939 
Q 2822 3125 2822 3475 
Q 2822 3834 2567 4026 
Q 2313 4219 1838 4219 
Q 1578 4219 1281 4162 
Q 984 4106 628 3988 
L 628 4550 
Q 988 4650 1302 4700 
Q 1616 4750 1894 4750 
Q 2613 4750 3031 4423 
Q 3450 4097 3450 3541 
Q 3450 3153 3228 2886 
Q 3006 2619 2597 2516 
z
" transform="scale(0.015625)"/>
       <path id="DejaVuSans-2212" d="M 678 2272 
L 4684 2272 
L 4684 1741 
L 678 1741 
L 678 2272 
z
" transform="scale(0.015625)"/>
       <path id="DejaVuSans-Oblique-3b2" d="M 872 216 
L 572 -1331 
L -6 -1331 
L 928 3478 
Q 1206 4903 2538 4903 
Q 3888 4903 3659 3700 
Q 3503 2844 2894 2531 
Q 3713 2250 3553 1416 
Q 3272 -69 1759 -66 
Q 1097 -63 872 216 
z
M 1019 966 
Q 1259 422 1875 425 
Q 2775 425 2966 1406 
Q 3138 2288 1675 2219 
L 1778 2750 
Q 2909 2731 3106 3750 
Q 3241 4438 2509 4434 
Q 1691 4434 1503 3459 
L 1019 966 
z
" transform="scale(0.015625)"/>
       <path id="DejaVuSans-3d" d="M 678 2906 
L 4684 2906 
L 4684 2381 
L 678 2381 
L 678 2906 
z
M 678 1631 
L 4684 1631 
L 4684 1100 
L 678 1100 
L 678 1631 
z
" transform="scale(0.015625)"/>
      </defs>
      <use xlink:href="#DejaVuSans-6e" transform="translate(0 0.296875)"/>
      <use xlink:href="#DejaVuSans-65" transform="translate(63.378906 0.296875)"/>
      <use xlink:href="#DejaVuSans-61" transform="translate(124.902344 0.296875)"/>
      <use xlink:href="#DejaVuSans-72" transform="translate(186.181641 0.296875)"/>
      <use xlink:href="#DejaVuSans-20" transform="translate(227.294922 0.296875)"/>
      <use xlink:href="#DejaVuSans-Oblique-54" transform="translate(259.082031 0.296875)"/>
      <use xlink:href="#DejaVuSans-Oblique-63" transform="translate(320.166016 -16.109375) scale(0.7)"/>
      <use xlink:href="#DejaVuSans-3a" transform="translate(361.386719 0.296875)"/>
      <use xlink:href="#DejaVuSans-20" transform="translate(395.078125 0.296875)"/>
      <use xlink:href="#STIXSizeOneSym-Regular-221a" transform="translate(426.865234 15.984375) scale(0.578716)"/>
      <use xlink:href="#DejaVuSans-33" transform="translate(500.539108 0.53125)"/>
      <use xlink:href="#DejaVuSans-28" transform="translate(592.897831 0.296875)"/>
      <use xlink:href="#DejaVuSans-31" transform="translate(631.911503 0.296875)"/>
      <use xlink:href="#DejaVuSans-2212" transform="translate(715.016972 0.296875)"/>
      <use xlink:href="#DejaVuSans-Oblique-54" transform="translate(818.288456 0.296875)"/>
      <use xlink:href="#DejaVuSans-2f" transform="translate(879.372441 0.296875)"/>
      <use xlink:href="#DejaVuSans-Oblique-54" transform="translate(913.063847 0.296875)"/>
      <use xlink:href="#DejaVuSans-Oblique-63" transform="translate(974.147831 -16.109375) scale(0.7)"/>
      <use xlink:href="#DejaVuSans-29" transform="translate(1015.368535 0.296875)"/>
      <use xlink:href="#DejaVuSans-31" transform="translate(1055.339238 38.578125) scale(0.7)"/>
      <use xlink:href="#DejaVuSans-2f" transform="translate(1099.87537 38.578125) scale(0.7)"/>
      <use xlink:href="#DejaVuSans-32" transform="translate(1120.921855 38.578125) scale(0.7)"/>
      <use xlink:href="#DejaVuSans-20" transform="translate(1168.192363 0.296875)"/>
      <use xlink:href="#DejaVuSans-20" transform="translate(1199.979472 0.296875)"/>
      <use xlink:href="#DejaVuSans-28" transform="translate(1231.766581 0.296875)"/>
      <use xlink:href="#DejaVuSans-Oblique-3b2" transform="translate(1270.780253 0.296875)"/>
      <use xlink:href="#DejaVuSans-3d" transform="translate(1354.081035 0.296875)"/>
      <use xlink:href="#DejaVuSans-31" transform="translate(1457.352519 44.09375) scale(0.7)"/>
      <use xlink:href="#DejaVuSans-32" transform="translate(1457.352519 -39.109375) scale(0.7)"/>
      <use xlink:href="#DejaVuSans-29" transform="translate(1514.388652 0.296875)"/>
      <path d="M 488.039108 99.5 
L 488.039108 105.75 
L 576.662155 105.75 
L 576.662155 99.5 
L 488.039108 99.5 
z
"/>
      <path d="M 1457.352519 19.09375 
L 1457.352519 25.34375 
L 1501.888652 25.34375 
L 1501.888652 19.09375 
L 1457.352519 19.09375 
z
"/>
     </g>
    </g>
    <g id="line2d_21">
     <path d="M 54.463438 204.132 
L 63.463438 204.132 
L 72.463437 204.132 
" style="fill: none; stroke: #b5651d; stroke-width: 2; stroke-linecap: square"/>
    </g>
    <g id="text_21">
     <!-- exact 1-D Ising ($h=0$): no transition -->
     <g transform="translate(79.663438 207.282) scale(0.09 -0.09)">
      <defs>
       <path id="DejaVuSans-78" d="M 3513 3500 
L 2247 1797 
L 3578 0 
L 2900 0 
L 1881 1375 
L 863 0 
L 184 0 
L 1544 1831 
L 300 3500 
L 978 3500 
L 1906 2253 
L 2834 3500 
L 3513 3500 
z
" transform="scale(0.015625)"/>
       <path id="DejaVuSans-44" d="M 1259 4147 
L 1259 519 
L 2022 519 
Q 2988 519 3436 956 
Q 3884 1394 3884 2338 
Q 3884 3275 3436 3711 
Q 2988 4147 2022 4147 
L 1259 4147 
z
M 628 4666 
L 1925 4666 
Q 3281 4666 3915 4102 
Q 4550 3538 4550 2338 
Q 4550 1131 3912 565 
Q 3275 0 1925 0 
L 628 0 
L 628 4666 
z
" transform="scale(0.015625)"/>
       <path id="DejaVuSans-Oblique-68" d="M 3566 2113 
L 3156 0 
L 2578 0 
L 2988 2091 
Q 3016 2238 3031 2350 
Q 3047 2463 3047 2528 
Q 3047 2791 2881 2937 
Q 2716 3084 2419 3084 
Q 1956 3084 1617 2771 
Q 1278 2459 1178 1941 
L 800 0 
L 225 0 
L 1172 4863 
L 1747 4863 
L 1375 2950 
Q 1594 3244 1934 3414 
Q 2275 3584 2650 3584 
Q 3113 3584 3367 3334 
Q 3622 3084 3622 2631 
Q 3622 2519 3608 2391 
Q 3594 2263 3566 2113 
z
" transform="scale(0.015625)"/>
      </defs>
      <use xlink:href="#DejaVuSans-65" transform="translate(0 0.015625)"/>
      <use xlink:href="#DejaVuSans-78" transform="translate(61.523438 0.015625)"/>
      <use xlink:href="#DejaVuSans-61" transform="translate(120.703125 0.015625)"/>
      <use xlink:href="#DejaVuSans-63" transform="translate(181.982422 0.015625)"/>
      <use xlink:href="#DejaVuSans-74" transform="translate(236.962891 0.015625)"/>
      <use xlink:href="#DejaVuSans-20" transform="translate(276.171875 0.015625)"/>
      <use xlink:href="#DejaVuSans-31" transform="translate(307.958984 0.015625)"/>
      <use xlink:href="#DejaVuSans-2d" transform="translate(371.582031 0.015625)"/>
      <use xlink:href="#DejaVuSans-44" transform="translate(407.666016 0.015625)"/>
      <use xlink:href="#DejaVuSans-20" transform="translate(484.667969 0.015625)"/>
      <use xlink:href="#DejaVuSans-49" transform="translate(516.455078 0.015625)"/>
      <use xlink:href="#DejaVuSans-73" transform="translate(545.947266 0.015625)"/>
      <use xlink:href="#DejaVuSans-69" transform="translate(598.046875 0.015625)"/>
      <use xlink:href="#DejaVuSans-6e" transform="translate(625.830078 0.015625)"/>
      <use xlink:href="#DejaVuSans-67" transform="translate(689.208984 0.015625)"/>
      <use xlink:href="#DejaVuSans-20" transform="translate(752.685547 0.015625)"/>
      <use xlink:href="#DejaVuSans-28" transform="translate(784.472656 0.015625)"/>
      <use xlink:href="#DejaVuSans-Oblique-68" transform="translate(823.486328 0.015625)"/>
      <use xlink:href="#DejaVuSans-3d" transform="translate(906.347656 0.015625)"/>
      <use xlink:href="#DejaVuSans-30" transform="translate(1009.619141 0.015625)"/>
      <use xlink:href="#DejaVuSans-29" transform="translate(1073.242188 0.015625)"/>
      <use xlink:href="#DejaVuSans-3a" transform="translate(1112.255859 0.015625)"/>
      <use xlink:href="#DejaVuSans-20" transform="translate(1145.947266 0.015625)"/>
      <use xlink:href="#DejaVuSans-6e" transform="translate(1177.734375 0.015625)"/>
      <use xlink:href="#DejaVuSans-6f" transform="translate(1241.113281 0.015625)"/>
      <use xlink:href="#DejaVuSans-20" transform="translate(1302.294922 0.015625)"/>
      <use xlink:href="#DejaVuSans-74" transform="translate(1334.082031 0.015625)"/>
      <use xlink:href="#DejaVuSans-72" transform="translate(1373.291016 0.015625)"/>
      <use xlink:href="#DejaVuSans-61" transform="translate(1414.404297 0.015625)"/>
      <use xlink:href="#DejaVuSans-6e" transform="translate(1475.683594 0.015625)"/>
      <use xlink:href="#DejaVuSans-73" transform="translate(1539.0625 0.015625)"/>
      <use xlink:href="#DejaVuSans-69" transform="translate(1591.162109 0.015625)"/>
      <use xlink:href="#DejaVuSans-74" transform="translate(1618.945312 0.015625)"/>
      <use xlink:href="#DejaVuSans-69" transform="translate(1658.154297 0.015625)"/>
      <use xlink:href="#DejaVuSans-6f" transform="translate(1685.9375 0.015625)"/>
      <use xlink:href="#DejaVuSans-6e" transform="translate(1747.119141 0.015625)"/>
     </g>
    </g>
   </g>
  </g>
 </g>
 <defs>
  <clipPath id="p029ad97783">
   <rect x="46.363438" y="23.232" width="345.96" height="194.04"/>
  </clipPath>
 </defs>
</svg>
